<?xml version="1.0" standalone="no"?> 
<!DOCTYPE svg PUBLIC "-//W3C//DTD SVG 1.1//EN" "http://www.w3.org/Graphics/SVG/1.1/DTD/svg11.dtd" >
<svg xmlns="http://www.w3.org/2000/svg">
<defs>
  <font id="AdobeSpectrumIcons24" horiz-adv-x="1152">
    <font-face font-family="AdobeSpectrumIcons24"
      units-per-em="1152" ascent="1152"
      descent="0" />
    <missing-glyph horiz-adv-x="0" />
    <glyph glyph-name="123"
      unicode="&#xEA01;"
      horiz-adv-x="1152" d=" M869.647 564.693C865.5870000000001 564.693 864 566.326 864 570.386V650.786C864 655.663 864 658.906 868.853 658.906L909.353 659.271C966.238 659.271 997.084 676.327 997.084 713.7059999999999C997.084 749.4279999999999 967.031 772.9949999999999 907.72 772.9949999999999C863.901 772.9949999999999 826.5199999999999 762.425 787.5099999999999 742.126C782.6569999999999 739.699 781.8629999999998 742.126 781.8629999999998 745.3689999999999V825.8C781.8629999999998 830.677 781.0229999999998 832.287 785.9229999999998 834.736C823.2549999999998 855.0360000000001 872.8139999999997 866.399 927.2229999999998 866.399C1034.4599999999998 866.399 1101.0519999999997 812.799 1101.0519999999997 728.316C1101.0519999999997 673.087 1064.5129999999997 636.5250000000001 1029.5599999999997 621.916C1071.8389999999997 608.1030000000001 1126.2509999999997 573.1740000000001 1126.2509999999997 495.196C1126.2509999999997 391.225 1030.3999999999996 335.9960000000001 918.3099999999998 335.9960000000001C863.8979999999997 335.9960000000001 817.5589999999997 342.4830000000001 779.3869999999997 362.8050000000001C774.5339999999998 364.4150000000001 774.5339999999998 369.2920000000001 774.5339999999998 373.3510000000001V461.0870000000001C774.5339999999998 464.3300000000002 778.5939999999997 465.9640000000001 781.8599999999998 464.3300000000002C828.1519999999998 440.7870000000002 867.9599999999998 430.2180000000002 914.2499999999998 430.2180000000002C987.3279999999997 430.2180000000002 1015.7939999999998 460.2710000000002 1015.7939999999998 498.4430000000002C1015.7939999999998 541.4920000000002 984.9009999999998 565.0580000000002 917.4699999999998 565.0580000000002zM96.193 759.6700000000001C70.708 751.706 32.555 740.556 10.256 737.37C4.681 736.5699999999999 3.088 738.1700000000001 3.088 742.9449999999999V812.233C3.088 816.215 3.888 818.604 8.663 819.4010000000001C42.113 827.365 79.706 844.09 111.563 860.018C116.34 862.407 120.323 864 125.1 864H203.413C207.396 864 208.192 861.6110000000001 208.192 858.4250000000001L208 432H279.2150000000001C284.79 432 286.3830000000001 429.611 287.18 424.832L287.373 344.76C288.173 338.389 285.78 335.999 281.001 335.999H20C14.425 335.999 12.832 338.3880000000001 13.629 343.1670000000001L13.436 424.831C14.236 429.6090000000001 16.621 431.999 22.196 431.999H96zM342.372 336C336.796 336 336 338.389 336 343.168V400.509C336 406.0840000000001 336.8 407.677 339.9820000000001 410.862C371.8390000000001 436.347 424.4020000000001 480.9459999999999 489.707 545.4559999999999C552.624 606.78 580 646.4 580 691C580 741.174 539.086 770.53 478.557 770.53C435.5510000000001 770.53 386.9700000000001 755.3979999999999 350.3350000000001 735.4879999999999C345.5560000000001 733.0989999999999 342.3710000000001 734.6879999999999 342.3710000000001 740.2669999999999V819.1109999999999C342.3710000000001 823.8889999999999 343.1710000000001 826.279 347.1490000000001 828.6679999999999C383.7840000000001 850.968 437.1490000000001 868.4889999999999 504.8390000000001 868.4889999999999C621.9110000000001 868.4889999999999 677.339 798.7749999999999 682.2850000000001 709.7139999999999C686.2850000000001 637.7139999999999 653.3600000000001 582.952 599.999 528C550.6220000000001 476.234 526.092 453.62 499.014 430.524C553.966 430.524 667.174 432 714.163 432C719.738 432 720.534 430.4070000000001 719.738 424.832L695.9780000000001 342.371C694.3860000000001 337.593 692.0000000000001 336 687.2180000000001 336H342.372z" />
    <glyph glyph-name="ABC"
      unicode="&#xEA02;"
      horiz-adv-x="1152" d=" M138.674 444.5L104.726 341.991C103.395 337.332 100.733 336 96.739 336H16.863C11.538 336 10.206 338.663 11.538 343.322C46.817 443.168 103.396 606.9159999999999 145.331 722.071C147.994 728.7270000000001 150.656 737.3800000000001 151.988 763.341C151.988 766.669 153.988 768 156.648 768H263.8150000000001C266.4780000000001 768 267.8090000000001 767.335 269.1400000000001 764.672C317.7310000000001 630.878 370.9830000000001 478.447 420.24 342.656C422.24 337.997 420.906 336 416.246 336H328.382C324.3879999999999 336 323.057 337.331 321.725 340.66L284.449 444.5H138.674zM263.814 520.383C250.502 565.6460000000001 223.876 641.529 210.562 689.455H209.9C199.916 644.191 175.953 574.299 158.646 520.383H263.815zM433.931 760.065C433.931 764.694 434.592 766.017 437.899 766.678C467 767.3389999999999 522.544 768 578.753 768C715.6400000000001 768 744.7370000000001 707.823 744.7370000000001 654.259C744.7370000000001 608.63 718.9470000000001 576.227 681.9150000000001 561.679V560.356C716.3 550.437 761.269 522 761.269 460.5C761.269 378.5 690.511 336.178 570.157 336.178C519.238 335.5170000000001 465.674 336.839 438.557 337.501C435.25 338.1619999999999 433.928 340.146 433.928 343.452V760.065zM525.85 594.082H583.3820000000001C636.282 594.082 652.817 615.904 652.817 644.3399999999999C652.817 680.05 629.011 694.598 578.091 694.598C552.302 694.598 531.802 693.9369999999999 525.85 693.275V594.082zM525.85 410.906C533.125 410.906 548.3340000000001 409.583 575.45 409.583C630.998 409.583 664.062 424.131 664.062 465.131C664.062 499.518 642.9010000000001 519.357 584.047 519.357H525.851V410.906zM1050.412 768C1091.678 768 1123.912 762.2 1141.325 754.46C1144.549 752.526 1145.194 751.236 1145.194 746.723V678.376C1145.194 672.576 1141.97 672.576 1139.394 673.863C1118.117 682.89 1089.747 689.982 1053.64 689.982C971.1090000000002 689.982 913.723 640.334 913.723 553.29C913.723 447.5470000000001 989.807 417.89 1052.9950000000001 417.89C1089.102 417.89 1121.3410000000001 424.982 1143.2630000000001 433.3640000000001C1146.487 434.654 1148.421 433.3640000000001 1148.421 429.496V363.08C1148.421 358.5659999999999 1147.776 355.988 1143.2630000000001 354.0529999999999C1120.0470000000003 343.0919999999999 1082.006 335.9999999999999 1036.871 335.9999999999999C921.4560000000002 335.9999999999999 819.5820000000001 399.8319999999999 819.5820000000001 550.7099999999999C819.5820000000001 673.8629999999999 909.8510000000002 767.9999999999999 1050.412 767.9999999999999z" />
    <glyph glyph-name="Actions"
      unicode="&#xEA03;"
      horiz-adv-x="1152" d=" M817.137 498.2809999999999L714.492 395.52L995.592 114.4200000000001A43.654 43.654 0 0 1 1057.315 114.4200000000001L1098.295 155.3890000000001A43.647 43.647 0 0 1 1098.295 217.1230000000002zM213.07 556.1L259.547 602.577C276.586 619.616 258.847 643.777 258.847 643.777L306.566 689.797A43.655 43.655 0 0 1 367.89 690.1969999999999L393.847 716.1659999999999L443.813 666.1999999999999L546.513 768.8999999999999L496.544 818.857L513.466 835.779A43.647 43.647 0 0 1 513.466 897.5129999999999L492.984 918S553.2769999999999 985.687 565.9449999999999 998.355C619.218 1051.628 737.1679999999999 1017.281 742.617 1044.562S480.738 1172.941 334.383 1026.6L182.083 874.2909999999999A43.647 43.647 0 0 1 182.2 812.451L192.5 802.551L147.242 755.395S125.949 777.086 105.488 756.614L59.016 710.145A21.82 21.82 0 0 1 59.016 679.29L182.2 556.1A21.813 21.813 0 0 1 213.07 556.1zM353.311 204.366C302.971 186.243 240.029 163.495 196.543 147.928L252.672 304.717zM935.721 1048.066L219.569 331.914A36.237 36.237 0 0 1 211.109 318.698L143.157 131.059C134.585 107.3899999999999 154.718 87.1179999999999 178.419 95.5519999999999L367.025 162.6619999999999A36.218 36.218 0 0 1 380.446 171.2119999999999L1096.4569999999999 887.9949999999999C1109.1409999999998 900.7029999999999 1110.395 920.003 1099.2569999999998 931.0839999999998L978.745 1050.98C967.633 1062.035 948.386 1060.731 935.72 1048.065z" />
    <glyph glyph-name="Add-Circle"
      unicode="&#xEA04;"
      horiz-adv-x="1152" d=" M576 1053.6C312.234 1053.6 98.4 839.7660000000001 98.4 576S312.2340000000001 98.4000000000001 576 98.4000000000001S1053.6 312.2340000000002 1053.6 576.0000000000001S839.766 1053.6 576 1053.6zM864 552A24 24 0 0 0 840 528H624V312A24 24 0 0 0 600 288H552A24 24 0 0 0 528 312V528H312A24 24 0 0 0 288 552V600A24 24 0 0 0 312 624H528V840A24 24 0 0 0 552 864H600A24 24 0 0 0 624 840V624H840A24 24 0 0 0 864 600V552z" />
    <glyph glyph-name="Add"
      unicode="&#xEA05;"
      horiz-adv-x="1152" d=" M888 672H624V936A24 24 0 0 1 600 960H504A24 24 0 0 1 480 936V672H216A24 24 0 0 1 192 648V552A24 24 0 0 1 216 528H480V264A24 24 0 0 1 504 240H600A24 24 0 0 1 624 264V528H888A24 24 0 0 1 912 552V648A24 24 0 0 1 888 672z" />
    <glyph glyph-name="Adjust"
      unicode="&#xEA06;"
      horiz-adv-x="1152" d=" M222.867 896.405C145.875 811.629 98.4 699.548 98.4 576C98.4 525.7 106.8 477.5070000000001 121.252 432H376.932zM770.461 1011.475C710.977 1038.123 645.4 1053.6 576 1053.6C473.449 1053.6 378.8 1020.843 300.973 965.832L379.8640000000001 728.044zM1051.863 541.544C1052.7540000000001 552.944 1053.597 564.366 1053.597 576C1053.597 732.812 977.554 871.38 860.835 958.447L666.82 817.6610000000001zM840.164 575.227L690.75 113.0830000000001A477.481 477.481 0 0 1 1032.469 437.3120000000002zM585.258 98.8679999999999L661.922 336H163.57C246.363 194.062 399.832 98.4000000000001 576 98.4000000000001C579.129 98.4000000000001 582.188 98.654 585.258 98.8680000000002z" />
    <glyph glyph-name="Adobe"
      unicode="&#xEA07;"
      horiz-adv-x="1152" d=" M707.52 1056H1080V130.56L707.52 1056zM444.48 1056H72V101.76L444.48 1056zM576.48 725.28L810.24 144H658.56L586.56 336H417.12L576.48 725.28z" />
    <glyph glyph-name="AdobeAnalytics"
      unicode="&#xEA08;"
      horiz-adv-x="1152" d=" M442.568 576.96H386.408L384.488 262.0800000000001C399.848 254.4000000000001 424.808 248.1600000000001 441.128 242.4000000000001zM530.8879999999999 596.64V215.04C538.088 214.56 554.8879999999999 221.28 562.088 221.28C570.728 221.28 578.8879999999999 221.76 587.528 222.24V596.64H530.888zM816.0079999999999 341.76C833.7679999999999 360.48 858.728 375.36 872.6479999999999 397.44V651.8399999999999H816.0079999999999V341.76zM292.328 557.76L408.008 691.2L507.848 636.96S612.0079999999999 696.96 613.448 699.36C614.408 702.24 746.8879999999999 807.36 746.8879999999999 807.36L860.1679999999999 712.8L918.248 754.56L908.1679999999998 792.96L864.0079999999999 780.96L747.3679999999999 879.36L507.848 702.72L408.968 761.28L276.968 607.6800000000001L194.408 601.9200000000001V548.6400000000001zM296.648 500.64H240.008V424.32C253.928 403.2 278.888 390.2399999999999 296.168 372.4799999999999zM730.568 692.64H674.408L672.008 241.4400000000001C688.3280000000001 247.2000000000001 713.288 253.9200000000001 728.648 262.0800000000001z M576.012 1128C272.168 1128 26.4 879.36 26.4 572.64S272.166 17.2829999999999 576.009 17.2829999999999S1125.6 265.9220000000001 1125.6 572.64S879.855 1128 576.012 1128zM576.012 78.721C306.7389999999999 78.721 87.3639999999999 300.481 87.3639999999999 572.64S306.738 1066.562 576.012 1066.562S1064.66 844.8 1064.66 572.64S845.2850000000001 78.721 576.0120000000001 78.721z" />
    <glyph glyph-name="AdobeAudienceManager"
      unicode="&#xEA09;"
      horiz-adv-x="1152" d=" M576.012 1128C272.168 1128 26.4 879.36 26.4 572.64S272.166 17.2829999999999 576.009 17.2829999999999S1125.6 265.9220000000001 1125.6 572.64S879.855 1128 576.012 1128zM576.012 78.721C306.7389999999999 78.721 87.3639999999999 300.481 87.3639999999999 572.64S306.738 1066.562 576.012 1066.562S1064.66 844.8 1064.66 572.64S845.2850000000001 78.721 576.0120000000001 78.721z M614.888 569.76L874.568 643.2C898.088 543.84 882.728 460.3199999999999 806.8879999999999 382.08zM777.128 360.9600000000001C660.488 257.28 485.768 265.4400000000001 375.3680000000001 375.36C265.4480000000001 485.28 261.1280000000001 655.6800000000001 364.3280000000001 772.3199999999999zM576.008 616.32L379.6880000000001 802.08C457.448 877.44 547.6880000000001 899.52 646.568 876.96zM600.008 596.6400000000001L673.4480000000001 859.2C700.8080000000001 851.0400000000001 747.368 839.0400000000001 792.488 793.9200000000001S856.3280000000001 698.8800000000001 864.488 671.5200000000001zM821.288 822.7200000000001C749.288 894.7200000000001 663.368 911.5200000000002 660.008 912.0000000000002L653.768 904.3200000000002C549.128 928.3200000000002 436.3280000000001 899.5200000000001 353.7680000000001 819.3600000000001L343.2080000000001 828.9600000000002C207.368 693.6000000000001 205.448 473.2800000000002 339.3680000000001 339.3600000000002C473.768 205.4400000000002 693.128 207.3600000000001 828.9680000000001 343.2000000000002L819.368 352.8000000000002C900.008 435.8400000000002 927.368 552.4800000000002 902.408 658.0800000000002L912.008 682.0800000000002C911.048 685.4400000000002 892.808 751.2000000000002 821.288 822.7200000000001z" />
    <glyph glyph-name="AdobeCampaign"
      unicode="&#xEA0A;"
      horiz-adv-x="1152" d=" M614.4 491.52C599.04 491.52 543.8399999999999 500.16 531.36 506.88L530.88 420.48C543.84 416.16 585.6 412.8000000000001 615.84 413.76C722.4000000000001 416.16 747.84 502.5599999999999 747.84 579.36L747.36 863.04C732.96 868.8 690.24 879.84 675.36 883.6800000000001L676.8000000000001 584.64C676.8000000000001 531.84 661.44 491.52 614.4000000000001 491.52zM538.56 667.2C577.92 667.2 611.52 654.72 624 647.52L625.92 728.16C612.4799999999999 732.48 570.7199999999999 744 534.24 744C441.6 744 390.24 660 390.24 589.4399999999999L389.76 296.6399999999999C404.16 291.3599999999999 462.72 285.5999999999999 477.6 282.2399999999999L474.72 588.9599999999999C474.72 635.9999999999999 491.52 667.1999999999999 538.5600000000001 667.1999999999999zM817.92 586.56C819.8399999999999 441.5999999999999 758.88 350.4 615.3599999999999 350.4C600.9599999999999 350.4 544.8 355.68 530.8799999999999 357.6L530.3999999999999 317.76C543.8399999999999 315.36 578.3999999999999 308.64 614.3999999999999 308.64C768.9599999999998 308.64 865.9199999999998 415.2000000000001 862.5599999999998 580.3199999999999L861.5999999999998 795.3599999999999C855.3599999999998 801.5999999999999 823.6799999999998 807.3599999999999 816.9599999999998 813.1199999999999zM289.92 386.4C296.16 380.64 324 369.12 330.72 363.36V592.32C330.72 735.36 391.2 793.9200000000001 526.0799999999999 793.9200000000001C557.7599999999999 793.9200000000001 609.1199999999999 783.8400000000001 622.56 781.44V821.2800000000001C609.1199999999999 823.2 572.64 836.6400000000001 530.4 836.6400000000001C377.76 836.6400000000001 288 759.3600000000001 290.4 598.0800000000002z M576 1128C272.156 1128 26.391 879.36 26.391 572.64S272.156 17.279 576 17.279S1125.609 265.919 1125.609 572.639S879.844 1128 576 1128zM576 78.721C306.727 78.721 87.352 300.481 87.352 572.64S306.727 1066.562 576 1066.562S1064.648 844.8 1064.648 572.64S845.273 78.721 576 78.721z" />
    <glyph glyph-name="AdobeConnect"
      unicode="&#xEA0B;"
      horiz-adv-x="1152" d=" M360.02 791.995V1031.995H120.02V791.995H360.02zM1032.02 791.995V1031.995H792.02V791.995H1032.02zM792.02 359.995V119.9949999999999H1032.02V359.9949999999999H792.02z M1104 748.312V1080A23.986 23.986 0 0 1 1080 1104H769.922A23.939 23.939 0 0 1 748.922 1091.578L432 516.155V1080A23.986 23.986 0 0 1 408 1104H72A23.986 23.986 0 0 1 48 1080V747.844A23.886 23.886 0 0 1 54.844 731.063L347.227 432H48V48H432V343.91L761.3 53.9759999999999A23.94 23.94 0 0 1 777.141 47.9999999999998H1080A23.986 23.986 0 0 1 1104 71.9999999999998V408A23.986 23.986 0 0 1 1080 432H523.148L1091.062 727.008A23.973 23.973 0 0 1 1104 748.312zM96 1056H384V463.0309999999999L96 757.617V1056zM1056 384V96H786.188L459.094 384H1056zM1056 762.8910000000001L449.016 447.591L784.125 1056H1056V762.8910000000001z" />
    <glyph glyph-name="AdobeDocumentCloud"
      unicode="&#xEA0C;"
      horiz-adv-x="1152" d=" M1108.7 424.534C1076.031 459.182 1008.6 477.496 913.719 477.496C862.234 477.496 804.0730000000001 472.356 740.744 462.196C704.412 495.9580000000001 669.291 536.071 636.268 581.471A1051.13 1051.13 0 0 0 571.284 681.9300000000001C607.793 793.9680000000001 626.314 884.53 626.314 951.082C626.309 1025.015 597.952 1104 518.317 1104C493.889 1104 468.781 1089.29 455.785 1067.373C419.158 1005.073 436.733 867.873 498.497 733.03C475.428 665.03 450.822 600.43 421.197 529.9549999999999A1778.646 1778.646 0 0 0 333.055 349.772C150.036 277.64 37.938 198.183 25.325 131.6C20.658 107.4080000000001 28.545 84.3679999999999 47.538 66.7339999999999C53.652 61.0919999999999 76.722 42.749 117.366 42.749C236.877 42.749 361.883 231.557 426.69 346.0170000000001A2137.928 2137.928 0 0 0 573.0219999999999 389.999C628.554 404.443 681.1909999999999 415.963 729.545 424.2340000000001C855.052 313.2630000000001 966.264 296.6 1021.589 296.6C1089.789 296.6 1114.605 324.1890000000001 1123.4070000000002 347.347A71.41 71.41 0 0 1 1128.015 373.459C1128.015 392.248 1120.63 411.8 1108.7 424.534zM775.6 431.8590000000001C868.557 446.7460000000001 952.622 444.9440000000001 993.326 436.437C1015.184 431.918 1050.66 418.182 1042.655 377.2430000000001C1038.047 353.2280000000001 1013.383 337.6910000000001 979.855 337.6910000000001A119.33 119.33 0 0 0 952.473 340.9400000000001C891.4140000000001 355.326 833.431 385.1300000000001 775.595 431.8590000000001zM556.215 637.445C572.904 609.856 589.682 584.572 607.2570000000001 560.528A912.369 912.369 0 0 1 694.5720000000001 457.263H694.2720000000002L697.0190000000001 454.5160000000001C653.8050000000001 446.3630000000001 609.1430000000001 436.2020000000001 564.0380000000001 424.2690000000001C527.6470000000002 414.8760000000001 490.6650000000001 404.1540000000001 451.5270000000002 391.6290000000002C471.7020000000002 430.0290000000001 490.1040000000002 468.9600000000002 505.1980000000001 505.1440000000001C523.9590000000002 549.7750000000001 541.0910000000001 594.2000000000002 556.2150000000001 637.4450000000002zM486.715 1049.414C493.804 1061.4660000000001 505.265 1068.643 517.376 1068.643C550.2819999999999 1068.643 557.312 1031.5430000000001 557.4 1000.41C557.577 950.668 542.247 872.8100000000001 515.131 784.604C466.153 907.1 463.2 1009.448 486.712 1049.413zM303.28 299C221.932 166.285 142.858 84.76 94.741 84.76C88.272 84.76 79.027 86.1479999999999 71.908 92.8530000000001L71.878 92.883C61.865 102.1279999999999 58.113 112.644 60.388 124.991C69.485 172.573 161.851 238.473 303.28 299z" />
    <glyph glyph-name="AdobeExperienceManager"
      unicode="&#xEA0D;"
      horiz-adv-x="1152" d=" M576 915.36A101.178 101.178 0 0 0 666.72 859.2A121.816 121.816 0 0 1 641.76 839.52C624 822.24 600.96 816.48 576 816.48S528 822.24 510.24 839.52A136.271 136.271 0 0 1 485.28 859.2A101.178 101.178 0 0 0 576 915.36zM676.8 826.08C677.28 822.24 674.4 816.48 674.4 812.6400000000001C672.9599999999999 743.0400000000001 720.48 694.08 794.4 695.0400000000001C798.24 695.0400000000001 803.04 696.96 806.4 696.96A76.377 76.377 0 0 0 796.8 685.44C772.8 661.9200000000001 755.04 631.6800000000001 755.04 598.0800000000002S772.8 531.3600000000001 796.8 507.8400000000001C800.16 504.4800000000001 804 501.1200000000001 806.88 496.8000000000002C803.04 496.3200000000002 800.16 498.7200000000001 796.8 498.7200000000001C727.68 500.6400000000001 672.48 449.7600000000001 673.92 379.2000000000002C673.92 375.3600000000002 677.28 371.0400000000002 676.8 367.2000000000002A108.141 108.141 0 0 0 665.28 377.2800000000002C641.28 400.8000000000002 611.52 419.0400000000002 577.4399999999999 419.0400000000002C543.8399999999999 419.0400000000002 510.7199999999999 400.8000000000002 486.7199999999999 377.2800000000002C482.8799999999999 373.4400000000002 480.9599999999999 368.6400000000002 477.1199999999999 365.7600000000002C476.6399999999999 369.6000000000003 477.1199999999999 372.9600000000003 477.1199999999999 376.8000000000002C479.5199999999999 446.8800000000002 425.2799999999999 505.9200000000002 357.1199999999999 499.2000000000002C353.2799999999999 498.7200000000001 348.9599999999999 496.3200000000002 345.5999999999999 496.3200000000002C348.4799999999999 500.6400000000002 351.8399999999999 504.0000000000001 355.2 507.8400000000001C379.2 531.3600000000001 396.9599999999999 563.0400000000002 396.9599999999999 596.6400000000001S379.2 661.9200000000001 355.2 685.44A76.377 76.377 0 0 0 345.5999999999999 696.96C348.9599999999999 696.96 358.08 694.5600000000002 361.9199999999999 694.5600000000002C427.2 694.5600000000002 476.6399999999999 744.96 476.6399999999999 809.7600000000001A151.807 151.807 0 0 0 478.0799999999999 825.1200000000001C481.9199999999998 822.2400000000001 482.8799999999999 819.8400000000001 486.7199999999999 816.0000000000001C510.7199999999999 792.4800000000001 539.5199999999999 777.1200000000001 573.5999999999999 777.1200000000001C607.1999999999999 777.1200000000001 641.28 792.4800000000001 665.28 816.0000000000001C669.12 819.8400000000001 672.48 823.2 676.8 826.0800000000002zM840 686.88C873.6 670.56 893.76 637.92 893.76 598.56C893.76 558.7199999999999 873.6 522.7199999999999 840 506.4A136.271 136.271 0 0 1 820.32 531.36C803.0400000000001 548.64 798.72 572.16 798.72 596.64S803.0400000000001 644.64 820.32 661.92A136.271 136.271 0 0 1 840 686.88zM666.72 334.08C650.4 300.9599999999999 615.84 279.8399999999999 576 279.8399999999999S501.6 300.9599999999999 485.28 334.08A136.271 136.271 0 0 1 510.24 353.7599999999999C528 371.0399999999999 551.04 378.7199999999999 576 378.7199999999999S624 371.04 641.76 353.7599999999999A136.271 136.271 0 0 1 666.72 334.08zM312 506.4C278.4 522.72 260.16 556.8 260.16 596.64S278.4 670.56 312 686.88A136.271 136.271 0 0 1 331.68 661.9200000000001C348.9600000000001 644.64 354.7200000000001 621.12 354.7200000000001 596.64S348.9600000000001 548.64 331.68 531.36A136.271 136.271 0 0 1 312 506.4zM576 260.16C622.56 260.16 662.4 288 682.08 326.4A129 129 0 0 1 731.0400000000001 316.8C764.6400000000001 316.8 805.44 321.12 828.96 344.64C852.96 368.64 857.2800000000001 408.9600000000001 857.2800000000001 442.56A130.837 130.837 0 0 1 847.6800000000001 491.52C886.5600000000001 510.72 913.44 550.56 913.44 596.64S886.5600000000001 682.56 847.6800000000001 701.76A130.837 130.837 0 0 1 857.2800000000001 750.72C857.2800000000001 784.3199999999999 852.0000000000001 823.2 828.4800000000001 847.2C804.4800000000001 870.72 764.6400000000001 876.48 731.0400000000002 876.48A131.448 131.448 0 0 1 681.6000000000001 866.88A117.986 117.986 0 0 1 576 932.16C529.44 932.16 489.6 905.28 469.92 866.88A129 129 0 0 1 420.9600000000001 876.48C387.36 876.48 350.8800000000001 873.12 326.8800000000001 849.6C302.8800000000001 825.6 294.7200000000001 784.32 294.7200000000001 750.72A130.837 130.837 0 0 1 304.3200000000001 701.76C265.4400000000001 682.5600000000001 238.5600000000001 642.72 238.5600000000001 596.6400000000001S265.4400000000001 510.7200000000001 304.3200000000001 491.5200000000001A130.837 130.837 0 0 1 294.7200000000001 442.5600000000001C294.7200000000001 408.9600000000001 299.04 369.6 323.04 345.6C346.56 322.0800000000001 387.36 316.8000000000001 420.9600000000001 316.8000000000001A129 129 0 0 1 469.92 326.4000000000001C489.6 288 529.44 260.16 576 260.16zM692.16 358.56A89.873 89.873 0 0 1 694.0799999999999 378.7199999999999C694.0799999999999 433.92 739.68 479.04 795.3599999999999 479.04A143.222 143.222 0 0 1 815.5199999999999 480.9599999999999A88.113 88.113 0 0 0 824.1599999999999 442.56C824.1599999999999 417.5999999999999 810.7199999999998 397.44 793.4399999999998 379.68C775.6799999999998 362.4 755.9999999999998 349.92 731.0399999999998 349.92A90.2 90.2 0 0 0 692.1599999999999 358.56zM815.52 712.3199999999999A143.222 143.222 0 0 1 795.36 714.24C739.6800000000001 714.24 694.08 759.3599999999999 694.08 814.56A89.873 89.873 0 0 1 692.1600000000001 834.72A90.2 90.2 0 0 0 731.0400000000001 843.3599999999999C756.0000000000001 843.3599999999999 774.72 831.3599999999999 792.48 813.5999999999999C809.76 796.3199999999999 824.16 775.68 824.16 750.72A88.113 88.113 0 0 0 815.52 712.3199999999999zM459.84 834.7199999999999A89.873 89.873 0 0 1 457.92 814.56C457.92 759.3599999999999 412.32 714.2399999999999 356.64 714.2399999999999A143.222 143.222 0 0 1 336.48 712.3199999999999A88.113 88.113 0 0 0 327.84 750.7199999999998C327.84 775.6799999999998 342.72 796.7999999999998 360.48 814.5599999999998C377.76 831.8399999999998 396 843.3599999999999 420.96 843.3599999999999A90.2 90.2 0 0 0 459.84 834.7199999999998zM336.48 480.96A143.222 143.222 0 0 1 356.6400000000001 479.0400000000001C412.3200000000001 479.0400000000001 457.9200000000001 433.9200000000001 457.9200000000001 378.7200000000001A89.873 89.873 0 0 1 459.8400000000001 358.5600000000001A90.2 90.2 0 0 0 420.9600000000001 349.9200000000001C396.0000000000001 349.9200000000001 376.3200000000001 362.4000000000001 358.5600000000001 379.6800000000001C341.2800000000001 397.4400000000001 327.8400000000002 417.6 327.8400000000002 442.5600000000001A88.113 88.113 0 0 0 336.4800000000002 480.96z M576 1128C272.156 1128 26.391 879.36 26.391 572.64S272.156 17.279 576 17.279S1125.609 265.9220000000001 1125.609 572.639S879.844 1128 576 1128zM576 78.721C306.727 78.721 87.352 300.481 87.352 572.64S306.727 1066.562 576 1066.562S1064.648 844.8 1064.648 572.64S845.273 78.721 576 78.721z" />
    <glyph glyph-name="AdobeMarketingCloud"
      unicode="&#xEA0E;"
      horiz-adv-x="1152" d=" M976.9 581.107C976.9 797.5939999999999 797.227 973.989 576 973.989V963.789C360.774 963.789 185.656 792.115 185.656 581.104S360.774 198.439 576 198.439A391.728 391.728 0 0 1 912.617 388.2919999999999L921.862 382.8449999999999A385.4 385.4 0 0 1 976.9 581.107zM576 234.877C380.851 234.877 222.093 390.19 222.093 581.102S380.851 927.349 576 927.349V898.183C754.947 898.183 900.72 756.047 900.72 581.108A308.29 308.29 0 0 0 856.261 421.478L881.255 406.757C819.778 304.132 706.137 234.877 576 234.877z M576 800.86V811.077C446.61 811.077 341.286 707.9359999999999 341.286 581.107A226.536 226.536 0 0 1 373.735 464.846L383.411 470.546A224.246 224.246 0 0 1 576 361.343C699.5889999999999 361.343 800.154 459.915 800.154 581.101S699.589 800.86 576 800.86zM576 397.781A187.935 187.935 0 0 0 414.66 488.954L439.337 503.4789999999999A151.2 151.2 0 0 0 417.837 581.107C417.837 666.3889999999999 488.899 735.635 576.005 735.635V764.422C679.517 764.422 763.722 682.188 763.722 581.101S679.512 397.781 576 397.781z M1125.6 581.1C1125.6 877.926 879.0569999999999 1119.393 575.9999999999999 1119.393S26.4 877.927 26.4 581.1C26.4 482.149 54.272 389.6610000000001 102.04 309.9090000000001L92.727 304.4880000000001C192.952 136.84 378.109 32.606 576 32.606S959.048 136.84 1059.274 304.4890000000001L1049.9609999999998 309.9100000000001C1097.7279999999998 389.6630000000001 1125.5999999999997 482.1500000000001 1125.5999999999997 581.1000000000001zM62.838 581.1C62.838 857.828 293.065 1082.9569999999999 576 1082.9569999999999S1089.162 857.828 1089.162 581.0999999999999C1089.162 488.8419999999999 1063.125 402.6089999999999 1018.53 328.2489999999999L993.672 342.7539999999999C907.292 198.068 746.926 108.413 576 108.413S244.7080000000001 198.068 158.328 342.756L133.47 328.251C88.874 402.61 62.838 488.843 62.838 581.1z" />
    <glyph glyph-name="AdobeMediaOptimizer"
      unicode="&#xEA0F;"
      horiz-adv-x="1152" d=" M835.688 865.4390000000001L821.768 876L615.368 649.92L616.8080000000001 877.92L588.0080000000002 883.68C521.7680000000001 883.1999999999999 443.0480000000001 849.5999999999999 396.9680000000002 806.8799999999999L314.4080000000002 885.5999999999999L302.8880000000002 873.1199999999999C229.4480000000002 808.8 195.8480000000002 703.1999999999999 194.8880000000002 604.3199999999999C194.4080000000002 505.92 248.6480000000002 417.1199999999999 315.3680000000002 347.04L324.9680000000003 337.44L578.4080000000002 571.68L580.3280000000002 364.32L600.9680000000002 363.3599999999999C667.2080000000002 363.3599999999999 684.9680000000002 376.8 731.0480000000002 415.2L816.0080000000003 299.04L856.8080000000002 339.8399999999999C996.9680000000002 474.2389999999999 992.1680000000002 727.6789999999999 835.6880000000002 865.439zM580.328 844.319L576.968 636.9590000000001L376.328 642.239C373.448 775.6790000000001 472.808 834.719 580.328 844.3190000000001zM324.008 840L389.768 792C345.128 744.48 340.808 700.3199999999999 340.328 629.28V603.8399999999999L563.528 602.8799999999999L331.688 385.4399999999999C203.048 524.6389999999999 211.688 738.2389999999998 324.008 839.9999999999998zM619.688 403.6800000000001L621.608 601.44L777.1279999999999 600C769.9279999999999 487.2 729.1279999999999 413.279 619.6879999999999 403.679zM823.208 356.1600000000001L758.888 432C804.008 480.48 822.7280000000001 552.96 822.248 625.92L817.928 642.24L642.248 638.88L825.128 834.24C950.888 695.519 963.368 491.519 823.2080000000001 356.159z M576.012 1131.359C272.168 1131.359 26.4 882.719 26.4 576S272.166 20.643 576.009 20.643S1125.6 269.281 1125.6 576S879.855 1131.359 576.012 1131.359zM576.012 82.0799999999999C306.738 82.0799999999999 87.3629999999999 303.839 87.3629999999999 576S306.738 1069.92 576.012 1069.92S1064.66 848.1610000000001 1064.66 576S845.2850000000001 82.0799999999999 576.0120000000001 82.0799999999999z" />
    <glyph glyph-name="AdobePrimetime"
      unicode="&#xEA10;"
      horiz-adv-x="1152" d=" M576.012 1131.359C272.168 1131.359 26.4 882.719 26.4 576S272.166 20.643 576.009 20.643S1125.6 269.281 1125.6 576S879.855 1131.359 576.012 1131.359zM576.012 82.0799999999999C306.738 82.0799999999999 87.3629999999999 303.839 87.3629999999999 576S306.738 1069.92 576.012 1069.92S1064.66 848.1610000000001 1064.66 576S845.2850000000001 82.0799999999999 576.0120000000001 82.0799999999999z M484.328 388.8A5.689 5.689 0 0 0 486.728 393.12L707.048 502.08L713.768 504C717.128 505.4400000000001 719.048 503.04 719.048 500.16V276C719.048 273.12 716.648 270.7200000000001 714.248 271.68L708.9680000000001 273.12L486.728 384C484.328 385.439 484.328 387.3590000000001 484.328 388.8zM907.208 787.68L648.488 945.6C637.4480000000001 951.36 627.368 951.36 616.3280000000001 944.64A35.47 35.47 0 0 1 599.0480000000001 913.92L598.5680000000001 855.8399999999999L494.4080000000001 906.24C488.6480000000001 909.6 479.5280000000001 910.56 473.2880000000001 911.04C472.3280000000001 911.04 471.3680000000001 910.56 470.4080000000001 910.56H468.9680000000001C468.0080000000002 910.56 469.9280000000001 911.04 468.9680000000001 911.04C445.9280000000001 908.64 432.0080000000002 891.8399999999999 432.0080000000002 868.3199999999999L432.9680000000002 650.88C432.9680000000002 625.92 482.4080000000001 605.76 507.3680000000002 605.76C516.4880000000002 605.76 519.8480000000002 608.64 525.1280000000002 611.52L733.4480000000001 725.28C748.3280000000001 733.44 757.4480000000001 739.68 757.4480000000001 756C756.9680000000001 772.8 750.7280000000001 787.6800000000001 735.8480000000001 795.84L616.3280000000001 851.52L614.888 913.92C614.888 920.6400000000002 619.2080000000001 926.8800000000002 624.9680000000001 930.24C630.248 933.6 634.5680000000001 933.6 640.3280000000001 930.72L899.0480000000001 772.8000000000001A18.642 18.642 0 0 0 899.0480000000001 739.6800000000001L601.9280000000001 577.44L304.8080000000001 420.48A35.549 35.549 0 0 1 304.3280000000001 357.6L558.7280000000001 180.96A32.474 32.474 0 0 1 576.008 176.1600000000001C582.248 176.1600000000001 591.368 178.0800000000001 596.648 181.4400000000001C607.688 187.6800000000001 613.928 199.2000000000001 613.928 212.1600000000001L616.328 276.0000000000001L707.528 241.9200000000001A35.538 35.538 0 0 1 725.288 237.1200000000001C746.888 237.1200000000001 765.6080000000001 254.4000000000001 765.6080000000001 276.0000000000001V500.159C765.6080000000001 519.8389999999999 750.7280000000001 535.199 731.528 538.079L723.368 539.039H721.4480000000001C720.008 539.039 718.5680000000001 538.079 717.128 538.079C713.288 537.1189999999999 708.9680000000001 537.1189999999999 705.128 534.7189999999999L470.888 422.8789999999999C457.9280000000001 416.1589999999999 450.2480000000001 403.199 449.7680000000001 388.7989999999999C449.7680000000001 374.3989999999999 460.808 361.4389999999999 473.768 354.7189999999998L600.488 285.1189999999998L597.6080000000001 212.1589999999998A18.724 18.724 0 0 0 588.488 195.8389999999997C582.7280000000001 192.4789999999997 572.648 192.4789999999997 566.888 195.8389999999997L312.4880000000001 372.4789999999997A19.171 19.171 0 0 0 302.8880000000001 388.7989999999998A18.838 18.838 0 0 0 312.968 405.5989999999997L610.088 562.5589999999997L907.688 724.7989999999998A35.591 35.591 0 0 1 926.408 755.9989999999998C925.928 769.4389999999997 919.208 781.4389999999997 907.208 787.6789999999997z" />
    <glyph glyph-name="AdobeSendNow"
      unicode="&#xEA11;"
      horiz-adv-x="1152" d=" M807.36 979.2L480 672H672V192C672 150.24 635.52 144 593.28 144H288C246.24 144 240 150.24 240 192V933.12C240 974.88 262.56 1008 304.32 1008H597.12L663.84 1104H283.68C206.88 1104 144 1042.08 144 965.76V186.24C144 109.9200000000001 206.88 48 283.68 48H815.52C892.3199999999999 48 911.04 130.56 912 181.92V672H1104z" />
    <glyph glyph-name="AdobeSocial"
      unicode="&#xEA12;"
      horiz-adv-x="1152" d=" M365.288 436.8V439.2C365.288 444.4799999999999 365.7680000000001 444.4799999999999 364.3280000000001 449.28L649.9280000000001 593.28C657.6080000000001 582.24 667.6880000000001 580.3199999999999 682.0880000000001 578.88L688.8080000000001 370.08C673.9280000000001 366.7199999999999 667.2080000000001 359.04 660.488 346.08zM541.928 865.4399999999999C550.568 852.48 565.448 844.3199999999999 582.728 844.3199999999999C586.088 844.3199999999999 585.1279999999999 843.3599999999999 588.4879999999999 843.8399999999999L655.208 677.7599999999999C647.528 673.4399999999998 646.088 671.5199999999999 641.7679999999999 663.3599999999999L353.7679999999999 757.4399999999998C354.248 760.3199999999999 352.808 758.3999999999999 352.808 761.2799999999999A46.4 46.4 0 0 1 350.8879999999999 775.1999999999998zM773.768 811.68C773.288 808.3199999999999 777.6080000000001 807.8399999999999 777.6080000000001 804.48A48.537 48.537 0 0 1 790.5680000000001 771.3599999999999L700.3280000000001 677.76C693.128 682.0799999999999 695.0480000000001 678.24 686.4080000000001 678.24C682.5680000000001 678.24 681.6080000000002 678.72 678.2480000000002 677.76L607.6880000000001 853.44C614.8880000000001 857.76 619.6880000000001 858.72 624.0080000000002 866.4zM875.048 552C867.368 549.12 846.728 552 839.048 549.12L733.928 614.88C735.848 620.16 732.008 627.84 732.008 633.6C732.008 646.56 718.0880000000001 651.36 710.408 660L802.568 761.76C809.768 757.44 816.968 756.96 826.088 756.96A10.492 10.492 0 0 1 828.4879999999999 755.52zM328.808 492.96L319.688 715.6800000000001C334.568 718.5600000000001 339.368 721.44 346.088 734.4000000000001L629.768 635.5200000000001C629.288 632.6400000000001 630.7280000000001 630.7200000000001 630.7280000000001 627.8400000000001C630.7280000000001 622.5600000000002 633.6080000000001 626.8800000000001 635.0480000000001 622.0800000000002L351.8480000000002 477.1200000000001C344.1680000000001 488.1590000000001 342.7280000000001 491.0390000000001 328.8080000000001 492.9590000000002zM717.608 371.0400000000001L712.328 580.8000000000001C722.408 583.2 716.168 588.48 722.8879999999999 595.6800000000001L835.208 528A49.864 49.864 0 0 1 831.848 511.2C831.848 499.6800000000001 836.168 489.12 842.4079999999999 480.48L731.0479999999999 360.48C724.8079999999999 365.279 726.2479999999999 370.559 717.6079999999998 371.039zM899.5279999999999 560.6400000000001H898.0879999999999L852.4879999999998 764.6400000000001C871.6879999999999 771.8400000000001 876.4879999999998 782.8800000000001 876.4879999999998 804.4800000000001A49.37 49.37 0 0 1 827.0479999999998 853.9200000000001C808.3279999999997 853.9200000000001 802.0879999999997 845.7600000000001 793.4479999999998 830.4000000000001C793.4479999999998 830.4000000000001 632.1679999999998 890.4000000000001 632.1679999999998 893.7600000000002A49.44 49.44 0 1 1 533.2879999999998 893.7600000000002C533.2879999999998 888.9600000000002 530.8879999999998 889.9200000000002 532.3279999999997 885.6000000000001L336.0079999999998 795.8400000000001C326.8879999999998 809.2800000000002 320.6479999999998 810.7200000000001 303.3679999999998 810.7200000000001A49.37 49.37 0 0 1 253.9279999999998 761.2800000000002C253.9279999999998 735.8400000000001 269.2879999999998 715.6800000000001 293.7679999999998 712.8000000000002L303.3679999999998 489.1200000000001C285.6079999999999 484.8000000000001 266.4079999999999 463.2000000000002 266.4079999999999 439.2000000000002A49.37 49.37 0 0 1 315.8479999999999 389.7600000000002C335.5279999999999 389.7600000000002 352.3279999999999 400.8000000000002 360.0079999999998 417.6000000000003L654.7279999999998 326.4000000000002L654.2479999999998 319.6800000000002A49.44 49.44 0 0 1 753.1279999999998 319.6800000000002A47.268 47.268 0 0 1 742.5679999999999 349.9200000000002L853.9279999999999 469.9200000000002A48.349 48.349 0 0 1 881.2879999999999 461.7600000000002A49.37 49.37 0 0 1 930.7279999999998 511.2000000000003C930.7279999999998 538.5590000000003 914.8879999999998 562.0790000000003 899.5279999999998 560.6390000000002z M576.012 1131.359C272.168 1131.359 26.4 882.719 26.4 576S272.166 20.643 576.009 20.643S1125.6 269.281 1125.6 576S879.855 1131.359 576.012 1131.359zM576.012 82.0799999999999C306.738 82.0799999999999 87.3629999999999 303.839 87.3629999999999 576S306.738 1069.92 576.012 1069.92S1064.66 848.1610000000001 1064.66 576S845.2850000000001 82.0799999999999 576.0120000000001 82.0799999999999z" />
    <glyph glyph-name="AdobeTarget"
      unicode="&#xEA13;"
      horiz-adv-x="1152" d=" M576.012 1131.359C272.168 1131.359 26.4 882.719 26.4 576S272.166 20.643 576.009 20.643S1125.6 269.281 1125.6 576S879.855 1131.359 576.012 1131.359zM576.012 82.0799999999999C306.738 82.0799999999999 87.3629999999999 303.839 87.3629999999999 576S306.738 1069.92 576.012 1069.92S1064.66 848.1610000000001 1064.66 576S845.2850000000001 82.0799999999999 576.0120000000001 82.0799999999999z M827.883 627.747C803.438 627.934 787.0830000000001 610.0749999999999 786.5160000000001 586.764C786.1410000000001 569.28 801.3750000000001 547.096 827.316 546.9060000000001C845.5500000000001 546.7180000000001 868.2850000000001 560.066 868.097 585.446C867.914 611.7660000000001 848.18 627.5600000000001 827.883 627.7470000000001z M826.828 711.9580000000001A126.807 126.807 0 0 1 736.8 674.522C687.2769999999999 624.764 687.2769999999999 543.966 736.8 494.2090000000001L739.1669999999999 491.8390000000001L673.9449999999999 426.6A133.111 133.111 0 0 1 596.7649999999999 466.561V691.6700000000001C665.9059999999998 696.97 720.5649999999998 754.128 720.5649999999998 824.643A134 134 0 0 1 452.5569999999998 824.643C452.5569999999998 791.3430000000001 465.1429999999999 761.277 485.2569999999998 737.8430000000001L423.3349999999998 675.713C399.938 695.566 370.078 708 337.008 708A134 134 0 1 1 471 574C471 607.407 458.344 637.58 438.117 661.047L500.555 722.673A132.659 132.659 0 0 1 579 691.4V468.357C578.32 468.3689999999999 577.688 468.557 576.984 468.557A134.374 134.374 0 1 1 686.884 410.927L754.572 479.277A127.433 127.433 0 1 1 826.828 711.9580000000001zM443.93 574.295A106.852 106.852 0 1 0 261.493 650.115A106.852 106.852 0 0 0 443.93 574.295zM540.493 728.722A107.7 107.7 0 0 0 511.22 749.159C469.52 790.8589999999999 469.52 858.864 511.22 900.803A107.436 107.436 0 1 0 540.4920000000001 728.722zM652.6410000000001 259.032A106.852 106.852 0 0 0 470.2 334.8540000000001A110.106 110.106 0 0 0 472.145 354.9600000000001A106.853 106.853 0 1 0 652.641 259.0310000000001zM887.9770000000001 522.8789999999999C871.618 506.5279999999999 850.5240000000001 499.4209999999999 827.3210000000001 499.4209999999999C804.0940000000002 499.4209999999999 781.8290000000002 506.5279999999999 765.4690000000002 522.8789999999999A86.155 86.155 0 0 0 740.1100000000001 584.247A87.119 87.119 0 0 0 765.4690000000002 645.852A86.678 86.678 0 0 0 887.9770000000002 645.852A87.2 87.2 0 0 0 913.3130000000002 584.247A86.23 86.23 0 0 0 887.9770000000002 522.8789999999999z" />
    <glyph glyph-name="Alert"
      unicode="&#xEA14;"
      horiz-adv-x="1152" d=" M1064.877 215.1330000000001L618.059 1027.533C599.822 1060.685 552.179 1060.685 533.942 1027.533L87.123 215.1330000000001C69.527 183.141 92.672 144 129.182 144H1022.819C1059.328 144 1082.473 183.141 1064.877 215.1330000000001zM576 216A72 72 0 1 0 648 288A72 72 0 0 0 576 216zM518.4 456V792A24 24 0 0 0 542.4 816H609.6A24 24 0 0 0 633.6 792V456A24 24 0 0 0 609.6 432H542.4A24 24 0 0 0 518.4 456z" />
    <glyph glyph-name="AlertAdd"
      unicode="&#xEA15;"
      horiz-adv-x="1152" d=" M491.063 368.458C487.336 367.784 483.92 366.223 479.989 366.223A64.373 64.373 0 0 0 479.989 494.968C500.052 494.968 517.2429999999999 485.2439999999999 529.05 470.8679999999999A382.549 382.549 0 0 0 751.594 652.72L517.594 1078.169C501.294 1107.8120000000001 458.6940000000001 1107.8120000000001 442.3890000000001 1078.169L42.908 351.838C27.176 323.238 47.871 288.238 80.508 288.238H482.414A382.486 382.486 0 0 0 491.063 368.458zM428.5 867.5889999999999A21.459 21.459 0 0 0 449.957 889.046H510.039A21.459 21.459 0 0 0 531.496 867.5889999999999V567.1890000000001A21.459 21.459 0 0 0 510.039 545.7320000000001H449.953A21.459 21.459 0 0 0 428.5 567.1850000000001V867.585z M864 573.6C706.267 573.6 578.4 445.7330000000001 578.4 288S706.2669999999999 2.4000000000001 864 2.4000000000001S1149.6 130.2710000000001 1149.6 288.0000000000001S1021.733 573.6 864 573.6zM1056 252A12 12 0 0 0 1044 240H912V108A12 12 0 0 0 900 96H828A12 12 0 0 0 816 108V240H684A12 12 0 0 0 672 252V324A12 12 0 0 0 684 336H816V468A12 12 0 0 0 828 480H900A12 12 0 0 0 912 468V336H1044A12 12 0 0 0 1056 324V252z" />
    <glyph glyph-name="AlertCheck"
      unicode="&#xEA16;"
      horiz-adv-x="1152" d=" M491.063 368.458C487.336 367.784 483.92 366.223 479.989 366.223A64.373 64.373 0 0 0 479.989 494.968C500.052 494.968 517.2429999999999 485.2439999999999 529.05 470.8679999999999A382.549 382.549 0 0 0 751.594 652.72L517.594 1078.169C501.294 1107.8120000000001 458.6940000000001 1107.8120000000001 442.3890000000001 1078.169L42.908 351.838C27.176 323.238 47.871 288.238 80.508 288.238H482.414A382.486 382.486 0 0 0 491.063 368.458zM428.5 867.5889999999999A21.459 21.459 0 0 0 449.957 889.046H510.039A21.459 21.459 0 0 0 531.496 867.5889999999999V567.1890000000001A21.459 21.459 0 0 0 510.039 545.7320000000001H449.953A21.459 21.459 0 0 0 428.5 567.1850000000001V867.585z M864 573.6C706.266 573.6 578.4 445.731 578.4 288S706.266 2.4000000000001 864 2.4000000000001S1149.6 130.2690000000001 1149.6 288.0000000000001S1021.734 573.6 864 573.6zM810.515 98.482L663.329 245.6710000000001A12 12 0 0 0 663.329 262.6420000000001L705.608 304.9210000000001A12 12 0 0 0 722.579 304.9210000000001L816 211.5L1030.546 426.0460000000001A12 12 0 0 0 1047.517 426.0460000000001L1092.796 380.7670000000001A12 12 0 0 0 1092.796 363.7960000000001L827.4850000000001 98.4850000000001A12 12 0 0 0 810.5150000000001 98.4850000000001z" />
    <glyph glyph-name="Alias"
      unicode="&#xEA17;"
      horiz-adv-x="1152" d=" M960 1056H343.316A12 12 0 0 1 334.927 1035.42L524.621 849.941C481.021 803.934 371.837 680.228 299.521 524.747C184.656 277.7869999999999 224.515 35.5719999999999 247.468 36.569C313.517 39.4400000000001 285.127 119.1279999999999 328.237 208.8689999999999C442.739 447.213 646.625 582.18 743.2 636.22L939.607 444.177A12 12 0 0 1 960.0000000000002 452.7570000000001V1056z" />
    <glyph glyph-name="AmazonWebServices"
      unicode="&#xEA18;"
      horiz-adv-x="1152" d=" M624 142.588L480 72V240L624 310.588V142.588zM288 310.588L432 240V72L288 142.588V310.588zM614.79 355.658L456 280.8L297.2100000000001 355.6579999999999A4.8 4.8 0 0 0 297.2100000000001 364.3419999999999L456 439.2000000000001L614.79 364.346A4.8 4.8 0 0 0 614.79 355.658zM432 475.16L288 404.5709999999999V572.5709999999999L432 643.1599999999999V475.1599999999999zM96 643.1600000000001L240 572.571V404.5710000000001L96 475.16V643.16zM422.79 688.23L264 613.375L105.21 688.23A4.8 4.8 0 0 0 105.21 696.914L264 771.767L422.79 696.913A4.8 4.8 0 0 0 422.79 688.23zM816 475.16L672 404.5709999999999V572.5709999999999L816 643.1599999999999V475.1599999999999zM480 643.1600000000001L624 572.571V404.5710000000001L480 475.16V643.16zM806.79 688.23L648 613.375L489.21 688.23A4.8 4.8 0 0 0 489.21 696.914L648 771.767L806.79 696.913A4.8 4.8 0 0 0 806.79 688.23zM1008 811.1600000000001L864 740.571V908.571L1008 979.16V811.1600000000001zM672 979.16L816 908.571V740.571L672 811.1600000000001V979.16zM998.79 1024.23L840 949.375L681.21 1024.23A4.8 4.8 0 0 0 681.21 1032.914L840 1107.767L998.79 1032.913A4.8 4.8 0 0 0 998.79 1024.23z" />
    <glyph glyph-name="Anchor"
      unicode="&#xEA19;"
      horiz-adv-x="1152" d=" M1086.586 403.9L945.6 576L798.795 403.9A12 12 0 0 1 807.8299999999999 384H897.281S783.763 225.973 624 225.973V624H696A24 24 0 0 1 720 648V696A24 24 0 0 1 696 720H624V784.787C680.6 811.8109999999999 720 869.1 720 936A168 168 0 0 1 384 936C384 869.1 423.4 811.811 480 784.787V720H408A24 24 0 0 1 384 696V648A24 24 0 0 1 408 624H480V225.973C312.774 225.973 206.719 384 206.719 384H291.064A12 12 0 0 1 300.099 403.9L158.4 576L17.414 403.9A12 12 0 0 1 26.449 384H96C165.258 216.328 332.648 96 552 96S938.742 216.328 1008 384H1077.551A12 12 0 0 1 1086.586 403.9zM468 940.8A84 84 0 1 0 552 856.8A83.994 83.994 0 0 0 468 940.8z" />
    <glyph glyph-name="Android"
      unicode="&#xEA1A;"
      horiz-adv-x="1152" d=" M984 288A72 72 0 0 0 912 360V696A72 72 0 0 0 1056 696V360A72 72 0 0 0 984 288zM168 288A72 72 0 0 0 96 360V696A72 72 0 0 0 240 696V360A72 72 0 0 0 168 288zM288 768V288A48 48 0 0 1 336 240H384V72A72 72 0 0 1 528 72V240H624V72A72 72 0 0 1 768 72V240H816A48 48 0 0 1 864 288V768H288zM288 816H864C864 910.957 817.84 994.922 746.953 1047.387L809.7 1110.129A24 24 0 0 1 775.758 1144.066L704.941 1073.256A285.763 285.763 0 0 1 447.0580000000001 1073.256L376.2420000000001 1144.066A24 24 0 0 1 342.3 1110.129L405.0420000000001 1047.387C334.1600000000001 994.922 288 910.957 288 816zM720 912H672V960H720V912zM480 912H432V960H480V912z" />
    <glyph glyph-name="Annotate"
      unicode="&#xEA1B;"
      horiz-adv-x="1152" d=" M894.3 1002.634C905.969 1014.399 905.316 1033.853 892.938 1046.228C880.519 1058.65 861.018 1059.3509999999999 849.343 1047.634A43.369 43.369 0 0 1 845.5939999999999 1042.992L845.2199999999999 1043.462L565.567 763.9L565.941 763.3820000000001A21.733 21.733 0 0 1 561.3040000000001 759.582C549.6300000000001 747.956 550.3360000000001 728.4110000000001 562.7540000000001 716.1279999999999C575.1340000000001 703.662 594.6310000000001 703.005 606.2540000000001 714.678A29.157 29.157 0 0 1 610.0540000000001 719.3199999999999L610.4760000000001 718.8979999999999L890.1340000000001 998.508L889.6640000000001 998.926A27.5 27.5 0 0 1 894.3000000000001 1002.634zM951.161 953.885C928.102 930.821 645.961 645.259 644.3209999999999 643.6179999999999C630.348 629.698 583.9419999999999 627.495 568.7549999999999 642.682C567.6319999999998 643.7570000000001 544.1929999999999 665.8820000000001 544.1929999999999 665.8820000000001L198.7509999999999 326.992A48 48 0 0 1 188.2839999999999 311.6239999999999L128.4089999999999 106.6179999999999A12 12 0 0 1 144.2399999999999 90.9099999999999L350.1109999999999 153.5099999999999A48 48 0 0 1 364.8179999999999 163.5099999999999L1055.509 851.6269999999998zM983.647 1008.634L1083.022 914.04C1095.1599999999999 936.821 1096.192 978.307 1057.192 1017.494C1021.24 1053.394 979.006 1060.147 954.16 1051.43C948.443 1049.366 956.224 1041.681 958.566 1039.43C960.8659999999998 1037.088 982.1 1011.725 983.647 1008.634zM119.148 272.432C21.43 562.346 128.8 814.261 398.354 960.75C438.967 982.821 406.932 1047.326 366.061 1025.115C70.07 864.259 -34.458 595.041 73.15 272.0220000000001C119.148 133.9450000000001 119.148 272.432 119.148 272.432z" />
    <glyph glyph-name="Answer"
      unicode="&#xEA1C;"
      horiz-adv-x="1152" d=" M1008.012 1008H144A48 48 0 0 1 96 960V288A48 48 0 0 1 144 240H432L576 0L720 240L1007.859 240.1520000000001A48.012 48.012 0 0 1 1055.847 288.1400000000001L1056 960A47.992 47.992 0 0 1 1008.012 1008zM499.2 892.125C499.2 895.594 499.2 899.039 505.008 901.641C520.16 907.687 557.408 912 574.832 912C598.132 912 634.176 908.555 645.855 904.242C651.663 901.642 652.8000000000001 897.328 652.8000000000001 894.726V832.5C652.8000000000001 759.8910000000001 633.0400000000001 555.937 629.5670000000001 530.0160000000001C629.5670000000001 527.416 628.3670000000001 524.816 621.4230000000001 524.816H528.3C523.6279999999999 524.816 521.2919999999999 526.5500000000001 520.156 530.0160000000001C517.824 554.2 499.2 757.312 499.2 829.9V892.125zM575.971 312C530.093 312 499.2 339.5370000000001 499.2 382.952C499.2 425.3 531.193 456 575.971 456C621.849 456 652.8 426.367 652.8 382.952C652.8 338.4740000000001 620.7489999999999 312 575.971 312z" />
    <glyph glyph-name="AnswerFavorite"
      unicode="&#xEA1D;"
      horiz-adv-x="1152" d=" M653.566 171.908L487.359 332.514C461.059 357.92 472.3 400.4890000000001 504.785 411.856C515.785 438.563 542.2379999999999 456.001 575.976 456.001C600.632 456.001 620.742 447.235 634.289 432.575L742.172 448.7349999999999L843.563 656.4429999999999C861.001 692.1969999999999 911.883 692.4139999999999 929.649 656.8179999999999L1032.832 450L1055.883 446.754L1056 960A47.992 47.992 0 0 1 1008.012 1008H144A48 48 0 0 1 96 960V288A48 48 0 0 1 144 240H432L576 0L643.7 112.828zM499.2 892.125C499.2 895.594 499.2 899.039 505.013 901.641C520.16 907.687 557.414 912 574.828 912C598.1279999999999 912 634.172 908.555 645.855 904.242C651.668 901.642 652.804 897.328 652.804 894.726V832.5C652.804 759.8910000000001 633.0459999999999 555.937 629.566 530.0160000000001C629.566 527.416 628.366 524.816 621.421 524.816H528.3C523.6239999999999 524.816 521.2919999999999 526.5500000000001 520.155 530.0160000000001C517.828 554.2 499.2 757.312 499.2 829.9V892.125z M806.3 361.27L876.5 505.076A12 12 0 0 0 898.021 505.1700000000001L969.467 361.9830000000001L1127.925 339.6640000000001A12 12 0 0 0 1134.665 319.2250000000002L1020.565 207.0250000000001L1048.3039999999999 49.4250000000002A12 12 0 0 0 1030.9479999999999 36.6990000000001L888.9799999999999 110.548L747.6659999999999 35.4649999999999A12 12 0 0 0 730.1999999999999 48.039L756.5619999999999 205.875L641.4859999999999 317.0750000000001A12 12 0 0 0 648.0469999999999 337.5750000000001z" />
    <glyph glyph-name="App"
      unicode="&#xEA1E;"
      horiz-adv-x="1152" d=" M960 1056H192A96 96 0 0 1 96 960V192A96 96 0 0 1 192 96H960A96 96 0 0 1 1056 192V960A96 96 0 0 1 960 1056zM576 192C363.924 192 192 363.924 192 576S363.924 960 576 960S960 788.076 960 576S788.076 192 576 192z M784.942 390.656C735.688 526.4469999999999 682.442 678.8789999999999 633.842 812.672C632.518 815.332 631.182 816 628.5219999999999 816H521.352C518.68 816 516.688 814.67 516.688 811.3419999999999C515.352 785.3789999999999 512.688 776.731 510.032 770.074C468.102 654.914 411.524 491.1679999999999 376.239 391.324C374.903 386.66 376.239 384 381.571 384H461.446C465.4299999999999 384 468.102 385.336 469.426 389.9880000000001L499.238 480H653.633L686.422 388.664C687.758 385.336 689.094 384 693.078 384H780.9449999999999C785.6089999999999 384 786.9449999999999 386 784.9419999999999 390.656zM574.6 737.4549999999999H575.256C588.569 689.531 618.194 605.514 631.506 560.25H519.758C537.067 614.168 564.6170000000001 692.191 574.6 737.455z" />
    <glyph glyph-name="Apple"
      unicode="&#xEA1F;"
      horiz-adv-x="1152" d=" M989.14 296.669A574.124 574.124 0 0 0 932.365 194.592Q887.5840000000001 130.745 859.229 106.204Q815.4290000000001 65.9210000000001 765.235 64.8129999999999C741.182 64.8129999999999 712.176 71.6569999999999 678.4110000000001 85.5409999999999Q627.5970000000001 106.269 584.9380000000001 106.204Q540.1570000000002 106.204 488.8190000000001 85.5409999999999Q437.3700000000001 64.7149999999999 405.7630000000001 63.7049999999999Q357.5700000000001 61.6519999999998 309.6440000000001 106.2049999999999Q279.0440000000001 132.8969999999999 233.1520000000001 197.722Q183.9520000000001 266.947 152.2600000000001 358.399Q118.3220000000001 457.249 118.2930000000001 549.899Q118.2930000000001 656.053 164.2150000000001 732.855Q200.3230000000001 794.482 260.3930000000001 830.1410000000001C300.4740000000001 853.933 343.7820000000001 866.057 390.4200000000001 866.8330000000001C415.9390000000001 866.8330000000001 449.4040000000001 858.9390000000001 490.9910000000001 843.426C532.4610000000001 827.8600000000001 559.0910000000001 819.9670000000001 570.7620000000001 819.9670000000001C579.49 819.9670000000001 609.07 829.1970000000001 659.216 847.5980000000001Q730.347 873.1980000000001 779.446 868.9460000000001Q912.713 858.191 979.428 763.6560000000001Q860.24 691.431 861.446 561.567Q862.522 460.4970000000001 934.646 393.596A240.551 240.551 0 0 1 1007.782 345.621Q998.982 320.102 989.14 296.668zM785.378 1098.487Q785.378 1019.269 727.6260000000001 950.723C681.2160000000001 896.4649999999999 625.08 865.111 564.2050000000002 870.059A164.4 164.4 0 0 0 562.9800000000001 890.0699999999999C562.9800000000001 940.77 585.0510000000002 995.028 624.2460000000001 1039.392Q653.6 1073.085 698.879 1095.43Q744.051 1117.445 784.269 1119.613A191.817 191.817 0 0 0 785.377 1098.488z" />
    <glyph glyph-name="Apps"
      unicode="&#xEA20;"
      horiz-adv-x="1152" d=" M192 1008H288A48 48 0 0 0 336 960V864A48 48 0 0 0 288 816H192A48 48 0 0 0 144 864V960A48 48 0 0 0 192 1008z M528 1008H624A48 48 0 0 0 672 960V864A48 48 0 0 0 624 816H528A48 48 0 0 0 480 864V960A48 48 0 0 0 528 1008z M864 1008H960A48 48 0 0 0 1008 960V864A48 48 0 0 0 960 816H864A48 48 0 0 0 816 864V960A48 48 0 0 0 864 1008z M192 672H288A48 48 0 0 0 336 624V528A48 48 0 0 0 288 480H192A48 48 0 0 0 144 528V624A48 48 0 0 0 192 672z M528 672H624A48 48 0 0 0 672 624V528A48 48 0 0 0 624 480H528A48 48 0 0 0 480 528V624A48 48 0 0 0 528 672z M864 672H960A48 48 0 0 0 1008 624V528A48 48 0 0 0 960 480H864A48 48 0 0 0 816 528V624A48 48 0 0 0 864 672z M192 336H288A48 48 0 0 0 336 288V192A48 48 0 0 0 288 144H192A48 48 0 0 0 144 192V288A48 48 0 0 0 192 336z M528 336H624A48 48 0 0 0 672 288V192A48 48 0 0 0 624 144H528A48 48 0 0 0 480 192V288A48 48 0 0 0 528 336z M864 336H960A48 48 0 0 0 1008 288V192A48 48 0 0 0 960 144H864A48 48 0 0 0 816 192V288A48 48 0 0 0 864 336z" />
    <glyph glyph-name="Archive"
      unicode="&#xEA21;"
      horiz-adv-x="1152" d=" M48 1008H1104A48 48 0 0 0 1152 960V864A48 48 0 0 0 1104 816H48A48 48 0 0 0 0 864V960A48 48 0 0 0 48 1008z M96 720V192A48 48 0 0 1 144 144H1008A48 48 0 0 1 1056 192V720H96zM744 384H408A24 24 0 0 0 384 408V552A24 24 0 0 0 408 576H744A24 24 0 0 0 768 552V408A24 24 0 0 0 744 384z" />
    <glyph glyph-name="ArchiveRemove"
      unicode="&#xEA22;"
      horiz-adv-x="1152" d=" M48 1056H912A48 48 0 0 0 960 1008V912A48 48 0 0 0 912 864H48A48 48 0 0 0 0 912V1008A48 48 0 0 0 48 1056z M864 573.6C706.267 573.6 578.4 445.7330000000001 578.4 288S706.2669999999999 2.4000000000001 864 2.4000000000001S1149.6 130.2710000000001 1149.6 288.0000000000001S1021.733 573.6 864 573.6zM1056 252A12 12 0 0 0 1044 240H684A12 12 0 0 0 672 252V324A12 12 0 0 0 684 336H1044A12 12 0 0 0 1056 324V252z M312 480A24 24 0 0 0 288 504V648A24 24 0 0 0 312 672H648A24 24 0 0 0 672 648V617.4A379.305 379.305 0 0 0 864 669.5999999999999V768H96V336A48 48 0 0 1 144 288H482.4A379.305 379.305 0 0 0 534.6 480H312z" />
    <glyph glyph-name="ArrowDown"
      unicode="&#xEA23;"
      horiz-adv-x="1152" d=" M768 528V1056A48 48 0 0 1 720 1104H432A48 48 0 0 1 384 1056V528H179.541C158.159 528 147.451 502.149 162.57 487.029L576 73.5999999999999L989.429 487.0289999999999C1004.549 502.1489999999999 993.841 527.9999999999999 972.459 527.9999999999999H768z" />
    <glyph glyph-name="ArrowLeft"
      unicode="&#xEA24;"
      horiz-adv-x="1152" d=" M528 768H1056A48 48 0 0 0 1104 720V432A48 48 0 0 0 1056 384H528V179.541C528 158.159 502.149 147.4509999999999 487.029 162.5699999999999L73.6 576L487.029 989.429C502.149 1004.549 528 993.841 528 972.459V768z" />
    <glyph glyph-name="ArrowRight"
      unicode="&#xEA25;"
      horiz-adv-x="1152" d=" M624 768H96A48 48 0 0 1 48 720V432A48 48 0 0 1 96 384H624V179.541C624 158.159 649.851 147.4509999999999 664.971 162.5699999999999L1078.4 576L664.971 989.429C649.851 1004.549 624 993.841 624 972.459V768z" />
    <glyph glyph-name="ArrowUp"
      unicode="&#xEA26;"
      horiz-adv-x="1152" d=" M768 624V96A48 48 0 0 0 720 48H432A48 48 0 0 0 384 96V624H179.541C158.159 624 147.451 649.851 162.57 664.971L576 1078.4L989.429 664.971C1004.549 649.851 993.841 624 972.459 624H768z" />
    <glyph glyph-name="Asset"
      unicode="&#xEA27;"
      horiz-adv-x="1152" d=" M559.2 849.6C559.2 816.4629150101524 586.0629150101524 789.6 619.2 789.6C652.3370849898477 789.6 679.2 816.4629150101524 679.2 849.6C679.2 882.7370849898476 652.3370849898477 909.6 619.2 909.6C586.0629150101524 909.6 559.2 882.7370849898476 559.2 849.6z M528 624V96A48 48 0 0 1 576 48H1056A48 48 0 0 1 1104 96V624A48 48 0 0 1 1056 672H576A48 48 0 0 1 528 624zM672 540A12 12 0 0 0 660 528H588A12 12 0 0 0 576 540V612A12 12 0 0 0 588 624H660A12 12 0 0 0 672 612V540zM672 396A12 12 0 0 0 660 384H588A12 12 0 0 0 576 396V468A12 12 0 0 0 588 480H660A12 12 0 0 0 672 468V396zM672 252A12 12 0 0 0 660 240H588A12 12 0 0 0 576 252V324A12 12 0 0 0 588 336H660A12 12 0 0 0 672 324V252zM672 108A12 12 0 0 0 660 96H588A12 12 0 0 0 576 108V180A12 12 0 0 0 588 192H660A12 12 0 0 0 672 180V108zM1056 540A12 12 0 0 0 1044 528H972A12 12 0 0 0 960 540V612A12 12 0 0 0 972 624H1044A12 12 0 0 0 1056 612V540zM1056 396A12 12 0 0 0 1044 384H972A12 12 0 0 0 960 396V468A12 12 0 0 0 972 480H1044A12 12 0 0 0 1056 468V396zM1056 252A12 12 0 0 0 1044 240H972A12 12 0 0 0 960 252V324A12 12 0 0 0 972 336H1044A12 12 0 0 0 1056 324V252zM1056 108A12 12 0 0 0 1044 96H972A12 12 0 0 0 960 108V180A12 12 0 0 0 972 192H1044A12 12 0 0 0 1056 180V108zM948 336H684A12 12 0 0 0 672 348V372A12 12 0 0 0 684 384H948A12 12 0 0 0 960 372V348A12 12 0 0 0 948 336z M432 632.631C381.123 689.273 328.031 768 282.832 768C244.532 768 185.473 699.6 144 644.437V960H816V768H912V1008A48 48 0 0 1 864 1056H96A48 48 0 0 1 48 1008V432A48 48 0 0 1 96 384H432V632.631z" />
    <glyph glyph-name="AssetCheck"
      unicode="&#xEA28;"
      horiz-adv-x="1152" d=" M511.2 897.6C511.2 864.4629150101523 538.0629150101524 837.6 571.2 837.6C604.3370849898477 837.6 631.2 864.4629150101523 631.2 897.6C631.2 930.7370849898476 604.3370849898477 957.6 571.2 957.6C538.0629150101524 957.6 511.2 930.7370849898476 511.2 897.6z M485.367 240H444A12 12 0 0 0 432 252V324A12 12 0 0 0 444 336H486.094A381.532 381.532 0 0 0 495.68 384H444A12 12 0 0 0 432 396V468A12 12 0 0 0 444 480H516A12 12 0 0 0 528 468V466.544C530.719 471.606 533.906 476.385 536.859 481.307C531.938 482.8150000000001 528 486.6 528 492V516A12 12 0 0 0 540 528H569.3C639.281 613 745.313 667.2 864 667.2A380.938 380.938 0 0 0 960 654.538V768A48 48 0 0 1 912 816H432A48 48 0 0 1 384 768V240A48 48 0 0 1 432 192H494.438A381.314 381.314 0 0 0 485.367 240zM816 756A12 12 0 0 0 828 768H900A12 12 0 0 0 912 756V684A12 12 0 0 0 900 672H828A12 12 0 0 0 816 684V756zM432 756A12 12 0 0 0 444 768H516A12 12 0 0 0 528 756V684A12 12 0 0 0 516 672H444A12 12 0 0 0 432 684V756zM432 612A12 12 0 0 0 444 624H516A12 12 0 0 0 528 612V540A12 12 0 0 0 516 528H444A12 12 0 0 0 432 540V612z M816 1104H48A48 48 0 0 1 0 1056V480A48 48 0 0 1 48 432H288V788.4839999999999C269.531 805.066 251.625 816 234.844 816C196.544 816 137.485 747.6 96 692.437V1008H768V816H864V1056A48 48 0 0 1 816 1104zM864 573.6C706.266 573.6 578.4 445.731 578.4 288S706.266 2.4000000000001 864 2.4000000000001S1149.6 130.2690000000001 1149.6 288.0000000000001S1021.734 573.6 864 573.6zM810.515 98.482L663.329 245.6710000000001A12 12 0 0 0 663.329 262.6420000000001L705.608 304.9210000000001A12 12 0 0 0 722.579 304.9210000000001L816 211.5L1030.546 426.0460000000001A12 12 0 0 0 1047.517 426.0460000000001L1092.796 380.7670000000001A12 12 0 0 0 1092.796 363.7960000000001L827.4850000000001 98.4850000000001A12 12 0 0 0 810.5150000000001 98.4850000000001z" />
    <glyph glyph-name="Asterisk"
      unicode="&#xEA29;"
      horiz-adv-x="1152" d=" M909.656 244.852C916.828 237.652 921.656 228.052 909.656 218.438L760.828 122.4380000000001C748.828 115.2380000000001 744.047 120.047 739.2189999999999 132.0470000000002L554.438 453.6559999999999L312 187.242C309.609 182.442 302.391 177.656 295.219 187.242L180 307.266C168 314.466 170.391 321.657 180 328.852L453.609 556.875L141.609 674.4839999999999C136.781 674.4839999999999 129.609 684.0699999999999 134.39 696.0699999999999L216 859.289C220.828 868.8979999999999 228 871.289 237.609 864.0889999999999L511.2190000000001 686.484L528.047 1036.9C528.047 1044.1 530.438 1051.291 542.438 1051.291L741.656 1024.9C753.656 1024.9 756.0469999999999 1020.1 753.656 1008.1L660.0469999999999 664.875L976.8749999999998 760.875C984.047 765.675 991.2659999999998 765.675 996.047 751.289L1027.2659999999998 573.68C1029.657 561.68 1027.2659999999998 556.88 1017.6569999999998 556.88L686.4379999999999 530.461z" />
    <glyph glyph-name="At"
      unicode="&#xEA2A;"
      horiz-adv-x="1152" d=" M761.679 330.9210000000001C824.644 343.771 957 409.3 957 612.332C957 828.2090000000001 811.8 957.992 611.3399999999999 957.992C383.8989999999999 957.992 198.8619999999999 805.079 198.8619999999999 526.239C198.8619999999999 332.207 286.241 198.569 439.1539999999999 120.1860000000002C444.2929999999999 116.3300000000002 445.5779999999999 113.7610000000002 445.5779999999999 108.6210000000001L442.9999999999999 23.8110000000002C442.9999999999999 17.3870000000002 441.7149999999999 17.3870000000002 436.5759999999999 18.6720000000003C233.553 98.3399999999999 101.2 280.807 101.2 521.1C101.2 824.355 311.937 1042.8000000000002 615.192 1042.8000000000002C856.768 1042.8000000000002 1050.8 886.032 1050.8 620.0420000000001C1050.8 359.1910000000002 859.338 231.9780000000001 640.891 231.9780000000001C471.274 231.9780000000001 354.341 327.0660000000001 354.341 510.8190000000001C354.341 693.2860000000001 489.2629999999999 812.7890000000001 653.741 812.7890000000001C697.431 812.7890000000001 747.5409999999999 807.6490000000001 782.241 792.229C787.38 790.9440000000001 788.6659999999999 789.6590000000001 788.6659999999999 784.5190000000001zM693.579 724.1210000000001C684.5849999999999 726.691 670.449 730.546 640.895 730.546C522.677 730.546 448.148 636.7460000000001 448.148 518.5240000000001C448.148 406.7310000000001 507.2569999999999 318.0670000000001 630.615 318.0670000000001C649.89 318.0670000000001 658.884 319.3520000000001 670.4490000000001 321.9220000000002z" />
    <glyph glyph-name="Attach"
      unicode="&#xEA2B;"
      horiz-adv-x="1152" d=" M520.969 152.578C479.3440000000001 110.953 424.5940000000001 88.172 366.4220000000001 88.172H362.9530000000001C304.0780000000001 89.1089999999999 248.016 113.203 205.172 156C115.735 245.4840000000001 114.235 384.187 201.75 471.8L748.172 1018.922C777.188 1047.9379999999999 813.563 1065.0939999999998 850.594 1067.25C888.5160000000001 1070.156 922.055 1058.836 950.2740000000002 1030.664C978.165 1002.7259999999998 993.0940000000002 965.672 986.674 930.234A187.477 187.477 0 0 0 934.8890000000002 832.2069999999999S548.015 446.062 533.937 431.9840000000001C508.943 406.99 485.463 388.9840000000001 458.663 415.7960000000001S452.924 467.104 475.871 490.051C484.6 498.776 758.72 772.569 805.3 819.03A23.916 23.916 0 0 1 805.77 852.395L783.694 875.877A24 24 0 0 1 749.1859999999999 876.356L410.52 536.5C377.332 503.312 335.888 430.035 408.191 357.731C495.152 270.77 593.932 377.048 593.932 377.048L992.543 774.5509999999999C1074.527 856.442 1105.992 990.351 1007.977 1088.367C964.805 1131.539 913.777 1149.375 858.277 1149.375C799.1210000000001 1149.375 738.933 1125 690.5110000000001 1076.575L146.766 533.672C26.485 413.438 26.485 217.781 146.766 97.547C266.954 -22.7809999999999 462.657 -22.6869999999999 582.8439999999999 97.547L1051.644 566.302A24 24 0 0 1 1051.652 600.2370000000001L1027.127 624.7810000000001A24 24 0 0 1 993.179 624.788z" />
    <glyph glyph-name="AttachmentExclude"
      unicode="&#xEA2C;"
      horiz-adv-x="1152" d=" M510.023 143.552C469.875 108.182 419.836 88.172 366.423 88.172H362.954C304.079 89.1089999999999 248.017 113.203 205.173 156C115.736 245.4840000000001 114.236 384.187 201.751 471.8L748.172 1018.922C777.188 1047.9379999999999 813.563 1065.0939999999998 850.594 1067.25C888.5160000000001 1070.156 922.055 1058.836 950.2740000000002 1030.664C978.165 1002.7259999999998 993.0940000000002 965.672 986.674 930.234A187.5 187.5 0 0 0 934.8740000000003 832.2069999999999S846.6740000000001 744.1759999999999 753.0220000000002 650.689A381.348 381.348 0 0 0 864 667.2C870.7 667.2 877.266 666.538 883.875 666.2L992.531 774.5509999999999C1074.5149999999999 856.442 1105.992 990.351 1007.976 1088.367C964.804 1131.539 913.776 1149.375 858.2760000000001 1149.375C799.1200000000001 1149.375 738.932 1125 690.5100000000001 1076.575L146.766 533.672C26.485 413.438 26.485 217.781 146.766 97.547C256.524 -12.3399999999999 429.094 -21.463 549.774 69.2930000000001A380.029 380.029 0 0 0 510.023 143.5520000000001z M805.313 819.029A23.927 23.927 0 0 1 805.782 852.395L783.7 875.877A24.017 24.017 0 0 1 749.177 876.357L410.531 536.5C377.344 503.312 335.8830000000001 430.035 408.187 357.733C433.5 332.433 459.75 323.772 484.335 323.81A378.585 378.585 0 0 0 502.4760000000001 407.0569999999999C488.3430000000001 400.0489999999999 474.046 400.3949999999999 458.676 415.7989999999999C431.8640000000001 442.5989999999998 452.934 467.1069999999999 475.876 490.0549999999998C484.5940000000001 498.7759999999998 758.719 772.5699999999998 805.3130000000001 819.0289999999998zM864 573.595C706.266 573.595 578.4 445.7230000000001 578.4 287.995S706.2629999999999 2.395 864 2.395S1149.6 130.264 1149.6 287.995S1021.734 573.595 863.9999999999999 573.595zM1078.2 287.995A212.605 212.605 0 0 0 1038.286 164.1950000000001L740.2 462.278A212.629 212.629 0 0 0 864 502.192C982.3 502.192 1078.2 406.2920000000001 1078.2 287.9940000000001zM649.809 287.995A212.6 212.6 0 0 0 689.723 411.795L987.8 113.7070000000001A212.629 212.629 0 0 0 864 73.7930000000001C745.7 73.7930000000001 649.8 169.6930000000001 649.8 287.9940000000002z" />
    <glyph glyph-name="Back"
      unicode="&#xEA2D;"
      horiz-adv-x="1152" d=" M336 816V979.029A12 12 0 0 1 315.515 987.514L14.4 696L315.515 404.485A12 12 0 0 1 336 412.971V576H816V168A24 24 0 0 1 840 144H1032A24 24 0 0 1 1056 168V624C1056 730.039 970.039 816 864 816H336z" />
    <glyph glyph-name="Back30Seconds"
      unicode="&#xEA2E;"
      horiz-adv-x="1152" d=" M96 576C96 327.105 285.445 122.5140000000001 528 98.4259999999999V243.8200000000001C365.227 267.164 240 406.775 240 576S365.227 884.836 528 908.18V1053.574C285.445 1029.486 96 824.895 96 576zM845.906 972.9L909.406 1035.513A12 12 0 0 1 900.926 1056H624V782.7660000000001A12 12 0 0 1 644.484 774.282L740.284 868.753C842.73 811.3 912 701.848 912 576C912 406.775 786.773 267.164 624 243.82V98.425C866.5550000000001 122.5129999999999 1056 327.105 1056 575.999C1056 741.0120000000001 972.715 886.523 845.906 972.9z M415.79 558.581C413.8 558.581 412.999 559.46 412.999 561.665V601.8C412.999 604.449 413.399 605.771 415.394 605.771H435.294C464.358 605.771 481.075 616.357 481.075 638.4079999999999C481.075 659.137 466.349 672.8079999999999 436.087 672.8079999999999C415.387 672.8079999999999 397.475 667.5149999999999 378.76 656.0459999999998C376.373 655.1669999999999 375.976 656.0459999999998 375.976 657.8119999999999V698.3879999999999C375.976 700.5929999999998 375.576 701.4759999999999 377.966 702.798C395.4840000000001 713.384 418.966 719.9979999999999 445.245 719.9979999999999C496.601 719.9979999999999 528.051 690.01 528.051 645.4649999999999C528.051 614.1499999999999 508.5430000000001 594.7439999999999 491.826 586.8059999999999C512.5260000000001 580.1859999999999 539.994 560.7839999999999 539.994 518.006C540 462.432 495.012 432 440.469 432C414.593 432 392.301 435.971 374.387 446.557C372.397 447.4360000000001 372 450.0800000000001 372 452.285V495.947A2.3 2.3 0 0 0 375.577 497.713C397.477 484.9219999999999 416.584 479.194 438.883 479.194C475.909 479.194 490.635 496.8349999999999 490.635 519.3249999999999C490.635 545.347 473.117 558.5809999999999 438.883 558.5809999999999H415.79zM569.9 576.661C569.9 658.7 606.5 720 672.659 720C753.808 720 774.1 643.7 774.1 576.6610000000001C774.1 502.561 747.191 432 673.1 432C600.331 432 569.9 495.947 569.9 576.6610000000001zM623.261 577.983C623.261 515.3539999999999 639.584 477.867 673.0989999999999 477.867S721.1709999999999 512.709 721.1709999999999 577.1039999999999C721.1709999999999 644.1389999999999 704.4089999999999 675.0149999999999 671.771 675.0149999999999C643.545 675.0149999999999 623.26 645.4669999999999 623.26 577.983z" />
    <glyph glyph-name="Beaker"
      unicode="&#xEA2F;"
      horiz-adv-x="1152" d=" M998.648 181.819L783.527 683.7860000000001A192.02 192.02 0 0 0 768 759.419V960A48 48 0 0 1 816 1008V1056A48 48 0 0 1 768 1104H384A48 48 0 0 1 336 1056V1008A48 48 0 0 1 384 960V759.419A192.02 192.02 0 0 0 368.473 683.7860000000001L153.352 181.819C126.211 118.471 172.676 48 241.594 48H910.406C979.324 48 1025.789 118.471 998.648 181.819zM342.539 384L457.266 655.318A288.081 288.081 0 0 1 480 767.476V960H672V766.573A288 288 0 0 1 694.066 656.015L752.73 514.91z" />
    <glyph glyph-name="BeakerCheck"
      unicode="&#xEA30;"
      horiz-adv-x="1152" d=" M864 573.6C706.266 573.6 578.4 445.731 578.4 288S706.266 2.4000000000001 864 2.4000000000001S1149.6 130.2690000000001 1149.6 288.0000000000001S1021.734 573.6 864 573.6zM810.515 98.482L663.329 245.6710000000001A12 12 0 0 0 663.329 262.6420000000001L705.608 304.9210000000001A12 12 0 0 0 722.579 304.9210000000001L816 211.5L1030.546 426.0460000000001A12 12 0 0 0 1047.517 426.0460000000001L1092.796 380.7670000000001A12 12 0 0 0 1092.796 363.7960000000001L827.4850000000001 98.4850000000001A12 12 0 0 0 810.5150000000001 98.4850000000001z M482.4 288A379.4 379.4 0 0 0 522.0559999999999 456.612L294.539 384L409.266 655.318A288.081 288.081 0 0 1 432 767.476V960H624V766.573A288 288 0 0 1 646.066 656.015L664.113 612.615A378.877 378.877 0 0 0 749.1680000000001 651.952L735.5270000000002 683.789A192.02 192.02 0 0 0 720 759.419V960A48 48 0 0 1 768 1008V1056A48 48 0 0 1 720 1104H336A48 48 0 0 1 288 1056V1008A48 48 0 0 1 336 960V759.419A192.02 192.02 0 0 0 320.473 683.7860000000001L105.352 181.819C78.211 118.471 124.676 48 193.594 48H567.4939999999999A379.828 379.828 0 0 0 482.4 288z" />
    <glyph glyph-name="BeakerShare"
      unicode="&#xEA31;"
      horiz-adv-x="1152" d=" M953.329 520.048L816 672L679.011 520.048C665.111 504.603 676.073 479.9930000000001 696.8499999999999 479.9930000000001H768V203.9930000000001A12 12 0 0 1 780 191.9930000000001H852A12 12 0 0 1 864 203.9930000000001V479.9930000000001H935.49C956.268 479.9930000000001 967.228 504.6 953.329 520.048z M1128 432H960V336H1056V96H576V336H672V432H504A24 24 0 0 1 480 408V24A24 24 0 0 1 504 0H1128A24 24 0 0 1 1152 24V408A24 24 0 0 1 1128 432z M720 1104H336A48 48 0 0 1 288 1056V1008A48 48 0 0 1 336 960V759.419A192.02 192.02 0 0 0 320.473 683.7860000000001L105.352 181.819C78.211 118.471 124.676 48 193.594 48H396.844V416.651L294.539 384L409.266 655.318A288.081 288.081 0 0 1 432 767.476V960H624V766.573A288 288 0 0 1 646.066 656.015L658.4290000000001 626.261L729.0230000000001 704.554C723.668 722.4 720 740.71 720 759.419V960A48 48 0 0 1 768 1008V1056A48 48 0 0 1 720 1104z" />
    <glyph glyph-name="Behance"
      unicode="&#xEA32;"
      horiz-adv-x="1152" d=" M424.587 617.362C440.045 630.372 452.501 648.2529999999999 452.501 679.419C452.501 724.41 422.419 746.9 370.401 746.9C352.776 746.9 332.722 744.4590000000001 321.075 743.643V621.7L369.043 620.8900000000001C390.183 620.8870000000001 414.572 619.5290000000001 424.587 617.3620000000001zM416.739 543.111C404.271 546.636 391.266 553.954 375.273 553.954H321.073V391.354C334.351 390.544 352.512 391.354 368.494 391.354C426.494 391.354 467.682 417.3749999999999 467.682 472.6539999999999C467.6849999999999 506.7999999999998 452.4999999999999 531.9999999999999 416.739 543.1109999999999z M761.783 641.969C718.7470000000001 641.969 700.114 605.244 695.729 565.497H786.173C809.191 565.497 817.417 565.497 819.609 566.322C819.609 569.062 820.163 571.531 820.163 573.722C820.164 597.837 808.373 641.969 761.783 641.969z M830.672 1056H306.4C187.734 1056 96 960.8 96 841.863V305.8710000000001C96 186.937 192 96 310.664 96H845.332C963.727 96 1056 190.664 1056 309.6V845.068C1056 963.738 949.336 1056 830.672 1056zM861.072 816V769.336L658.6659999999999 766.936L656 816H861.0699999999999zM375.272 337.1610000000001C327.03 337.1610000000001 274.19 336.3510000000001 250.885 337.1610000000001C247.098 337.971 239.774 334.1840000000001 239.774 337.1610000000001V805.431C239.774 809.224 244.93 813.023 247.634 813.831C268.2340000000001 814.6410000000001 325.6840000000001 815.998 370.401 815.998C505.887 815.998 530.2760000000001 737.6859999999999 530.2760000000001 690.527C530.2760000000001 636.604 503.7190000000001 606.249 484.7490000000001 591.077C511.8490000000001 577.799 552.224 544.466 552.224 475.633C552.225 384.0450000000001 488.013 336.351 375.273 337.1610000000001zM892.252 518.3530000000001C891.4209999999999 514.7940000000001 890.06 513.153 886.218 512.5960000000001C877.449 510.9580000000001 692.718 510.6810000000002 692.718 510.6810000000002C693.26 450.3810000000002 724.781 405.4340000000002 792.75 405.4340000000002C819.61 405.4340000000002 844.001 407.0780000000002 867.5840000000001 417.2200000000002C870.595 418.5870000000001 872.7840000000001 418.0450000000002 872.7840000000001 414.2030000000001V358.5680000000001C872.7840000000001 354.1840000000001 871.4110000000001 351.9860000000001 868.4000000000001 349.7930000000001C844.8280000000001 338.0070000000002 813.5840000000001 332.8040000000001 776.5830000000001 332.8040000000001C657.909 332.8 613.5 419.411 613.5 516.438C613.5 621.408 668.316 707.203 764.795 707.203C862.37 707.203 896.637 625.803 896.637 559.739C896.637 538.359 894.4449999999999 526.58 892.252 518.3530000000001z" />
    <glyph glyph-name="Bell"
      unicode="&#xEA33;"
      horiz-adv-x="1152" d=" M576 0C635.646 0 720 64.4770000000001 720 144H432C432 64.4770000000001 516.354 0 576 0zM864 768C864 891.727 799.547 946.43 672 960V1056A48 48 0 0 1 624 1104H528A48 48 0 0 1 480 1056V960C352.453 946.43 288 891.727 288 768C288 213.059 144 379.992 144 306.4690000000001V264A24 24 0 0 1 168 240H984A24 24 0 0 1 1008 264V306.4690000000001C1008 384 864 213.059 864 768z" />
    <glyph glyph-name="BidRule"
      unicode="&#xEA34;"
      horiz-adv-x="1152" d=" M768 576L576 768L768 960L879.687 848.313L960 768L768 576zM835.378 415.1L799.6850000000001 450.788A25.242 25.242 0 0 0 799.6850000000001 486.481L1049.52 736.315A25.242 25.242 0 0 0 1085.213 736.315L1120.901 700.6220000000001A25.236 25.236 0 0 0 1120.901 664.934L871.066 415.1A25.236 25.236 0 0 0 835.378 415.1zM451.81 798.662L416.122 834.355A25.228 25.228 0 0 0 416.122 870.0429999999999L665.957 1119.878A25.228 25.228 0 0 0 701.645 1119.878L737.338 1084.19A25.242 25.242 0 0 0 737.338 1048.497L487.5 798.662A25.242 25.242 0 0 0 451.81 798.662zM129.936 62.0640000000001L62.064 129.936A48 48 0 0 0 62.064 197.818L576 672L672 576L197.818 62.0639999999999A48 48 0 0 0 129.936 62.0639999999999zM1104 144V192A48 48 0 0 1 1056 240H768A48 48 0 0 1 720 192V144H696A24 24 0 0 1 672 120V72A24 24 0 0 1 696 48H1128A24 24 0 0 1 1152 72V120A24 24 0 0 1 1128 144z" />
    <glyph glyph-name="BidRuleAdd"
      unicode="&#xEA35;"
      horiz-adv-x="1152" d=" M451.81 798.662L416.122 834.355A25.228 25.228 0 0 0 416.122 870.0429999999999L665.957 1119.878A25.228 25.228 0 0 0 701.645 1119.878L737.338 1084.19A25.242 25.242 0 0 0 737.338 1048.497L487.5 798.662A25.242 25.242 0 0 0 451.81 798.662zM864 573.6C706.267 573.6 578.4 445.7330000000001 578.4 288S706.2669999999999 2.4000000000001 864 2.4000000000001S1149.6 130.2720000000001 1149.6 288.0000000000001S1021.733 573.6 864 573.6zM1056 252A12 12 0 0 0 1044 240H912V108A12 12 0 0 0 900 96H828A12 12 0 0 0 816 108V240H684A12 12 0 0 0 672 252V324A12 12 0 0 0 684 336H816V468A12 12 0 0 0 828 480H900A12 12 0 0 0 912 468V336H1044A12 12 0 0 0 1056 324zM646.594 601.4L576 672L62.064 197.818A48.01 48.01 0 0 1 62.064 129.9359999999999L129.936 62.0639999999999A48 48 0 0 1 197.813 62.0639999999999L495.139 384.3169999999998A381.734 381.734 0 0 0 646.594 601.4zM861.47 669.47L960 768L768 960L576 768L707.99 636.01A379.483 379.483 0 0 0 861.47 669.47zM1066.8 610.838L1120.8999999999999 664.938A25.242 25.242 0 0 1 1120.8999999999999 700.631L1085.2119999999998 736.319A25.242 25.242 0 0 1 1049.5189999999998 736.319L968.0629999999998 654.8679999999999A378.734 378.734 0 0 0 1066.7999999999997 610.838z" />
    <glyph glyph-name="Blackberry"
      unicode="&#xEA36;"
      horiz-adv-x="1152" d=" M274.339 960H119.7L78.069 769.678H244.6C310.023 770.8679999999999 363.551 806.553 371.878 864.8389999999999C379.54 918.467 326.894 960 274.339 960zM666.878 960H512.241L470.608 769.678H637.14C702.563 770.8679999999999 756.091 806.553 764.418 864.8389999999999C772.079 918.467 719.433 960 666.878 960zM214.863 672H60.226L18.594 481.678H185.125C250.548 482.8680000000001 304.076 518.553 312.403 576.8389999999999C320.064 630.467 267.418 672 214.863 672zM607.4 672H452.766L411.1330000000001 481.678H577.664C643.087 482.8680000000001 696.615 518.553 704.942 576.8389999999999C712.6 630.467 659.957 672 607.4 672zM1023.731 768H869.095L827.462 577.678H993.994C1059.417 578.868 1112.945 614.553 1121.272 672.8389999999999C1128.933 726.467 1076.287 768 1023.731 768zM964.256 480H809.619L767.986 289.678H934.518C999.941 290.8680000000001 1053.469 326.553 1061.796 384.839C1069.457 438.467 1016.811 480 964.256 480zM547.926 384H393.29L351.6570000000001 193.678H518.1890000000001C583.6120000000001 194.8680000000001 637.1400000000001 230.553 645.4670000000001 288.839C653.128 342.467 600.482 384 547.926 384z" />
    <glyph glyph-name="Blog"
      unicode="&#xEA37;"
      horiz-adv-x="1152" d=" M288 1056V912H432C697.1 912 912 697.1 912 432V288H1056V432C1056 776.626 776.626 1056 432 1056H288z M672 384V288H816V384C816 622.587 622.587 816 384 816H288V672H384C543.058 672 672 543.058 672 384z M312 576C303.867 576 295.9340000000001 575.268 288 574.535V434.391A124.764 124.764 0 1 0 312 187.2000000000001C243.07 187.2000000000001 189.6 234.1210000000001 189.6 344.466V816H48V312C48 166.2000000000001 166.2 48 312 48S576 166.2000000000001 576 312S457.8 576 312 576z" />
    <glyph glyph-name="Blur"
      unicode="&#xEA38;"
      horiz-adv-x="1152" d=" M484.364 1119.683C524.4549999999999 844.774 255.273 629.783 255.273 409.501C255.273 245.021 398.873 111.683 576 111.683S896.727 245.021 896.727 409.5C896.727 636.829 555.954 876.273 484.363 1119.682z" />
    <glyph glyph-name="Book"
      unicode="&#xEA39;"
      horiz-adv-x="1152" d=" M667.2 240H293.7C224.056 240 160.078 286.9310000000001 146.793 355.3C128.931 447.225 199.211 528 288 528H695.557A48 48 0 0 1 734.376 547.768L1081.8229999999999 1025.507A19.2 19.2 0 0 1 1066.3 1056H518.819A48 48 0 0 1 480 1036.232L96 528H97.084C42.317 455.533 25.522 352.851 87.731 246.453C128.618 176.524 207.275 137.273 288 144H695.557A48 48 0 0 1 734.376 163.768L1081.8229999999999 641.5070000000001A19.2 19.2 0 0 1 1066.3 672H981.387z" />
    <glyph glyph-name="Bookmark"
      unicode="&#xEA3A;"
      horiz-adv-x="1152" d=" M357.219 25.463L456 144L554.781 25.462A12 12 0 0 1 576 33.145V432H336V33.145A12 12 0 0 1 357.219 25.463zM1066.295 672H981.387L672 246.6V144H695.555A48 48 0 0 1 734.3789999999999 163.77L1081.822 641.508A19.2 19.2 0 0 1 1066.295 672z M1066.295 1056H518.818A48 48 0 0 1 480 1036.233L96 528H97.084C42.316 455.534 25.523 352.852 87.732 246.454C120.41 190.5700000000001 177.3 154.7580000000001 240 145.869V249.809C193.57 266.863 156.527 305.218 146.795 355.298C128.93 447.226 199.207 528 288 528H695.5550000000001A48 48 0 0 1 734.379 547.77L1081.8220000000001 1025.508A19.2 19.2 0 0 1 1066.295 1056z" />
    <glyph glyph-name="Boolean"
      unicode="&#xEA3B;"
      horiz-adv-x="1152" d=" M1008 960H144A144 144 0 0 1 0 816V336A144 144 0 0 1 144 192H1008A144 144 0 0 1 1152 336V816A144 144 0 0 1 1008 960zM1008 288H720A48 48 0 0 0 672 336V816A48 48 0 0 0 720 864H1008A48 48 0 0 0 1056 816V336A48 48 0 0 0 1008 288z" />
    <glyph glyph-name="Box"
      unicode="&#xEA3C;"
      horiz-adv-x="1152" d=" M528 48L120.689 274.284A48 48 0 0 0 96 316.2430000000001V720L528 480V48zM1031.311 274.284L624 48V480L1056 720V316.243A48 48 0 0 0 1031.311 274.2839999999999zM775.1 1004.291L598.863 1099.752A48.005 48.005 0 0 1 553.1360000000001 1099.752L113.7530000000001 861.752A24.74 24.74 0 0 1 113.7530000000001 818.246L279.6330000000001 728.4zM1038.246 861.7529999999999L875.1090000000002 950.121L379.6410000000002 674.229L576 567.864L1038.246 818.2470000000001A24.74 24.74 0 0 1 1038.246 861.753z" />
    <glyph glyph-name="BoxExport"
      unicode="&#xEA3D;"
      horiz-adv-x="1152" d=" M432 48L24.689 274.284A48 48 0 0 0 0 316.2430000000001V720L432 480V48zM679.1 1004.291L502.863 1099.752A48.005 48.005 0 0 1 457.136 1099.752L17.753 861.752A24.74 24.74 0 0 1 17.753 818.246L183.6330000000001 728.4zM942.246 861.7529999999999L779.1089999999999 950.121L283.6409999999999 674.229L480 567.864L942.246 818.2470000000001A24.74 24.74 0 0 1 942.246 861.753zM840 576H960V720L528 480V48L624 101.3320000000001V384A48 48 0 0 0 672 432H816V552A24 24 0 0 0 840 576z M912 336V464.193A12 12 0 0 0 932.729 472.428L1152 240L932.729 7.5720000000001A12 12 0 0 0 912 15.807V144H744A24 24 0 0 0 720 168V312A24 24 0 0 0 744 336H912z" />
    <glyph glyph-name="BoxImport"
      unicode="&#xEA3E;"
      horiz-adv-x="1152" d=" M1127.311 274.284L720 48V480L1152 720V316.243A48 48 0 0 0 1127.311 274.2839999999999zM871.1 1004.291L694.863 1099.752A48.005 48.005 0 0 1 649.1360000000001 1099.752L209.7530000000001 861.752A24.74 24.74 0 0 1 209.7530000000001 818.246L375.6330000000001 728.4zM1134.246 861.7529999999999L971.1090000000002 950.121L475.6410000000001 674.229L672 567.864L1134.246 818.2470000000001A24.74 24.74 0 0 1 1134.246 861.753zM192 720V604.963C204.352 605.0799999999999 216.844 601.0169999999999 226.406 591.454L557.461 260.382A24 24 0 0 0 557.461 226.442L466.524 135.49L624 48V480z M192 336V464.193A12 12 0 0 0 212.729 472.428L432 240L212.729 7.5720000000001A12 12 0 0 0 192 15.807V144H24A24 24 0 0 0 0 168V312A24 24 0 0 0 24 336H192z" />
    <glyph glyph-name="Brackets"
      unicode="&#xEA3F;"
      horiz-adv-x="1152" d=" M432.013 154.125A24 24 0 0 1 408.013 178.125H359.427C346.22 178.125 335.427 188.033 335.427 200.145V456C335.427 512.2 242.544 576.5 242.544 576.5S335.427 638.8 335.427 696V953.232C335.427 965.188 345.986 974.879 359.017 974.879H408.017A24 24 0 0 1 432.017 998.879V1080A24 24 0 0 1 408.017 1104H384.987C278.587 1104 192.476 1017.507 192.987 911.109C193.434 818.484 193.866 721.284 193.866 691.9390000000001C193.866 652.646 142.093 615.873 105.553 594.808C90.6 586.192 90.471 566.513 105.319 557.759C141.882 536.208 193.866 498.9160000000001 193.866 461.059V240C193.866 133.961 279.827 48 385.866 48H408.014A24 24 0 0 1 432.014 72V154.125zM719.987 154.125A24 24 0 0 0 743.987 178.125H792.573C805.78 178.125 816.573 188.033 816.573 200.145V456C816.573 512.2 909.456 576.5 909.456 576.5S816.573 638.8 816.573 696V953.232C816.573 965.188 806.014 974.879 792.983 974.879H743.983A24 24 0 0 0 719.983 998.879V1080A24 24 0 0 0 743.983 1104H767.0129999999999C873.4129999999999 1104 959.5239999999998 1017.507 959.013 911.109C958.566 818.484 958.134 721.284 958.134 691.9390000000001C958.134 652.646 1009.907 615.873 1046.447 594.808C1061.3999999999999 586.192 1061.529 566.513 1046.6809999999998 557.759C1010.1189999999998 536.208 958.1339999999998 498.9160000000001 958.1339999999998 461.059V240C958.1339999999998 133.961 872.1729999999998 48 766.1339999999998 48H743.9869999999997A24 24 0 0 0 719.9869999999997 72V154.125z" />
    <glyph glyph-name="BracketsSquare"
      unicode="&#xEA40;"
      horiz-adv-x="1152" d=" M432 1032V1080A24 24 0 0 1 408 1104H240A48 48 0 0 1 192 1056V96A48 48 0 0 1 240 48H408A24 24 0 0 1 432 72V120A24 24 0 0 1 408 144H336V1008H408A24 24 0 0 1 432 1032zM720 1080V1032A24 24 0 0 1 744 1008H816V144H744A24 24 0 0 1 720 120V72A24 24 0 0 1 744 48H912A48 48 0 0 1 960 96V1056A48 48 0 0 1 912 1104H744A24 24 0 0 1 720 1080z" />
    <glyph glyph-name="Branch-Circle"
      unicode="&#xEA41;"
      horiz-adv-x="1152" d=" M768 463.365A79.362 79.362 0 1 1 847.359 384A79.358 79.358 0 0 1 768 463.365zM768 688.6410000000001A79.362 79.362 0 1 1 688.641 768A79.353 79.353 0 0 1 768 688.6410000000001z M576 1053.6C312.234 1053.6 98.4 839.7660000000001 98.4 576S312.2340000000001 98.4000000000001 576 98.4000000000001S1053.6 312.2340000000002 1053.6 576.0000000000001S839.766 1053.6 576 1053.6zM768 235.2000000000001A146.926 146.926 0 0 0 621.773 409.5820000000001L452.7190000000001 484.7230000000001C425.484 449.953 383.59 427.2000000000001 336 427.2000000000001A148.8 148.8 0 1 0 336 724.8000000000001C383.5900000000001 724.8000000000001 425.484 702.0420000000001 452.719 667.267L621.774 742.402A148.609 148.609 0 1 0 768 619.2C720.422 619.2 678.527 641.952 651.281 676.71L482.227 601.582A127.955 127.955 0 0 0 482.215 550.412L651.281 475.277C678.516 510.053 720.41 532.8 768 532.8A148.8 148.8 0 1 0 768 235.2z" />
    <glyph glyph-name="Branch1"
      unicode="&#xEA42;"
      horiz-adv-x="1152" d=" M912 576A191.618 191.618 0 0 1 764.3 506.672L427.453 678.322A193.032 193.032 0 0 1 432 720C432 826.043 346.043 912 240 912S48 826.043 48 720S133.957 528 240 528A191.547 191.547 0 0 1 383.8590000000001 592.852L723.3510000000001 419.852A193.252 193.252 0 0 1 720 384C720 277.963 805.957 192 912 192S1104 277.963 1104 384S1018.043 576 912 576zM912 283.2000000000001A100.8 100.8 0 1 0 1012.8 384A100.807 100.807 0 0 0 912 283.2000000000001z" />
    <glyph glyph-name="Branch2"
      unicode="&#xEA43;"
      horiz-adv-x="1152" d=" M912 432C852.141 432 799.348 404.039 764.133 361.1L428.555 541.846A170.984 170.984 0 0 1 428.555 610.146L764.155 790.8779999999999C799.359 747.9549999999999 852.141 720 912 720C1018.043 720 1104 805.963 1104 912S1018.043 1104 912 1104S720 1018.043 720 912A191.913 191.913 0 0 1 723.445 877.84L387.8550000000001 697.113C352.641 740.039 299.859 768 240 768C133.957 768 48 682.043 48 576S133.957 384 240 384C299.848 384 352.641 411.961 387.844 454.881L723.444 274.137A191.65 191.65 0 0 1 720 240C720 133.963 805.957 48 912 48S1104 133.963 1104 240S1018.043 432 912 432zM912 1012.8A100.8 100.8 0 1 0 811.2 912A100.812 100.812 0 0 0 912 1012.8zM912 139.1999999999999A100.8 100.8 0 1 0 1012.8 240A100.807 100.807 0 0 0 912 139.2000000000001z" />
    <glyph glyph-name="Branch3"
      unicode="&#xEA44;"
      horiz-adv-x="1152" d=" M432 240C432 299.8590000000001 404.039 352.6520000000001 361.1 387.867L541.846 723.4449999999999A170.984 170.984 0 0 1 610.146 723.4449999999999L790.8779999999999 387.8449999999999C747.955 352.641 720 299.8590000000001 720 240C720 133.957 805.963 48 912 48S1104 133.957 1104 240S1018.043 432 912 432A191.913 191.913 0 0 1 877.84 428.555L697.113 764.145C740.039 799.3589999999999 768 852.1410000000001 768 912C768 1018.043 682.043 1104 576 1104S384 1018.043 384 912C384 852.152 411.961 799.3589999999999 454.881 764.156L274.137 428.5560000000001A191.65 191.65 0 0 1 240 432C133.963 432 48 346.043 48 240S133.963 48 240 48S432 133.957 432 240zM1012.8 240A100.8 100.8 0 1 0 912 340.8A100.812 100.812 0 0 0 1012.8 240zM139.1999999999999 240A100.8 100.8 0 1 0 240 139.2000000000001A100.807 100.807 0 0 0 139.2 240z" />
    <glyph glyph-name="Breakdown"
      unicode="&#xEA45;"
      horiz-adv-x="1152" d=" M984 912A24 24 0 0 1 1008 936V1080A24 24 0 0 1 984 1104H120A24 24 0 0 1 96 1080V936A24 24 0 0 1 120 912H288V96A48 48 0 0 1 336 48H984A24 24 0 0 1 1008 72V168A24 24 0 0 1 984 192H384V288H984A24 24 0 0 1 1008 312V408A24 24 0 0 1 984 432H384V528H984A24 24 0 0 1 1008 552V648A24 24 0 0 1 984 672H384V912H984z" />
    <glyph glyph-name="BreakdownAdd"
      unicode="&#xEA46;"
      horiz-adv-x="1152" d=" M864 573.6C706.267 573.6 578.4 445.7330000000001 578.4 288S706.2669999999999 2.4000000000001 864 2.4000000000001S1149.6 130.2710000000001 1149.6 288.0000000000001S1021.733 573.6 864 573.6zM1056 252A12 12 0 0 0 1044 240H912V108A12 12 0 0 0 900 96H828A12 12 0 0 0 816 108V240H684A12 12 0 0 0 672 252V324A12 12 0 0 0 684 336H816V468A12 12 0 0 0 828 480H900A12 12 0 0 0 912 468V336H1044A12 12 0 0 0 1056 324V252z M495.059 192H336V288H482.4A380.191 380.191 0 0 0 510.724 432H336V528H567.492C637.453 614.326 744.223 669.6 864 669.6A380.909 380.909 0 0 0 958.043 657.4390000000001A23.992 23.992 0 0 1 936 672H336V912H936A24 24 0 0 1 960 936V1080A24 24 0 0 1 936 1104H72A24 24 0 0 1 48 1080V936A24 24 0 0 1 72 912H240V96A48 48 0 0 1 288 48H567.492A380.167 380.167 0 0 0 495.059 192z" />
    <glyph glyph-name="Briefcase"
      unicode="&#xEA47;"
      horiz-adv-x="1152" d=" M672 576V504A24 24 0 0 0 648 480H504A24 24 0 0 0 480 504V576H0V192A48 48 0 0 1 48 144H1104A48 48 0 0 1 1152 192V576H672zM1104 864H864V960A96 96 0 0 1 768 1056H384A96 96 0 0 1 288 960V864H48A48 48 0 0 1 0 816V672H480V696A24 24 0 0 0 504 720H648A24 24 0 0 0 672 696V672H1152V816A48 48 0 0 1 1104 864zM384 960H768V864H384V960z" />
    <glyph glyph-name="Browse"
      unicode="&#xEA48;"
      horiz-adv-x="1152" d=" M1125.844 473.994L1126.008 474.023S936.586 871.025 912 936C888.539 997.986 858.281 1056 792 1056C717.656 1056 679.031 1002.146 672 936C669.984 917.021 665.637 872.5 660.375 816H491.508C485.051 884.558 480.27 932.9 480 936C474.141 1003.318 447.223 1056 360 1056C293.719 1056 266.367 996.8 240 936C218.93 887.414 21.352 465.073 21.352 465.073L21.82 465A263.092 263.092 0 0 1 0 360C0 214.2000000000001 118.2 96 264 96S528 214.2000000000001 528 360C528 368.1 527.508 376.084 526.793 384H625.207C624.492 376.084 624 368.1 624 360C624 214.2000000000001 742.2 96 888 96S1152 214.2000000000001 1152 360A262.432 262.432 0 0 1 1125.844 473.994zM264 187.2000000000001A172.8 172.8 0 1 0 436.8 360A172.8 172.8 0 0 0 264 187.2000000000001zM888 187.2000000000001A172.8 172.8 0 1 0 1060.8 360A172.8 172.8 0 0 0 888 187.2000000000001z" />
    <glyph glyph-name="Brush"
      unicode="&#xEA49;"
      horiz-adv-x="1152" d=" M399.539 506.655C346.974 510.571 294.713 491.761 255.293 454.1329999999999C215.033 411.5329999999999 199.293 361.4749999999999 184.077 313.065C163.077 246.285 143.24 183.2249999999999 57.805 142.49A24.02 24.02 0 0 1 64.132 97.1289999999999C83.372 93.8619999999999 105.423 91.0919999999999 129.403 89.3049999999998C215.812 82.8679999999999 378.511 85.5999999999999 496.953 175.6739999999999C540.898 207.7949999999999 568.353 256.4209999999998 572.284 309.1959999999999C579.824 410.4 502.332 499 399.539 506.655z M636.718 429.562C876.2379999999999 696.562 1148.911 1014.839 1082.25 1081.499S704.03 836.4 467.531 580.852A273.692 273.692 0 0 0 636.7180000000001 429.562z" />
    <glyph glyph-name="Bug"
      unicode="&#xEA4A;"
      horiz-adv-x="1152" d=" M838.219 920.259C779.637 999.378 695.508 1056 576 1056S372.363 999.378 313.781 920.259C382.488 855.809 474.586 816 576 816S769.512 855.809 838.219 920.259zM166.9 947.452L81.527 904.764A579.168 579.168 0 0 1 228.117 741.1320000000001A881.165 881.165 0 0 1 195.762 576H0V480H193.453C199.266 414.158 228.187 341.1330000000001 273.553 276.3690000000001A482.116 482.116 0 0 1 129.48 79.26L215.894 36.0599999999999C240.222 102.1599999999999 282.82 159.0419999999999 336.656 202.4599999999999C390.5 150.8439999999999 456.188 112.7369999999999 528 100.5349999999999V720.023C374.8830000000001 735.231 243.4 822.642 166.9 947.452zM1152 480V576H956.238A881.165 881.165 0 0 1 923.883 741.1320000000001A579.168 579.168 0 0 1 1070.473 904.764L985.1 947.452C908.6 822.642 777.117 735.231 624 720.023V100.5349999999999C695.813 112.7349999999999 761.5 150.8439999999998 815.344 202.4559999999999C869.192 159.0379999999999 911.778 102.156 936.106 36.0559999999998L1022.52 79.2559999999999A482.116 482.116 0 0 1 878.45 276.3649999999999C923.8130000000002 341.1289999999999 952.735 414.1539999999999 958.55 479.9959999999999H1152z" />
    <glyph glyph-name="Building"
      unicode="&#xEA4B;"
      horiz-adv-x="1152" d=" M96 1008V144A48 48 0 0 1 144 96H480V360A24 24 0 0 0 504 384H648A24 24 0 0 0 672 360V96H1008A48 48 0 0 1 1056 144V1008A48 48 0 0 1 1008 1056H144A48 48 0 0 1 96 1008zM384 288H192V384H384V288zM384 480H192V576H384V480zM384 672H192V768H384V672zM384 864H192V960H384V864zM672 480H480V576H672V480zM672 672H480V768H672V672zM672 864H480V960H672V864zM960 288H768V384H960V288zM960 480H768V576H960V480zM960 672H768V768H960V672zM960 864H768V960H960V864z" />
    <glyph glyph-name="Button"
      unicode="&#xEA4C;"
      horiz-adv-x="1152" d=" M865.44 770.4C971.84 770.4 1058.4 683.193 1058.4 576S971.8370000000002 381.6 865.44 381.6H286.56C180.163 381.6 93.6 468.807 93.6 576S180.163 770.4 286.56 770.4H865.44zM864 864H288C128.941 864 0 735.059 0 576S128.941 288 288 288H864C1023.059 288 1152 416.9410000000001 1152 576S1023.059 864 864 864z M862.4 717.6H289.6C210.518 717.6 146.4 654.2 146.4 576S210.518 434.4 289.6 434.4H862.4C941.482 434.4 1005.6 497.8 1005.6 576S941.482 717.6 862.3999999999999 717.6z" />
    <glyph glyph-name="Calculator"
      unicode="&#xEA4D;"
      horiz-adv-x="1152" d=" M960 1056H192A48 48 0 0 1 144 1008V144A48 48 0 0 1 192 96H960A48 48 0 0 1 1008 144V1008A48 48 0 0 1 960 1056zM336 204A12 12 0 0 0 324 192H252A12 12 0 0 0 240 204V276A12 12 0 0 0 252 288H324A12 12 0 0 0 336 276V204zM336 396A12 12 0 0 0 324 384H252A12 12 0 0 0 240 396V468A12 12 0 0 0 252 480H324A12 12 0 0 0 336 468V396zM336 588A12 12 0 0 0 324 576H252A12 12 0 0 0 240 588V660A12 12 0 0 0 252 672H324A12 12 0 0 0 336 660V588zM528 204A12 12 0 0 0 516 192H444A12 12 0 0 0 432 204V276A12 12 0 0 0 444 288H516A12 12 0 0 0 528 276V204zM528 396A12 12 0 0 0 516 384H444A12 12 0 0 0 432 396V468A12 12 0 0 0 444 480H516A12 12 0 0 0 528 468V396zM528 588A12 12 0 0 0 516 576H444A12 12 0 0 0 432 588V660A12 12 0 0 0 444 672H516A12 12 0 0 0 528 660V588zM720 204A12 12 0 0 0 708 192H636A12 12 0 0 0 624 204V276A12 12 0 0 0 636 288H708A12 12 0 0 0 720 276V204zM720 396A12 12 0 0 0 708 384H636A12 12 0 0 0 624 396V468A12 12 0 0 0 636 480H708A12 12 0 0 0 720 468V396zM720 588A12 12 0 0 0 708 576H636A12 12 0 0 0 624 588V660A12 12 0 0 0 636 672H708A12 12 0 0 0 720 660V588zM912 204A12 12 0 0 0 900 192H828A12 12 0 0 0 816 204V468A12 12 0 0 0 828 480H900A12 12 0 0 0 912 468V204zM912 588A12 12 0 0 0 900 576H828A12 12 0 0 0 816 588V660A12 12 0 0 0 828 672H900A12 12 0 0 0 912 660V588zM912 780A12 12 0 0 0 900 768H252A12 12 0 0 0 240 780V948A12 12 0 0 0 252 960H900A12 12 0 0 0 912 948V780z" />
    <glyph glyph-name="Calendar"
      unicode="&#xEA4E;"
      horiz-adv-x="1152" d=" M264 720H312A24 24 0 0 0 336 696V648A24 24 0 0 0 312 624H264A24 24 0 0 0 240 648V696A24 24 0 0 0 264 720z M456 720H504A24 24 0 0 0 528 696V648A24 24 0 0 0 504 624H456A24 24 0 0 0 432 648V696A24 24 0 0 0 456 720z M648 720H696A24 24 0 0 0 720 696V648A24 24 0 0 0 696 624H648A24 24 0 0 0 624 648V696A24 24 0 0 0 648 720z M840 720H888A24 24 0 0 0 912 696V648A24 24 0 0 0 888 624H840A24 24 0 0 0 816 648V696A24 24 0 0 0 840 720z M264 576H312A24 24 0 0 0 336 552V504A24 24 0 0 0 312 480H264A24 24 0 0 0 240 504V552A24 24 0 0 0 264 576z M456 576H504A24 24 0 0 0 528 552V504A24 24 0 0 0 504 480H456A24 24 0 0 0 432 504V552A24 24 0 0 0 456 576z M648 576H696A24 24 0 0 0 720 552V504A24 24 0 0 0 696 480H648A24 24 0 0 0 624 504V552A24 24 0 0 0 648 576z M840 576H888A24 24 0 0 0 912 552V504A24 24 0 0 0 888 480H840A24 24 0 0 0 816 504V552A24 24 0 0 0 840 576z M264 432H312A24 24 0 0 0 336 408V360A24 24 0 0 0 312 336H264A24 24 0 0 0 240 360V408A24 24 0 0 0 264 432z M456 432H504A24 24 0 0 0 528 408V360A24 24 0 0 0 504 336H456A24 24 0 0 0 432 360V408A24 24 0 0 0 456 432z M648 432H696A24 24 0 0 0 720 408V360A24 24 0 0 0 696 336H648A24 24 0 0 0 624 360V408A24 24 0 0 0 648 432z M840 432H888A24 24 0 0 0 912 408V360A24 24 0 0 0 888 336H840A24 24 0 0 0 816 360V408A24 24 0 0 0 840 432z M1080 960H912V1032A24 24 0 0 1 888 1056H840A24 24 0 0 1 816 1032V960H336V1032A24 24 0 0 1 312 1056H264A24 24 0 0 1 240 1032V960H72A24 24 0 0 1 48 936V168A24 24 0 0 1 72 144H1080A24 24 0 0 1 1104 168V936A24 24 0 0 1 1080 960zM1008 240H144V864H240V840A24 24 0 0 1 264 816H312A24 24 0 0 1 336 840V864H816V840A24 24 0 0 1 840 816H888A24 24 0 0 1 912 840V864H1008V240z" />
    <glyph glyph-name="CalendarAdd"
      unicode="&#xEA4F;"
      horiz-adv-x="1152" d=" M264 720H312A24 24 0 0 0 336 696V648A24 24 0 0 0 312 624H264A24 24 0 0 0 240 648V696A24 24 0 0 0 264 720z M456 720H504A24 24 0 0 0 528 696V648A24 24 0 0 0 504 624H456A24 24 0 0 0 432 648V696A24 24 0 0 0 456 720z M648 720H696A24 24 0 0 0 720 696V648A24 24 0 0 0 696 624H648A24 24 0 0 0 624 648V696A24 24 0 0 0 648 720z M264 576H312A24 24 0 0 0 336 552V504A24 24 0 0 0 312 480H264A24 24 0 0 0 240 504V552A24 24 0 0 0 264 576z M456 576H504A24 24 0 0 0 528 552V504A24 24 0 0 0 504 480H456A24 24 0 0 0 432 504V552A24 24 0 0 0 456 576z M264 432H312A24 24 0 0 0 336 408V360A24 24 0 0 0 312 336H264A24 24 0 0 0 240 360V408A24 24 0 0 0 264 432z M456 432H504A24 24 0 0 0 528 408V360A24 24 0 0 0 504 336H456A24 24 0 0 0 432 360V408A24 24 0 0 0 456 432z M864 669.6A383.154 383.154 0 0 0 912 666.26V696A24 24 0 0 1 888 720H840A24 24 0 0 1 816 696V666.261A383.154 383.154 0 0 0 864 669.6z M485.742 240H144V864H240V840A24 24 0 0 1 264 816H312A24 24 0 0 1 336 840V864H816V840A24 24 0 0 1 840 816H888A24 24 0 0 1 912 840V864H1008V641.273A381.18 381.18 0 0 0 1104 584.5070000000001V936A24 24 0 0 1 1080 960H912V1032A24 24 0 0 1 888 1056H840A24 24 0 0 1 816 1032V960H336V1032A24 24 0 0 1 312 1056H264A24 24 0 0 1 240 1032V960H72A24 24 0 0 1 48 936V168A24 24 0 0 1 72 144H510.727A378.9 378.9 0 0 0 485.742 240z M864 573.6C706.267 573.6 578.4 445.7330000000001 578.4 288S706.2669999999999 2.4000000000001 864 2.4000000000001S1149.6 130.2710000000001 1149.6 288.0000000000001S1021.733 573.6 864 573.6zM1056 252A12 12 0 0 0 1044 240H912V108A12 12 0 0 0 900 96H828A12 12 0 0 0 816 108V240H684A12 12 0 0 0 672 252V324A12 12 0 0 0 684 336H816V468A12 12 0 0 0 828 480H900A12 12 0 0 0 912 468V336H1044A12 12 0 0 0 1056 324V252z" />
    <glyph glyph-name="CalendarLocked"
      unicode="&#xEA50;"
      horiz-adv-x="1152" d=" M1080 384.007H1056V432.007C1056 564.558 948.548 672.007 816 672.007S576 564.558 576 432.007V384.007H552A24 24 0 0 1 528 360.007V24.0070000000001A24 24 0 0 1 552 0.0070000000001H1080A24 24 0 0 1 1104 24.0070000000001V360.0070000000001A24 24 0 0 1 1080 384.0070000000001zM672 432.007A144 144 0 1 0 960 432.007V384.007H672V432.007zM864 186.6869999999999V120.0069999999998A24 24 0 0 0 840 96.0069999999998H792A24 24 0 0 0 768 120.0069999999998V186.6869999999999A72 72 0 1 0 864 186.6869999999999z M960 1008H816V1080A24 24 0 0 1 792 1104H744A24 24 0 0 1 720 1080V1008H336V1080A24 24 0 0 1 312 1104H264A24 24 0 0 1 240 1080V1008H96A48 48 0 0 1 48 960V336A48 48 0 0 1 96 288H432V360.012A118.759 118.759 0 0 0 434.9 384H144V912H240V888A24 24 0 0 1 264 864H312A24 24 0 0 1 336 888V912H720V888A24 24 0 0 1 744 864H792A24 24 0 0 1 816 888V912H912V754.02A334.317 334.317 0 0 0 1008 707.18V960A48 48 0 0 1 960 1008z" />
    </font>
</defs>
</svg>
