<svg xmlns="http://www.w3.org/2000/svg" width="160" height="120" viewBox="0 0 160 120"><title>S_Illu404Error_160x120</title><path d="M141.5,16.5H23.5A3.50424,3.50424,0,0,0,20,20V47a1.5,1.5,0,0,0,3,0V31.5H142V100a.501.501,0,0,1-.5.5H23.5a.501.501,0,0,1-.5-.5V77a1.5,1.5,0,0,0-3,0v23a3.50424,3.50424,0,0,0,3.5,3.5h118A3.50424,3.50424,0,0,0,145,100V20A3.50424,3.50424,0,0,0,141.5,16.5ZM23,29.5V20a.501.501,0,0,1,.5-.5h118a.501.501,0,0,1,.5.5v9.5Z" style="fill:#b3b3b3"/><path d="M39,23.5H29a1,1,0,0,0,0,2H39a1,1,0,0,0,0-2Z" style="fill:#b3b3b3"/><path d="M29.69531,72.69238a1.49984,1.49984,0,0,0,2.1211-2.12109l-8.5503-8.54981,8.5503-8.5498a1.49984,1.49984,0,0,0-2.1211-2.12109L21.145,59.90039l-8.55029-8.5498a1.49984,1.49984,0,0,0-2.1211,2.12109l8.5503,8.5498-8.5503,8.54981a1.49984,1.49984,0,1,0,2.1211,2.12109l8.55029-8.5498Z" style="fill:#b3b3b3"/></svg>
