<svg xmlns="http://www.w3.org/2000/svg" xmlns:xlink="http://www.w3.org/1999/xlink">
  <symbol id="spectrum-css-icon-Add100" viewBox="0 0 10 10">
    <path fill="var(--iconPrimary, #222)" stroke-width="0" d="M8.5 4H6V1.5a1 1 0 1 0-2 0V4H1.5a1 1 0 1 0 0 2H4v2.5a1 1 0 1 0 2 0V6h2.5a1 1 0 1 0 0-2"/>
  </symbol>
  <symbol id="spectrum-css-icon-Add200" viewBox="0 0 12 12">
    <path fill="var(--iconPrimary, #222)" stroke-width="0" d="M10.021 4.959h-2.98v-2.98a1.04 1.04 0 1 0-2.082 0v2.98h-2.98a1.04 1.04 0 1 0 0 2.082h2.98v2.98a1.04 1.04 0 1 0 2.082 0v-2.98h2.98a1.04 1.04 0 1 0 0-2.082"/>
  </symbol>
  <symbol id="spectrum-css-icon-Add300" viewBox="0 0 12 12">
    <path fill="var(--iconPrimary, #222)" stroke-width="0" d="M10.61 4.915H7.085V1.39a1.084 1.084 0 1 0-2.17 0v3.525H1.39a1.084 1.084 0 1 0 0 2.17h3.525v3.525a1.084 1.084 0 1 0 2.17 0V7.085h3.525a1.084 1.084 0 1 0 0-2.17"/>
  </symbol>
  <symbol id="spectrum-css-icon-Add50" viewBox="0 0 8 8">
    <path fill="var(--iconPrimary, #222)" stroke-width="0" d="M6.625 3.078H4.922V1.375a.922.922 0 0 0-1.844 0v1.703H1.375a.922.922 0 0 0 0 1.844h1.703v1.703a.922.922 0 0 0 1.844 0V4.922h1.703a.922.922 0 0 0 0-1.844"/>
  </symbol>
  <symbol id="spectrum-css-icon-Add75" viewBox="0 0 8 8">
    <path fill="var(--iconPrimary, #222)" stroke-width="0" d="M7 3.04H4.96V1a.96.96 0 1 0-1.92 0v2.04H1a.96.96 0 1 0 0 1.92h2.04V7a.96.96 0 1 0 1.92 0V4.96H7a.96.96 0 1 0 0-1.92"/>
  </symbol>
  <symbol id="spectrum-css-icon-Arrow100" viewBox="0 0 10 10">
    <path fill="var(--iconPrimary, #222)" d="M9.95 4.997c0-.052-.02-.102-.03-.153-.01-.058-.013-.118-.035-.173l-.003-.009a.8.8 0 0 0-.136-.203c-.018-.023-.026-.05-.047-.072l-.005-.005V4.38l-3.07-3.12a.875.875 0 1 0-1.248 1.227l1.61 1.637H.926a.875.875 0 1 0 0 1.75h6.062L5.376 7.512a.875.875 0 1 0 1.248 1.226l3.07-3.119.005-.006c.021-.021.029-.049.047-.072a.8.8 0 0 0 .136-.203l.003-.009c.022-.055.024-.115.035-.173.01-.051.03-.1.03-.153z"/>
  </symbol>
  <symbol id="spectrum-css-icon-Arrow400" viewBox="0 0 16 16">
    <path fill="var(--iconPrimary, #222)" d="M14.786 8.378a.99.99 0 0 0-.214-1.078l-4.63-4.63a.988.988 0 1 0-1.399 1.398l2.942 2.943H1.87a.99.99 0 0 0 0 1.978h9.615l-2.942 2.943a.989.989 0 1 0 1.398 1.398l4.63-4.63a1 1 0 0 0 .215-.322"/>
  </symbol>
  <symbol id="spectrum-css-icon-Asterisk100" viewBox="0 0 8 8">
    <path id="spectrum-css-icon-e" fill="var(--iconPrimary, #222)" d="M6.575 6.555c.055.056.092.13 0 .2l-1.149.741c-.092.056-.129.019-.166-.074L3.834 4.94 1.963 7c-.019.036-.074.073-.129 0l-.889-.927c-.093-.055-.074-.111 0-.166l2.111-1.76L.648 3.24c-.037 0-.092-.074-.056-.167l.63-1.259a.1.1 0 0 1 .121-.066.1.1 0 0 1 .046.03L3.5 3.148l.13-2.7a.1.1 0 0 1 .081-.11h.03l1.537.2c.093 0 .111.036.093.13l-.723 2.646 2.445-.741c.055-.037.111-.037.148.074l.241 1.37c.018.093 0 .13-.074.13l-2.556.2z" data-name="Shape"/>
  </symbol>
  <symbol id="spectrum-css-icon-Asterisk200" viewBox="0 0 10 10">
    <path id="spectrum-css-icon-e" fill="var(--iconPrimary, #222)" d="M7.861 7.953c.062.063.1.146 0 .23l-1.293.834c-.1.063-.145.021-.187-.083l-1.6-2.793-2.105 2.314c-.021.04-.083.082-.145 0l-1-1.043c-.1-.062-.083-.125 0-.187l2.375-1.981-2.715-1.026c-.042 0-.1-.083-.063-.188l.707-1.412a.11.11 0 0 1 .136-.074q.03.01.052.034l2.378 1.54.146-3.043A.11.11 0 0 1 4.638.95h.034l1.73.23c.1 0 .125.042.1.146l-.814 2.979 2.751-.834c.062-.042.125-.042.167.083l.271 1.542c.02.1 0 .146-.083.146l-2.876.23z" data-name="Shape"/>
  </symbol>
  <symbol id="spectrum-css-icon-Asterisk300" viewBox="0 0 10 10">
    <path id="spectrum-css-icon-e" fill="var(--iconPrimary, #222)" d="M8.266 8.324c.07.071.116.164 0 .258l-1.454.938c-.116.071-.163.024-.21-.094l-1.8-3.141-2.367 2.6c-.024.045-.094.092-.163 0l-1.13-1.167c-.118-.07-.094-.141 0-.21l2.671-2.227L.766 4.13c-.047 0-.116-.094-.071-.211l.8-1.593a.124.124 0 0 1 .153-.084.13.13 0 0 1 .058.038l2.669 1.738.164-3.422a.124.124 0 0 1 .1-.14h.038l1.945.258c.118 0 .14.047.118.164l-.915 3.349 3.094-.938c.07-.047.14-.047.187.094l.3 1.734c.023.118 0 .164-.094.164l-3.234.258z" data-name="Shape"/>
  </symbol>
  <symbol id="spectrum-css-icon-Checkmark100" viewBox="0 0 10 10">
    <path fill="var(--iconPrimary, #222)" d="M3.5 9.503a1 1 0 0 1-.774-.367l-2.45-3A1 1 0 1 1 1.823 4.87L3.481 6.9 8.161.888a1 1 0 0 1 1.579 1.23l-5.45 7a1 1 0 0 1-.777.385z"/>
  </symbol>
  <symbol id="spectrum-css-icon-Checkmark200" viewBox="0 0 12 12">
    <path fill="var(--iconPrimary, #222)" d="M4.313 10.98c-.308 0-.602-.137-.8-.375L.648 7.165a1.042 1.042 0 0 1 1.6-1.334L4.29 8.283l5.442-6.93a1.043 1.043 0 0 1 1.64 1.288l-6.24 7.941a1.04 1.04 0 0 1-.804.397z"/>
  </symbol>
  <symbol id="spectrum-css-icon-Checkmark300" viewBox="0 0 14 14">
    <path fill="var(--iconPrimary, #222)" d="M5.102 12.517c-.322 0-.627-.143-.833-.391L.989 8.191a1.083 1.083 0 0 1 .139-1.527 1.08 1.08 0 0 1 1.527.139l2.422 2.904 6.243-7.946a1.086 1.086 0 0 1 1.707 1.34l-7.072 9a1.09 1.09 0 0 1-.838.416z"/>
  </symbol>
  <symbol id="spectrum-css-icon-Checkmark400" viewBox="0 0 16 16">
    <path fill="var(--iconPrimary, #222)" d="M5.864 14.115c-.335 0-.653-.15-.868-.407L1.25 9.21a1.13 1.13 0 1 1 1.736-1.447l2.854 3.424 7.148-9.1a1.13 1.13 0 1 1 1.777 1.396l-8.011 10.2a1.13 1.13 0 0 1-.872.432z"/>
  </symbol>
  <symbol id="spectrum-css-icon-Checkmark50" viewBox="0 0 10 10">
    <path fill="var(--iconPrimary, #222)" d="M3.815 8.69a.92.92 0 0 1-.708-.333L1.216 6.09a.922.922 0 0 1 1.416-1.18l1.162 1.394 3.56-4.532a.92.92 0 1 1 1.45 1.14L4.54 8.336a.92.92 0 0 1-.712.352z"/>
  </symbol>
  <symbol id="spectrum-css-icon-Checkmark75" viewBox="0 0 10 10">
    <path fill="var(--iconPrimary, #222)" d="M3.667 9.074a.96.96 0 0 1-.737-.345L.753 6.116a.96.96 0 1 1 1.474-1.228l1.418 1.7 4.112-5.233a.96.96 0 1 1 1.51 1.186L4.422 8.707a.96.96 0 0 1-.741.367z"/>
  </symbol>
  <symbol id="spectrum-css-icon-Chevron100" viewBox="0 0 10 10">
    <path fill="var(--iconPrimary, #222)" d="M7.965 5.178C7.978 5.118 8 5.061 8 5s-.021-.118-.034-.178c-.01-.05-.01-.102-.03-.15-.023-.058-.068-.107-.104-.16-.03-.042-.047-.09-.084-.127l-.004-.003-.003-.004L3.615.303a.875.875 0 1 0-1.23 1.244L5.88 5 2.385 8.453a.875.875 0 1 0 1.23 1.244L7.74 5.622l.003-.004.004-.003c.037-.038.055-.085.084-.127.036-.053.08-.102.104-.16.02-.048.02-.1.03-.15"/>
  </symbol>
  <symbol id="spectrum-css-icon-Chevron200" viewBox="0 0 12 12">
    <path fill="var(--iconPrimary, #222)" d="M9.301 6c0-.049-.02-.095-.028-.143-.01-.068-.013-.136-.039-.2a.9.9 0 0 0-.2-.302L4.343.663a.912.912 0 0 0-1.29 1.29L7.102 6l-4.047 4.048a.912.912 0 0 0 1.289 1.289l4.691-4.692a.9.9 0 0 0 .2-.302c.026-.064.028-.132.04-.2C9.28 6.095 9.3 6.05 9.3 6"/>
  </symbol>
  <symbol id="spectrum-css-icon-Chevron300" viewBox="0 0 14 14">
    <path fill="var(--iconPrimary, #222)" d="M10.361 6.328 5.03.996a.954.954 0 0 0-1.343 0 .95.95 0 0 0 0 1.344L8.346 7l-4.66 4.66a.95.95 0 0 0 1.344 1.344l5.331-5.332a.95.95 0 0 0 0-1.344"/>
  </symbol>
  <symbol id="spectrum-css-icon-Chevron400" viewBox="0 0 16 16">
    <path fill="var(--iconPrimary, #222)" d="M11.726 7.3 5.67 1.247a.988.988 0 1 0-1.4 1.398L9.628 8 4.27 13.355a.988.988 0 1 0 1.399 1.399l6.056-6.055a.99.99 0 0 0 0-1.398"/>
  </symbol>
  <symbol id="spectrum-css-icon-Chevron50" viewBox="0 0 6 6">
    <path fill="var(--iconPrimary, #222)" d="M1.985 5.961a.695.695 0 0 1-.7-.704.7.7 0 0 1 .209-.493L3.279 3 1.51 1.251A.7.7 0 0 1 1.3.757.696.696 0 0 1 2.492.255l2.275 2.247a.7.7 0 0 1 0 .996L2.477 5.76a.7.7 0 0 1-.492.201"/>
  </symbol>
  <symbol id="spectrum-css-icon-Chevron75" viewBox="0 0 10 10">
    <path fill="var(--iconPrimary, #222)" d="M7.483 4.406 3.86.783a.84.84 0 1 0-1.188 1.188L5.702 5l-3.03 3.03A.84.84 0 1 0 3.86 9.216l3.623-3.623a.84.84 0 0 0 0-1.188"/>
  </symbol>
  <symbol id="spectrum-css-icon-CornerTriangle100" viewBox="0 0 5 5">
    <path fill="var(--iconPrimary, #222)" d="M.154 4.146 4.147.154A.5.5 0 0 1 5 .507V4.25a.75.75 0 0 1-.75.75H.507a.5.5 0 0 1-.354-.854"/>
  </symbol>
  <symbol id="spectrum-css-icon-CornerTriangle200" viewBox="0 0 6 6">
    <path fill="var(--iconPrimary, #222)" d="M.826 5.146 5.147.826a.5.5 0 0 1 .854.353L6 5.25a.75.75 0 0 1-.75.75H1.18a.5.5 0 0 1-.354-.854"/>
  </symbol>
  <symbol id="spectrum-css-icon-CornerTriangle300" viewBox="0 0 7 7">
    <path fill="var(--iconPrimary, #222)" stroke-width="0" d="M.821 6.146 6.147.821A.5.5 0 0 1 7 1.175L6.999 6.25a.75.75 0 0 1-.75.75H1.174a.5.5 0 0 1-.353-.854"/>
  </symbol>
  <symbol id="spectrum-css-icon-CornerTriangle75" viewBox="0 0 5 5">
    <path fill="var(--iconPrimary, #222)" d="M.764 4.488 4.489.762a.3.3 0 0 1 .513.212L5 4.25a.75.75 0 0 1-.75.75H.976a.3.3 0 0 1-.212-.512"/>
  </symbol>
  <symbol id="spectrum-css-icon-Cross100" viewBox="0 0 8 8">
    <path fill="var(--iconPrimary, #222)" d="m5.238 4 2.456-2.456A.876.876 0 0 0 6.457.306L4 2.762 1.543.306A.875.875 0 1 0 .306 1.544L2.762 4 .306 6.456a.876.876 0 0 0 1.237 1.238L4 5.238l2.457 2.456a.87.87 0 0 0 1.237 0 .876.876 0 0 0 0-1.238z"/>
  </symbol>
  <symbol id="spectrum-css-icon-Cross200" viewBox="0 0 10 10">
    <path fill="var(--iconPrimary, #222)" d="m6.289 5 2.922-2.923A.912.912 0 0 0 7.922.788L5 3.711 2.078.788a.912.912 0 0 0-1.29 1.29L3.712 5 .789 7.923a.912.912 0 0 0 1.289 1.289L5 6.289l2.922 2.923a.91.91 0 0 0 1.29 0 .91.91 0 0 0 0-1.29z"/>
  </symbol>
  <symbol id="spectrum-css-icon-Cross300" viewBox="0 0 12 12">
    <path fill="var(--iconPrimary, #222)" d="m7.342 6 3.396-3.396a.95.95 0 1 0-1.342-1.342L6 4.658 2.604 1.262a.95.95 0 1 0-1.343 1.342L4.659 6 1.262 9.396a.95.95 0 1 0 1.343 1.342L6 7.342l3.396 3.396a.946.946 0 0 0 1.342.001.95.95 0 0 0 0-1.343z"/>
  </symbol>
  <symbol id="spectrum-css-icon-Cross400" viewBox="0 0 12 12">
    <path fill="var(--iconPrimary, #222)" d="m7.398 6 3.932-3.932A.989.989 0 1 0 9.932.67L6 4.602 2.068.67A.988.988 0 1 0 .67 2.068L4.602 6 .67 9.932a.989.989 0 1 0 1.398 1.398L6 7.398l3.932 3.932a.985.985 0 0 0 1.398 0 .99.99 0 0 0 0-1.398z"/>
  </symbol>
  <symbol id="spectrum-css-icon-Cross500" viewBox="0 0 14 14">
    <path fill="var(--iconPrimary, #222)" d="m8.457 7 4.54-4.54a1.031 1.031 0 0 0-1.457-1.456L7 5.543l-4.54-4.54a1.03 1.03 0 0 0-1.457 1.458L5.543 7l-4.54 4.54a1.031 1.031 0 0 0 1.457 1.456L7 8.457l4.54 4.54a1.027 1.027 0 0 0 1.457 0 1.03 1.03 0 0 0 0-1.458z"/>
  </symbol>
  <symbol id="spectrum-css-icon-Cross600" viewBox="0 0 16 16">
    <path fill="var(--iconPrimary, #222)" d="m9.518 8 5.23-5.229a1.073 1.073 0 0 0-1.519-1.517L8 6.483l-5.229-5.23a1.073 1.073 0 0 0-1.518 1.518l5.23 5.23-5.23 5.228a1.073 1.073 0 0 0 1.518 1.518l5.23-5.229 5.228 5.23a1.073 1.073 0 1 0 1.518-1.519z"/>
  </symbol>
  <symbol id="spectrum-css-icon-Cross75" viewBox="0 0 8 8">
    <path fill="var(--iconPrimary, #222)" d="m5.188 4 2.14-2.14A.84.84 0 0 0 6.14.671L4 2.812 1.86.672A.84.84 0 0 0 .672 1.859L2.812 4 .672 6.14A.84.84 0 0 0 1.86 7.329L4 5.188l2.14 2.14a.84.84 0 0 0 1.188 0 .84.84 0 0 0 0-1.187z"/>
  </symbol>
  <symbol id="spectrum-css-icon-Dash100" viewBox="0 0 10 10">
    <path fill="var(--iconPrimary, #222)" d="M8.5 6h-7a1 1 0 1 1 0-2h7a1 1 0 1 1 0 2"/>
  </symbol>
  <symbol id="spectrum-css-icon-Dash200" viewBox="0 0 12 12">
    <path fill="var(--iconPrimary, #222)" d="M10.021 7.041H1.98a1.04 1.04 0 1 1 0-2.082h8.042a1.04 1.04 0 1 1 0 2.082"/>
  </symbol>
  <symbol id="spectrum-css-icon-Dash300" viewBox="0 0 12 12">
    <path fill="var(--iconPrimary, #222)" stroke-width="0" d="M10.61 7.085H1.39a1.084 1.084 0 1 1 0-2.17h9.22a1.084 1.084 0 1 1 0 2.17"/>
  </symbol>
  <symbol id="spectrum-css-icon-Dash50" viewBox="0 0 8 8">
    <path fill="var(--iconPrimary, #222)" stroke-width="0" d="M6.634 4.922H1.366a.922.922 0 0 1 0-1.844h5.268a.922.922 0 0 1 0 1.844"/>
  </symbol>
  <symbol id="spectrum-css-icon-Dash75" viewBox="0 0 8 8">
    <path fill="var(--iconPrimary, #222)" d="M6.99 4.96H1.01a.96.96 0 1 1 0-1.92h5.98a.96.96 0 1 1 0 1.92"/>
  </symbol>
  <symbol id="spectrum-css-icon-LinkOut100" viewBox="0 0 10 10">
    <path fill="var(--iconPrimary, #222)" stroke-width="0" d="M8.125 1H3.741a.875.875 0 1 0 0 1.75h2.27l-4.88 4.88a.88.88 0 0 0 0 1.24.873.873 0 0 0 1.238 0L7.25 3.987v2.27a.875.875 0 1 0 1.75 0V1.876A.875.875 0 0 0 8.125 1"/>
  </symbol>
  <symbol id="spectrum-css-icon-LinkOut200" viewBox="0 0 12 12">
    <path fill="var(--iconPrimary, #222)" stroke-width="0" d="M10.089 1h-5.51a.911.911 0 0 0 0 1.822h3.31L1.355 9.355a.91.91 0 1 0 1.29 1.29L9.178 4.11v3.31a.911.911 0 0 0 1.822 0V1.91a.91.91 0 0 0-.911-.91"/>
  </symbol>
  <symbol id="spectrum-css-icon-LinkOut300" viewBox="0 0 14 14">
    <path fill="var(--iconPrimary, #222)" stroke-width="0" d="M12.05 1H5.164a.949.949 0 1 0 0 1.898h4.595l-8.18 8.18a.95.95 0 0 0 1.344 1.344l8.18-8.18v4.595a.949.949 0 1 0 1.898 0V1.949A.95.95 0 0 0 12.05 1"/>
  </symbol>
  <symbol id="spectrum-css-icon-LinkOut400" viewBox="0 0 16 16">
    <path fill="var(--iconPrimary, #222)" stroke-width="0" d="M14.01 1h-8a.99.99 0 0 0 0 1.979h5.613L1.551 13.05a.988.988 0 1 0 1.398 1.398L13.021 4.377v5.612a.99.99 0 0 0 1.979 0v-8A.99.99 0 0 0 14.01 1"/>
  </symbol>
</svg>
