<svg xmlns="http://www.w3.org/2000/svg" id="AlertSmall"><path d="M8.564 1.289L.2 16.256A.5.5 0 00.636 17h16.728a.5.5 0 00.436-.744L9.436 1.289a.5.5 0 00-.872 0zM10 14.75a.25.25 0 01-.25.25h-1.5a.25.25 0 01-.25-.25v-1.5a.25.25 0 01.25-.25h1.5a.25.25 0 01.25.25zm0-3a.25.25 0 01-.25.25h-1.5a.25.25 0 01-.25-.25v-6a.25.25 0 01.25-.25h1.5a.25.25 0 01.25.25z" class="spectrum-UIIcon--large"/><path d="M6.66 1.003L.157 12.643a.389.389 0 00.339.58h13.01a.389.389 0 00.34-.58L7.338 1.004a.389.389 0 00-.678 0zm1.118 10.47a.194.194 0 01-.195.194H6.417a.194.194 0 01-.195-.195v-1.166a.194.194 0 01.195-.195h1.166a.194.194 0 01.195.195zm0-2.334a.194.194 0 01-.195.194H6.417a.194.194 0 01-.195-.194V4.472a.194.194 0 01.195-.194h1.166a.194.194 0 01.195.194z" class="spectrum-UIIcon--medium"/></svg>