<svg xmlns="http://www.w3.org/2000/svg" id="Asterisk"><path d="M7.867 7.872c.061.062.103.145 0 .228l-1.283.827c-.104.061-.145.02-.186-.083L4.804 6.07l-2.09 2.297c-.021.042-.083.083-.145 0l-.994-1.035c-.103-.062-.082-.124 0-.186l2.36-1.966-2.691-1.014c-.042 0-.104-.083-.062-.186l.703-1.41a.11.11 0 01.187-.04L4.43 4.06l.145-3.02A.109.109 0 014.7.917l1.718.227c.104 0 .124.042.104.145l-.808 2.96 2.734-.828c.061-.042.124-.042.165.082l.27 1.532c.02.103 0 .145-.084.145l-2.856.227z" class="spectrum-UIIcon--large"/><path d="M6.573 6.558c.056.055.092.13 0 .204l-1.148.74c-.093.056-.13.02-.167-.073L3.832 4.947l-1.87 2.055c-.02.037-.075.074-.13 0l-.889-.926c-.092-.055-.074-.111 0-.167l2.111-1.76-2.408-.906c-.037 0-.092-.074-.055-.167l.63-1.259a.097.097 0 01.166-.036l2.111 1.37.13-2.704a.097.097 0 01.111-.11L5.277.54c.092 0 .11.037.092.13l-.722 2.647 2.444-.74c.056-.038.111-.038.148.073l.241 1.37c.019.093 0 .13-.074.13l-2.556.204z" class="spectrum-UIIcon--medium"/></svg>