<svg xmlns="http://www.w3.org/2000/svg" id="CrossSmall"><path d="M9.317 8.433L5.884 5l3.433-3.433a.625.625 0 10-.884-.884L5 4.116 1.567.683a.625.625 0 10-.884.884C.83 1.713 2.77 3.657 4.116 5L.683 8.433a.625.625 0 10.884.884L5 5.884l3.433 3.433a.625.625 0 00.884-.884z" class="spectrum-UIIcon--large"/><path d="M7.317 6.433L4.884 4l2.433-2.433a.625.625 0 10-.884-.884L4 3.116 1.567.683a.625.625 0 10-.884.884L3.116 4 .683 6.433a.625.625 0 10.884.884L4 4.884l2.433 2.433a.625.625 0 00.884-.884z" class="spectrum-UIIcon--medium"/></svg>