<svg xmlns="http://www.w3.org/2000/svg" id="HelpSmall"><path d="M9 1a8 8 0 108 8 8 8 0 00-8-8zm.023 13.438a1.345 1.345 0 01-.104-2.688q.052-.002.104 0a1.31 1.31 0 011.397 1.217q.004.059.003.118a1.291 1.291 0 01-1.4 1.353zm1.783-6.409l-.1.1c-.395.414-.842.884-.842 1.175a1.386 1.386 0 00.179.674l.073.139-.057.215a.308.308 0 01-.284.189H8.436a.434.434 0 01-.325-.117 2.056 2.056 0 01-.422-1.262A3.058 3.058 0 018.8 7.071c.1-.11.2-.21.288-.3.314-.325.507-.535.507-.758 0-.154 0-.622-.893-.622a2.958 2.958 0 00-1.58.459.3.3 0 01-.327-.01l-.118-.085-.028-.225V4.081a.44.44 0 01.2-.41A4.135 4.135 0 019 3.119a2.552 2.552 0 012.751 2.636 3.067 3.067 0 01-.944 2.274z" class="spectrum-UIIcon--large"/><path d="M7 .778A6.222 6.222 0 1013.222 7 6.222 6.222 0 007 .778zm.018 10.452a1.046 1.046 0 11-.08-2.091q.04-.002.08 0a1.019 1.019 0 011.087.946q.003.046.002.092a1.004 1.004 0 01-1.09 1.053zm1.387-4.985l-.078.078c-.307.322-.655.687-.655.913a1.078 1.078 0 00.14.525l.056.108-.044.167a.24.24 0 01-.221.147H6.56a.338.338 0 01-.252-.091 1.6 1.6 0 01-.329-.982 2.378 2.378 0 01.864-1.61c.078-.086.156-.164.224-.234.245-.252.395-.416.395-.59 0-.119 0-.483-.695-.483a2.3 2.3 0 00-1.229.357.233.233 0 01-.254-.008l-.092-.066-.022-.175V3.174a.342.342 0 01.156-.319A3.216 3.216 0 017 2.425a1.985 1.985 0 012.14 2.051 2.385 2.385 0 01-.735 1.769z" class="spectrum-UIIcon--medium"/></svg>