<svg xmlns="http://www.w3.org/2000/svg" id="SkipRight"><path d="M9 .01a1 1 0 00-1 1v9.98a1 1 0 102 0V1.01a1 1 0 00-1-1zM7 6a.997.997 0 00-.293-.707L1.717.303A1 1 0 10.303 1.717L4.586 6 .303 10.283a1 1 0 101.414 1.414l4.99-4.99A.997.997 0 007 6z" class="spectrum-UIIcon--large"/><path d="M8 .01a1 1 0 00-1 1v7.98a1 1 0 102 0V1.01a1 1 0 00-1-1zM6 5a.997.997 0 00-.293-.707L1.717.303A1 1 0 10.303 1.717L3.586 5 .303 8.283a1 1 0 101.414 1.414l3.99-3.99A.997.997 0 006 5z" class="spectrum-UIIcon--medium"/></svg>