<svg xmlns="http://www.w3.org/2000/svg" id="Star"><path d="M11.361 1.68l2.259 5.975a.257.257 0 00.228.166l6.381.3a.386.386 0 01.223.686L15.467 12.8a.257.257 0 00-.087.268l1.684 6.162a.386.386 0 01-.584.424l-5.34-3.506a.257.257 0 00-.282 0l-5.34 3.506a.386.386 0 01-.584-.424l1.686-6.158a.257.257 0 00-.087-.268L1.548 8.809a.386.386 0 01.223-.686l6.381-.3a.257.257 0 00.228-.166l2.259-5.977a.386.386 0 01.722 0z" class="spectrum-UIIcon--large"/><path d="M9.241.3l2.161 5.715 6.106.289a.255.255 0 01.147.454l-4.77 3.823 1.612 5.9a.255.255 0 01-.386.28L9.002 13.4l-5.11 3.358a.255.255 0 01-.386-.28l1.612-5.9-4.77-3.821A.255.255 0 01.495 6.3l6.107-.285L8.763.3a.255.255 0 01.478 0z" class="spectrum-UIIcon--medium"/></svg>