<svg xmlns="http://www.w3.org/2000/svg" id="SuccessSmall"><path d="M9 1a8 8 0 108 8 8 8 0 00-8-8zm5.333 4.54l-6.324 8.13a.6.6 0 01-.437.23h-.037a.6.6 0 01-.425-.176l-3.893-3.9a.6.6 0 010-.849l.663-.663a.6.6 0 01.848 0L7.4 10.991l5.256-6.754a.6.6 0 01.843-.1l.728.566a.6.6 0 01.106.837z" class="spectrum-UIIcon--large"/><path d="M7 .778A6.222 6.222 0 1013.222 7 6.222 6.222 0 007 .778zm4.148 3.53l-4.919 6.324a.467.467 0 01-.34.18h-.028a.467.467 0 01-.331-.138L2.502 7.641a.467.467 0 010-.66l.516-.516a.467.467 0 01.66 0l2.078 2.084 4.088-5.254a.467.467 0 01.655-.078l.566.44a.467.467 0 01.083.652z" class="spectrum-UIIcon--medium"/></svg>