<svg xmlns="http://www.w3.org/2000/svg" height="18" viewBox="0 0 18 18" width="18"><path d="M9 1a8 8 0 1 0 8 8 8 8 0 0 0-8-8zm.023 13.438a1.345 1.345 0 0 1-.1-2.688h.1a1.31 1.31 0 0 1 1.4 1.217 1.162 1.162 0 0 1 0 .118A1.291 1.291 0 0 1 9.2 14.441a1.307 1.307 0 0 1-.177-.003zm1.783-6.409l-.1.1c-.395.414-.842.884-.842 1.175a1.386 1.386 0 0 0 .179.674l.073.139-.057.215a.309.309 0 0 1-.284.189H8.436a.433.433 0 0 1-.325-.117 2.054 2.054 0 0 1-.422-1.262A3.061 3.061 0 0 1 8.8 7.071c.1-.11.2-.21.288-.3.314-.325.507-.535.507-.758 0-.154 0-.622-.893-.622a2.967 2.967 0 0 0-1.58.459.3.3 0 0 1-.322-.01l-.118-.085-.033-.225V4.081a.44.44 0 0 1 .2-.41A4.127 4.127 0 0 1 9 3.119a2.552 2.552 0 0 1 2.745 2.343 2.605 2.605 0 0 1 .006.293 3.067 3.067 0 0 1-.944 2.274z"/></svg>