<svg xmlns="http://www.w3.org/2000/svg" height="18" viewBox="0 0 18 18" width="18"><path d="M9 1a8 8 0 1 0 8 8 8 8 0 0 0-8-8zm1.3 12.3a1.223 1.223 0 0 1-.3.9 1.223 1.223 0 0 1-.9.3 1.2 1.2 0 0 1 0-2.4c.8 0 1.3.5 1.2 1.2zm.1-4.5c-.4.4-.8.8-.8 1.2a1.135 1.135 0 0 0 .3.8v.1a.1.1 0 0 1-.1.1H8.4a.228.228 0 0 1-.2-.1 1.666 1.666 0 0 1-.4-1.1 2.776 2.776 0 0 1 1-1.7 2.776 2.776 0 0 0 1-1.7c0-.5-.4-1.1-1.4-1.1a5.014 5.014 0 0 0-2 .4h-.2V4.3c0-.1 0-.2.1-.2a6.193 6.193 0 0 1 2.4-.5c1.9 0 3.1 1.1 3.1 2.7a3.7 3.7 0 0 1-1.4 2.5z"/></svg>