<svg xmlns="http://www.w3.org/2000/svg" height="14" viewBox="0 0 14 14" width="14"><path d="M7 .778A6.222 6.222 0 1 0 13.222 7 6.222 6.222 0 0 0 7 .778zm.018 10.452a1.046 1.046 0 0 1-.081-2.091h.081a1.019 1.019 0 0 1 1.087.946v.092a1 1 0 0 1-.951 1.055 1.059 1.059 0 0 1-.136-.002zM8.4 6.245l-.078.078c-.307.322-.655.687-.655.913a1.084 1.084 0 0 0 .139.525l.057.108-.044.167a.241.241 0 0 1-.221.147H6.561a.336.336 0 0 1-.252-.091 1.6 1.6 0 0 1-.329-.982 2.378 2.378 0 0 1 .864-1.61c.078-.086.156-.164.224-.234.245-.252.4-.416.4-.589 0-.12 0-.484-.7-.484a2.3 2.3 0 0 0-1.229.357.232.232 0 0 1-.254-.008l-.092-.066-.022-.176V3.174a.344.344 0 0 1 .156-.319A3.217 3.217 0 0 1 7 2.426a1.985 1.985 0 0 1 2.135 1.823 2.144 2.144 0 0 1 .005.227 2.387 2.387 0 0 1-.74 1.769z"/></svg>