<svg xmlns="http://www.w3.org/2000/svg" height="14" viewBox="0 0 14 14" width="14"><path d="M7 .778A6.222 6.222 0 1 0 13.222 7 6.222 6.222 0 0 0 7 .778zM6.883 2.45A1.056 1.056 0 0 1 8 3.448v.1a1.036 1.036 0 0 1-.952 1.114 1.1 1.1 0 0 1-.162 0 1.052 1.052 0 0 1-1.116-.987.911.911 0 0 1 0-.128 1.056 1.056 0 0 1 1.014-1.1l.099.003zm1.673 8.05a.389.389 0 0 1-.389.389H5.833a.389.389 0 0 1-.389-.389v-.778a.389.389 0 0 1 .389-.389h.389V7h-.389a.389.389 0 0 1-.389-.389v-.778a.39.39 0 0 1 .389-.389h1.556a.389.389 0 0 1 .389.389v3.5h.389a.389.389 0 0 1 .389.389z"/></svg>