<svg xmlns="http://www.w3.org/2000/svg" height="18" viewBox="0 0 18 18" width="18"><path d="M9.031 2.541l1.777 4.753 5.11.241-3.987 3.2 1.336 4.913L9 12.866l-4.281 2.808 1.352-4.937-3.987-3.2 5.1-.245zM9.042.412a.369.369 0 0 0-.349.239L6.486 6.326l-6.1.293a.375.375 0 0 0-.217.667l4.762 3.821L3.318 17a.376.376 0 0 0 .264.462.406.406 0 0 0 .1.013.367.367 0 0 0 .2-.063L9 14.061l5.1 3.324a.371.371 0 0 0 .576-.314.369.369 0 0 0-.013-.1l-1.6-5.866 4.768-3.825a.375.375 0 0 0-.217-.667l-6.1-.287L9.393.655a.369.369 0 0 0-.351-.243z"/></svg>