<svg xmlns="http://www.w3.org/2000/svg" width="8" height="8"><path d="M6.26,6.463c.049.05.082.116,0,.181l-1.022.659c-.082.05-.115.017-.148-.066L3.822,5.03,2.16,6.859c-.017.032-.066.065-.115,0l-.79-.824c-.083-.049-.066-.1,0-.148L3.132,4.322.99,3.516c-.033,0-.082-.0659-.05-.148L1.5,2.249a.0869.0869,0,0,1,.1079-.059h0a.09.09,0,0,1,.041.027L3.526,3.435l.116-2.4a.087.087,0,0,1,.0718-.1H3.741l1.367.181c.083,0,.1.033.083.116L4.55,3.581l2.174-.659c.049-.033.1-.033.132.066L7.07,4.206c.016.083,0,.115-.066.115l-2.273.181Z"/></svg>