<svg xmlns="http://www.w3.org/2000/svg" width="10" height="10"><path d="M7.861,7.953c.062.063.1.146,0,.23l-1.293.834c-.1.063-.145.021-.187-.083l-1.6-2.7931L2.676,8.455c-.021.04-.083.0819-.145,0l-1-1.0431c-.1-.062-.083-.125,0-.187l2.375-1.981L1.191,4.218c-.042,0-.1-.083-.063-.188l.707-1.412a.1111.1111,0,0,1,.136-.074.1164.1164,0,0,1,.052.034l2.378,1.54.146-3.043A.11.11,0,0,1,4.638.95a.161.161,0,0,1,.034,0l1.73.23c.1,0,.125.0419.1.1459L5.688,4.305l2.751-.834c.062-.042.125-.042.167.083l.271,1.542c.02.1,0,.146-.083.146l-2.876.23Z"/></svg>