<svg xmlns="http://www.w3.org/2000/svg" width="18" height="18"><path d="M9 1a8 8 0 108 8 8 8 0 00-8-8zm1.3 12.3a1.222 1.222 0 01-.3.9 1.223 1.223 0 01-.9.3 1.2 1.2 0 010-2.4c.8 0 1.3.5 1.2 1.2zm.1-4.5c-.4.4-.8.8-.8 1.2a1.135 1.135 0 00.3.8v.1a.098.098 0 01-.096.1H8.4a.229.229 0 01-.2-.1 1.666 1.666 0 01-.4-1.1 2.772 2.772 0 011-1.7 2.772 2.772 0 001-1.7c0-.5-.4-1.1-1.4-1.1a5.018 5.018 0 00-2 .4h-.2V4.3c0-.1 0-.2.1-.2a6.183 6.183 0 012.4-.5c1.9 0 3.1 1.1 3.1 2.7a3.704 3.704 0 01-1.4 2.5z"/></svg>