<svg xmlns="http://www.w3.org/2000/svg" width="14" height="14"><path d="M7 .778A6.222 6.222 0 1013.222 7 6.222 6.222 0 007 .778zm.018 10.452a1.046 1.046 0 11-.08-2.091q.04-.002.08 0a1.019 1.019 0 011.087.946q.003.046.002.092a1.004 1.004 0 01-1.09 1.053zm1.387-4.985l-.078.078c-.307.322-.655.687-.655.913a1.078 1.078 0 00.14.525l.056.108-.044.167a.24.24 0 01-.221.147H6.56a.338.338 0 01-.252-.091 1.6 1.6 0 01-.329-.982 2.378 2.378 0 01.864-1.61c.078-.086.156-.164.224-.234.245-.252.395-.416.395-.59 0-.119 0-.483-.695-.483a2.3 2.3 0 00-1.229.357.233.233 0 01-.254-.008l-.092-.066-.022-.175V3.174a.342.342 0 01.156-.319A3.216 3.216 0 017 2.425a1.985 1.985 0 012.14 2.051 2.385 2.385 0 01-.735 1.769z"/></svg>