<svg xmlns="http://www.w3.org/2000/svg" height="80" id="S_IlluMultiPlatform_100x80" width="100"><defs><style>.cls-1{fill:#b3b3b3}</style></defs><path class="cls-1" d="M87.1 53.766a1 1 0 01-1-1V13.918a.92.92 0 00-.916-.918H20.918a.919.919 0 00-.918.918v5.848a1 1 0 01-2 0v-5.848A2.921 2.921 0 0120.918 11h64.266a2.921 2.921 0 012.916 2.918v38.848a1 1 0 01-1 1z"/><circle class="cls-1" cx="53.051" cy="14.878" r=".719"/><path class="cls-1" d="M96.214 54.163H51.088a1 1 0 000 2h6.728v.05a.359.359 0 01-.359.358h-6.584a.744.744 0 00-.069 1.486.988.988 0 00-.716.943 1 1 0 001 1h41.29a4.842 4.842 0 004.836-4.837 1 1 0 00-1-1zM92.378 58H57.939a1.856 1.856 0 001.377-1.787v-.05h35.716A2.841 2.841 0 0192.378 58zM31.088 24.9a.633.633 0 10.633.632.632.632 0 00-.633-.632z"/><path class="cls-1" d="M45.511 70.833H26.657a1 1 0 110-2h18.854a1.033 1.033 0 001.032-1.033V25.032A1.033 1.033 0 0045.511 24H16.032A1.033 1.033 0 0015 25.032v6.2a1 1 0 01-2 0v-6.2A3.035 3.035 0 0116.032 22h29.479a3.035 3.035 0 013.032 3.032V67.8a3.034 3.034 0 01-3.032 3.033z"/><path class="cls-1" d="M21.319 70.833H10.625a3.567 3.567 0 01-3.563-3.563V37.588a3.567 3.567 0 013.563-3.564h10.694a3.568 3.568 0 013.564 3.564V67.27a3.568 3.568 0 01-3.564 3.563zM10.625 36.024a1.565 1.565 0 00-1.563 1.564V67.27a1.565 1.565 0 001.563 1.563h10.694a1.565 1.565 0 001.564-1.563V37.588a1.566 1.566 0 00-1.564-1.564z"/><path class="cls-1" d="M17.683 38.937h-3.332a1.241 1.241 0 01-1.239-1.237v-.175a.75.75 0 011.495-.086h2.819a.75.75 0 011.5.086v.175a1.24 1.24 0 01-1.243 1.237z"/></svg>