<svg xmlns="http://www.w3.org/2000/svg" width="22" height="22"><path d="M11 2a9 9 0 109 9 9 9 0 00-9-9zm-.007 14.681a1.145 1.145 0 01-1.227-1.215 1.159 1.159 0 011.115-1.201q.056-.002.112.001a1.159 1.159 0 011.226 1.088q.003.056.001.112a1.127 1.127 0 01-1.227 1.215zm1.981-6.63c-.684.642-1.344 1.215-1.333 1.736a2.275 2.275 0 00.176.732.25.25 0 01-.232.343h-1.26a.3.3 0 01-.228-.069 1.886 1.886 0 01-.421-1.2c0-.816.508-1.336 1.35-2.17.578-.573.911-.937.911-1.475 0-.625-.421-1.059-1.49-1.059a5.337 5.337 0 00-2 .473.249.249 0 01-.347-.23v-1.24a.5.5 0 01.3-.459 6.413 6.413 0 012.434-.5c2.1.006 3.261 1.2 3.261 2.725a3.053 3.053 0 01-1.121 2.393z"/></svg>