<svg xmlns="http://www.w3.org/2000/svg" width="18" height="18"><path d="M9 1a8 8 0 108 8 8 8 0 00-8-8zm.023 13.438a1.345 1.345 0 01-.104-2.688q.052-.002.104 0a1.31 1.31 0 011.397 1.217q.004.059.003.118a1.291 1.291 0 01-1.4 1.353zm1.783-6.409l-.1.1c-.395.414-.842.884-.842 1.175a1.386 1.386 0 00.179.674l.073.139-.057.215a.308.308 0 01-.284.189H8.436a.434.434 0 01-.325-.117 2.056 2.056 0 01-.422-1.262A3.058 3.058 0 018.8 7.071c.1-.11.2-.21.288-.3.314-.325.507-.535.507-.758 0-.154 0-.622-.893-.622a2.958 2.958 0 00-1.58.459.3.3 0 01-.327-.01l-.118-.085-.028-.225V4.081a.44.44 0 01.2-.41A4.135 4.135 0 019 3.119a2.552 2.552 0 012.751 2.636 3.067 3.067 0 01-.944 2.274z"/></svg>