<svg xmlns="http://www.w3.org/2000/svg" width="22" height="22"><path d="M11 4.9l1.231 3.255A1.777 1.777 0 0013.809 9.3l3.476.165-2.715 2.18a1.777 1.777 0 00-.6 1.855l.918 3.357-2.909-1.91a1.777 1.777 0 00-1.951 0l-2.909 1.91.914-3.357a1.778 1.778 0 00-.6-1.856L4.715 9.469 8.191 9.3a1.777 1.777 0 001.578-1.142zm0-3.458a.448.448 0 00-.426.294L8.35 7.621a.26.26 0 01-.231.168l-6.282.3a.455.455 0 00-.263.81l4.907 3.933a.26.26 0 01.088.271l-1.657 6.064a.457.457 0 00.44.577.45.45 0 00.249-.076l5.257-3.452a.26.26 0 01.285 0l5.257 3.451a.45.45 0 00.249.076.457.457 0 00.44-.577L15.43 13.1a.26.26 0 01.088-.271L20.426 8.9a.455.455 0 00-.263-.81l-6.282-.3a.26.26 0 01-.231-.168l-2.224-5.883A.448.448 0 0011 1.445z"/></svg>