<svg xmlns="http://www.w3.org/2000/svg" id="Arrow600">
  <path d="m22.24 11.052-7.485-7.485a1.341 1.341 0 0 0-1.897 1.897l5.194 5.194H2.079a1.342 1.342 0 0 0 0 2.684h15.973l-5.194 5.194a1.341 1.341 0 1 0 1.897 1.897l7.484-7.485a1.34 1.34 0 0 0 0-1.896z" class="spectrum-UIIcon--large"/>
  <path d="m18.191 9.241-5.986-5.987a1.073 1.073 0 0 0-1.518 1.517l4.155 4.156H2.063a1.073 1.073 0 1 0 0 2.146h12.779l-4.154 4.155a1.073 1.073 0 1 0 1.517 1.518l5.986-5.987a1.073 1.073 0 0 0 0-1.518" class="spectrum-UIIcon--medium"/>
</svg>
