<svg xmlns="http://www.w3.org/2000/svg" id="Arrow400">
  <path d="m17.216 8.126-5.79-5.79a1.236 1.236 0 0 0-1.746 1.75l3.683 3.683c-.008 0-.014-.004-.021-.004H1.337a1.236 1.236 0 0 0 0 2.472H13.34l.02-.004-3.68 3.682a1.236 1.236 0 1 0 1.748 1.748l5.789-5.789a1.237 1.237 0 0 0 0-1.748zm-2.643.895c0-.008.004-.014.004-.021s-.004-.013-.004-.02l.02.02z" class="spectrum-UIIcon--large"/>
  <path d="m14.572 7.3-4.63-4.63a.989.989 0 0 0-1.399 1.398l2.942 2.943H1.87a.99.99 0 0 0 0 1.978h9.615l-2.942 2.943a.989.989 0 1 0 1.398 1.398l4.631-4.63a.99.99 0 0 0 0-1.4" class="spectrum-UIIcon--medium"/>
</svg>
