<svg xmlns="http://www.w3.org/2000/svg" id="Arrow500">
  <path d="m20.17 10.089-6.585-6.585a1.289 1.289 0 0 0-1.822 1.822l4.386 4.386H2.276a1.288 1.288 0 0 0 0 2.576h13.873l-4.386 4.386a1.289 1.289 0 0 0 1.822 1.822l6.585-6.585a1.29 1.29 0 0 0 0-1.822" class="spectrum-UIIcon--large"/>
  <path d="m16.336 8.271-5.269-5.267A1.03 1.03 0 1 0 9.61 4.46l3.51 3.509H2.021a1.03 1.03 0 0 0 0 2.06H13.12l-3.51 3.51a1.03 1.03 0 1 0 1.457 1.456l5.269-5.268a1.03 1.03 0 0 0 0-1.456" class="spectrum-UIIcon--medium"/>
</svg>
