<svg xmlns="http://www.w3.org/2000/svg" id="Arrow100">
  <path d="M12.93 6.227 9.023 2.32a1.094 1.094 0 1 0-1.546 1.547l2.039 2.04H1.844a1.094 1.094 0 1 0 0 2.187h7.672l-2.04 2.039a1.094 1.094 0 0 0 1.547 1.547l3.907-3.907a1.093 1.093 0 0 0 0-1.546" class="spectrum-UIIcon--large"/>
  <path d="M9.7 4.387 6.623 1.262a.875.875 0 1 0-1.247 1.226l1.61 1.637H.925a.875.875 0 0 0 0 1.75h6.062l-1.61 1.637a.875.875 0 1 0 1.247 1.226l3.075-3.125a.874.874 0 0 0 0-1.226z" class="spectrum-UIIcon--medium"/>
</svg>
