<svg xmlns="http://www.w3.org/2000/svg" id="Checkmark500">
  <path d="M6.997 18.48a1.47 1.47 0 0 1-1.13-.53L.521 11.538a1.471 1.471 0 1 1 2.26-1.885l4.182 5.017L17.18 1.666a1.472 1.472 0 1 1 2.314 1.818L8.154 17.917a1.47 1.47 0 0 1-1.135.562z" class="spectrum-UIIcon--large"/>
  <path d="M5.597 14.784a1.18 1.18 0 0 1-.905-.424L.417 9.229a1.177 1.177 0 1 1 1.809-1.508l3.343 4.013 8.174-10.402a1.177 1.177 0 0 1 1.852 1.456L6.523 14.334a1.18 1.18 0 0 1-.91.45z" class="spectrum-UIIcon--medium"/>
</svg>
