<svg xmlns="http://www.w3.org/2000/svg" id="Checkmark600">
  <path d="M8.621 21.417a1.54 1.54 0 0 1-1.178-.552l-6.091-7.31a1.533 1.533 0 1 1 2.355-1.962l4.879 5.854L20.249 2.602a1.533 1.533 0 1 1 2.41 1.895L9.826 20.831a1.53 1.53 0 0 1-1.182.585z" class="spectrum-UIIcon--large"/>
  <path d="M6.297 16.534a1.23 1.23 0 0 1-.942-.442L.48 10.244a1.227 1.227 0 0 1 1.885-1.57l3.904 4.684L15.6 1.482a1.227 1.227 0 0 1 1.93 1.516L7.262 16.065a1.23 1.23 0 0 1-.947.469z" class="spectrum-UIIcon--medium"/>
</svg>
