<svg xmlns="http://www.w3.org/2000/svg" id="Cross500">
  <path d="m9.823 8 5.674-5.674A1.289 1.289 0 1 0 13.675.504L8 6.179 2.326.503A1.288 1.288 0 0 0 .504 2.326l5.674 5.675-5.674 5.674a1.288 1.288 0 0 0 1.822 1.822L8 9.822l5.674 5.675a1.289 1.289 0 1 0 1.823-1.822z" class="spectrum-UIIcon--large"/>
  <path d="m8.457 7 4.54-4.54a1.03 1.03 0 0 0-1.458-1.456L7 5.543l-4.54-4.54a1.03 1.03 0 0 0-1.457 1.458L5.543 7l-4.54 4.54a1.03 1.03 0 1 0 1.457 1.456L7 8.457l4.54 4.54a1.03 1.03 0 0 0 1.456-1.458z" class="spectrum-UIIcon--medium"/>
</svg>
