<svg xmlns="http://www.w3.org/2000/svg" id="Cross200">
  <path d="m7.611 6 3.654-3.653A1.14 1.14 0 0 0 9.653.735L6 4.39 2.347.735A1.14 1.14 0 0 0 .735 2.347L4.39 6 .735 9.653a1.14 1.14 0 1 0 1.612 1.612L6 7.61l3.653 3.654a1.14 1.14 0 0 0 1.612-1.612z" class="spectrum-UIIcon--large"/>
  <path d="m6.29 5 2.922-2.922a.911.911 0 0 0-1.29-1.29L5 3.712 2.078.789a.911.911 0 0 0-1.29 1.289L3.712 5 .79 7.922a.911.911 0 1 0 1.289 1.29L5 6.288 7.923 9.21a.911.911 0 0 0 1.289-1.289z" class="spectrum-UIIcon--medium"/>
</svg>
