<svg xmlns="http://www.w3.org/2000/svg" id="Cross75">
  <path d="m6.485 5 2.674-2.674A1.05 1.05 0 1 0 7.674.84L5 3.515 2.326.84A1.05 1.05 0 0 0 .84 2.326L3.515 5 .84 7.674A1.05 1.05 0 0 0 2.326 9.16L5 6.485 7.674 9.16A1.05 1.05 0 1 0 9.16 7.674z" class="spectrum-UIIcon--large"/>
  <path d="m5.188 4 2.14-2.14A.84.84 0 1 0 6.141.672L4 2.812 1.86.672A.84.84 0 0 0 .672 1.86L2.812 4 .672 6.14A.84.84 0 1 0 1.86 7.328L4 5.188l2.14 2.14A.84.84 0 1 0 7.328 6.14z" class="spectrum-UIIcon--medium"/>
</svg>
