<svg xmlns="http://www.w3.org/2000/svg" id="TripleGripper">
  <path d="M12.625 1.25H1.375a.625.625 0 0 1 0-1.25h11.25a.625.625 0 0 1 0 1.25m.625 3.125a.626.626 0 0 0-.625-.625H1.375a.625.625 0 0 0 0 1.25h11.25a.626.626 0 0 0 .625-.625m0 3.75a.626.626 0 0 0-.625-.625H1.375a.625.625 0 0 0 0 1.25h11.25a.626.626 0 0 0 .625-.625" class="spectrum-UIIcon--large"/>
  <path d="M9.45 1.05H.55a.5.5 0 0 1 0-1h8.9a.5.5 0 0 1 0 1m.5 2.45a.5.5 0 0 0-.5-.5H.55a.5.5 0 0 0 0 1h8.9a.5.5 0 0 0 .5-.5m0 3a.5.5 0 0 0-.5-.5H.55a.5.5 0 0 0 0 1h8.9a.5.5 0 0 0 .5-.5" class="spectrum-UIIcon--medium"/>
</svg>
