<svg xmlns="http://www.w3.org/2000/svg" id="AlertSmall"><path d="M6.661 1L.156 12.644a.388.388 0 0 0 .339.578h13.01a.389.389 0 0 0 .389-.389.379.379 0 0 0-.05-.189L7.339 1A.388.388 0 0 0 6.81.854.381.381 0 0 0 6.661 1zm1.117 10.472a.2.2 0 0 1-.195.2H6.417a.2.2 0 0 1-.195-.2v-1.166a.2.2 0 0 1 .195-.195h1.166a.2.2 0 0 1 .195.195zm0-2.333a.194.194 0 0 1-.195.194H6.417a.194.194 0 0 1-.195-.194V4.472a.194.194 0 0 1 .195-.194h1.166a.194.194 0 0 1 .195.194z" class="spectrum-UIIcon--medium"/><path d="M8.564 1.289L.2 16.256A.5.5 0 0 0 .636 17h16.728a.5.5 0 0 0 .5-.5.494.494 0 0 0-.064-.244L9.436 1.289a.5.5 0 0 0-.872 0zM10 14.75a.25.25 0 0 1-.25.25h-1.5a.25.25 0 0 1-.25-.25v-1.5a.25.25 0 0 1 .25-.25h1.5a.25.25 0 0 1 .25.25zm0-3a.25.25 0 0 1-.25.25h-1.5a.25.25 0 0 1-.25-.25v-6a.25.25 0 0 1 .25-.25h1.5a.25.25 0 0 1 .25.25z" class="spectrum-UIIcon--large"/></svg>