<svg xmlns="http://www.w3.org/2000/svg" id="Asterisk"><path d="M6.6,6.6c0.1,0.1,0.1,0.1,0,0.2L5.4,7.5c-0.1,0.1-0.1,0-0.2-0.1L3.8,4.9L2,7c0,0-0.1,0.1-0.1,0L0.9,6.1C0.9,6,0.9,6,0.9,5.9l2.1-1.8L0.6,3.2c0,0-0.1-0.1-0.1-0.2l0.6-1.3c0-0.1,0.1-0.1,0.1-0.1c0,0,0,0,0,0l2.1,1.4l0.1-2.7c0-0.1,0-0.1,0.1-0.1c0,0,0,0,0,0l1.5,0.2c0.1,0,0.1,0,0.1,0.1L4.6,3.3l2.4-0.7c0.1,0,0.1,0,0.1,0.1L7.5,4c0,0.1,0,0.1-0.1,0.1L4.9,4.4L6.6,6.6z" class="spectrum-UIIcon--medium"/><path d="M7.9,7.9C7.9,7.9,8,8,7.9,8.1L6.6,8.9C6.5,9,6.4,8.9,6.4,8.8L4.8,6.1L2.7,8.4c0,0-0.1,0.1-0.1,0l-1-1c-0.1-0.1-0.1-0.1,0-0.2l2.4-2l-2.7-1c0,0-0.1-0.1-0.1-0.2l0.7-1.4C1.9,2.5,2,2.5,2,2.5c0,0,0,0,0.1,0l2.4,1.5l0.1-3c0-0.1,0-0.1,0.1-0.1c0,0,0,0,0,0l1.7,0.2c0.1,0,0.1,0,0.1,0.1l-0.8,3l2.7-0.8c0.1,0,0.1,0,0.2,0.1L8.9,5c0,0.1,0,0.1-0.1,0.1L5.9,5.4L7.9,7.9z" class="spectrum-UIIcon--large"/></svg>