<svg xmlns="http://www.w3.org/2000/svg" id="CrossMedium"><path d="M7.77 6.709L5.061 4 7.77 1.291A.75.75 0 1 0 6.709.23L4 2.939 1.291.23A.75.75 0 1 0 .23 1.291L2.939 4 .23 6.709A.75.75 0 1 0 1.291 7.77L4 5.061 6.709 7.77A.75.75 0 1 0 7.77 6.709z" class="spectrum-UIIcon--medium"/><path d="M9.77 8.709L6.061 5 9.77 1.291A.75.75 0 1 0 8.709.23L5 3.939 1.291.23A.75.75 0 1 0 .23 1.291L3.939 5 .23 8.709A.75.75 0 1 0 1.291 9.77L5 6.061 8.709 9.77A.75.75 0 1 0 9.77 8.709z" class="spectrum-UIIcon--large"/></svg>