<svg xmlns="http://www.w3.org/2000/svg" id="HelpSmall"><path d="M7 1C3.7 1 1 3.7 1 7s2.7 6 6 6 6-2.7 6-6-2.7-6-6-6zm1 9.2c0 .2-.1.5-.2.7-.2.2-.4.2-.7.2-.5 0-.9-.4-.9-.9s.4-.9.9-.9c.6 0 1 .4.9.9zm.1-3.3c-.3.3-.6.6-.6.9 0 .2.1.4.2.6v.1s0 .1-.1.1h-1c-.1 0-.1 0-.2-.1-.2-.3-.3-.6-.3-.9.1-.5.4-1 .8-1.3.3-.3.6-.7.7-1.2 0-.4-.3-.8-1.1-.8-.5 0-1 .1-1.5.3h-.1V3.5c0-.1 0-.1.1-.1.5-.3 1.2-.4 1.8-.4 1.4 0 2.3.8 2.3 2-.1.7-.5 1.4-1 1.9z" class="spectrum-UIIcon--medium"/><path d="M9 1C4.6 1 1 4.6 1 9s3.6 8 8 8 8-3.6 8-8-3.6-8-8-8zm1.3 12.3c0 .3-.1.7-.3.9-.2.2-.6.3-.9.3-.7 0-1.2-.5-1.2-1.2s.5-1.2 1.2-1.2c.8 0 1.3.5 1.2 1.2zm.1-4.5c-.4.4-.8.8-.8 1.2 0 .3.1.6.3.8v.1c0 .1 0 .1-.1.1H8.4c-.1 0-.2 0-.2-.1-.3-.3-.4-.7-.4-1.1.1-.7.5-1.3 1-1.7s.9-1 1-1.7c0-.5-.4-1.1-1.4-1.1-.7 0-1.4.1-2 .4h-.2V4.3c0-.1 0-.2.1-.2.8-.3 1.6-.5 2.4-.5 1.9 0 3.1 1.1 3.1 2.7-.1 1-.6 1.9-1.4 2.5z" class="spectrum-UIIcon--large"/></svg>