<svg xmlns="http://www.w3.org/2000/svg" id="HelpSmall"><path d="M7 .778A6.222 6.222 0 1 0 13.222 7 6.222 6.222 0 0 0 7 .778zm.018 10.452a1.046 1.046 0 0 1-.081-2.091h.081a1.019 1.019 0 0 1 1.087.946v.092a1 1 0 0 1-.951 1.055 1.059 1.059 0 0 1-.136-.002zM8.4 6.245l-.078.078c-.307.322-.655.687-.655.913a1.084 1.084 0 0 0 .139.525l.057.108-.044.167a.241.241 0 0 1-.221.147H6.561a.336.336 0 0 1-.252-.091 1.6 1.6 0 0 1-.329-.982 2.378 2.378 0 0 1 .864-1.61c.078-.086.156-.164.224-.234.245-.252.4-.416.4-.589 0-.12 0-.484-.7-.484a2.3 2.3 0 0 0-1.229.357.232.232 0 0 1-.254-.008l-.092-.066-.022-.176V3.174a.344.344 0 0 1 .156-.319A3.217 3.217 0 0 1 7 2.426a1.985 1.985 0 0 1 2.135 1.823 2.144 2.144 0 0 1 .005.227 2.387 2.387 0 0 1-.74 1.769z" class="spectrum-UIIcon--medium"/><path d="M9 1a8 8 0 1 0 8 8 8 8 0 0 0-8-8zm.023 13.438a1.345 1.345 0 0 1-.1-2.688h.1a1.31 1.31 0 0 1 1.4 1.217 1.162 1.162 0 0 1 0 .118A1.291 1.291 0 0 1 9.2 14.441a1.307 1.307 0 0 1-.177-.003zm1.783-6.409l-.1.1c-.395.414-.842.884-.842 1.175a1.386 1.386 0 0 0 .179.674l.073.139-.057.215a.309.309 0 0 1-.284.189H8.436a.433.433 0 0 1-.325-.117 2.054 2.054 0 0 1-.422-1.262A3.061 3.061 0 0 1 8.8 7.071c.1-.11.2-.21.288-.3.314-.325.507-.535.507-.758 0-.154 0-.622-.893-.622a2.967 2.967 0 0 0-1.58.459.3.3 0 0 1-.322-.01l-.118-.085-.033-.225V4.081a.44.44 0 0 1 .2-.41A4.127 4.127 0 0 1 9 3.119a2.552 2.552 0 0 1 2.745 2.343 2.605 2.605 0 0 1 .006.293 3.067 3.067 0 0 1-.944 2.274z" class="spectrum-UIIcon--large"/></svg>