<svg xmlns="http://www.w3.org/2000/svg" id="HelpMedium"><path d="M9 1a8 8 0 1 0 8 8 8 8 0 0 0-8-8zm1.3 12.3a1.223 1.223 0 0 1-.3.9 1.223 1.223 0 0 1-.9.3 1.2 1.2 0 0 1 0-2.4c.8 0 1.3.5 1.2 1.2zm.1-4.5c-.4.4-.8.8-.8 1.2a1.135 1.135 0 0 0 .3.8v.1a.1.1 0 0 1-.1.1H8.4a.228.228 0 0 1-.2-.1 1.666 1.666 0 0 1-.4-1.1 2.776 2.776 0 0 1 1-1.7 2.776 2.776 0 0 0 1-1.7c0-.5-.4-1.1-1.4-1.1a5.014 5.014 0 0 0-2 .4h-.2V4.3c0-.1 0-.2.1-.2a6.193 6.193 0 0 1 2.4-.5c1.9 0 3.1 1.1 3.1 2.7a3.7 3.7 0 0 1-1.4 2.5z" class="spectrum-UIIcon--medium"/><path d="M11 2a9 9 0 1 0 9 9 9 9 0 0 0-9-9zm-.007 14.681a1.144 1.144 0 0 1-1.226-1.058 1.175 1.175 0 0 1 0-.157 1.158 1.158 0 0 1 1.115-1.2 1.046 1.046 0 0 1 .112 0 1.159 1.159 0 0 1 1.226 1.088v.112a1.127 1.127 0 0 1-1.03 1.216 1.178 1.178 0 0 1-.197-.001zm1.981-6.63c-.684.642-1.344 1.215-1.333 1.736a2.287 2.287 0 0 0 .176.732.25.25 0 0 1-.232.343h-1.26a.3.3 0 0 1-.228-.069 1.884 1.884 0 0 1-.421-1.2c0-.816.508-1.336 1.35-2.17.578-.573.911-.937.911-1.475 0-.625-.421-1.059-1.49-1.059a5.341 5.341 0 0 0-2 .473.249.249 0 0 1-.327-.131.257.257 0 0 1-.02-.1V5.892a.5.5 0 0 1 .3-.459 6.4 6.4 0 0 1 2.434-.5c2.1.006 3.261 1.2 3.261 2.725a3.054 3.054 0 0 1-1.121 2.393z" class="spectrum-UIIcon--large"/></svg>