<svg xmlns="http://www.w3.org/2000/svg" id="InfoMedium"><path d="M9 1a8 8 0 1 0 8 8 8 8 0 0 0-8-8zm-.15 2.15a1.359 1.359 0 0 1 1.431 1.283v.129a1.332 1.332 0 0 1-1.223 1.432 1.444 1.444 0 0 1-.208 0 1.353 1.353 0 0 1-1.432-1.269 1.5 1.5 0 0 1 0-.164 1.359 1.359 0 0 1 1.3-1.412c.047-.002.089-.001.132.001zM11 13.5a.5.5 0 0 1-.5.5h-3a.5.5 0 0 1-.5-.5v-1a.5.5 0 0 1 .5-.5H8V9h-.5a.5.5 0 0 1-.5-.5v-1a.5.5 0 0 1 .5-.5h2a.5.5 0 0 1 .5.5V12h.5a.5.5 0 0 1 .5.5z" class="spectrum-UIIcon--medium"/><path d="M11 2a9 9 0 1 0 9 9 9 9 0 0 0-9-9zm-.15 2.65a1.359 1.359 0 0 1 1.431 1.283v.129a1.332 1.332 0 0 1-1.224 1.432 1.444 1.444 0 0 1-.208 0 1.353 1.353 0 0 1-1.431-1.269 1.5 1.5 0 0 1 0-.164 1.359 1.359 0 0 1 1.3-1.412c.047-.002.089-.001.132.001zM13.5 16a.5.5 0 0 1-.5.5H9a.5.5 0 0 1-.5-.5v-1a.5.5 0 0 1 .5-.5h1v-4H9a.5.5 0 0 1-.5-.5V9a.5.5 0 0 1 .5-.5h2.5a.5.5 0 0 1 .5.5v5.5h1a.5.5 0 0 1 .5.5z" class="spectrum-UIIcon--large"/></svg>