<svg xmlns="http://www.w3.org/2000/svg" id="InfoSmall"><path d="M7 .778A6.222 6.222 0 1 0 13.222 7 6.222 6.222 0 0 0 7 .778zM6.883 2.45A1.056 1.056 0 0 1 8 3.448v.1a1.036 1.036 0 0 1-.952 1.114 1.1 1.1 0 0 1-.162 0 1.052 1.052 0 0 1-1.116-.987.911.911 0 0 1 0-.128 1.056 1.056 0 0 1 1.014-1.1l.099.003zm1.673 8.05a.389.389 0 0 1-.389.389H5.833a.389.389 0 0 1-.389-.389v-.778a.389.389 0 0 1 .389-.389h.389V7h-.389a.389.389 0 0 1-.389-.389v-.778a.39.39 0 0 1 .389-.389h1.556a.389.389 0 0 1 .389.389v3.5h.389a.389.389 0 0 1 .389.389z" class="spectrum-UIIcon--medium"/><path d="M9 1a8 8 0 1 0 8 8 8 8 0 0 0-8-8zm-.15 2.15a1.359 1.359 0 0 1 1.431 1.283v.129a1.332 1.332 0 0 1-1.223 1.432 1.444 1.444 0 0 1-.208 0 1.353 1.353 0 0 1-1.432-1.269 1.5 1.5 0 0 1 0-.164 1.359 1.359 0 0 1 1.3-1.412c.047-.002.089-.001.132.001zM11 13.5a.5.5 0 0 1-.5.5h-3a.5.5 0 0 1-.5-.5v-1a.5.5 0 0 1 .5-.5H8V9h-.5a.5.5 0 0 1-.5-.5v-1a.5.5 0 0 1 .5-.5h2a.5.5 0 0 1 .5.5V12h.5a.5.5 0 0 1 .5.5z" class="spectrum-UIIcon--large"/></svg>