<svg xmlns="http://www.w3.org/2000/svg" id="InfoSmall"><path d="M7 .778A6.222 6.222 0 1 0 13.222 7 6.222 6.222 0 0 0 7 .778zM6.883 2.45a1.057 1.057 0 0 1 1.113.998q.003.05.001.1a1.036 1.036 0 0 1-1.114 1.114A1.052 1.052 0 0 1 5.77 3.547 1.057 1.057 0 0 1 6.784 2.45q.05-.002.1.001zm1.673 8.05a.389.389 0 0 1-.39.389H5.834a.389.389 0 0 1-.389-.389v-.778a.389.389 0 0 1 .39-.389h.388V7h-.389a.389.389 0 0 1-.389-.389v-.778a.389.389 0 0 1 .39-.389h1.555a.389.389 0 0 1 .389.39v3.5h.389a.389.389 0 0 1 .389.388z" class="spectrum-UIIcon--medium"/><path d="M9 1a8 8 0 1 0 8 8 8 8 0 0 0-8-8zm-.15 2.15a1.359 1.359 0 0 1 1.431 1.283q.004.064.001.129A1.332 1.332 0 0 1 8.85 5.994a1.353 1.353 0 0 1-1.432-1.433 1.359 1.359 0 0 1 1.304-1.412q.064-.002.128.001zM11 13.5a.5.5 0 0 1-.5.5h-3a.5.5 0 0 1-.5-.5v-1a.5.5 0 0 1 .5-.5H8V9h-.5a.5.5 0 0 1-.5-.5v-1a.5.5 0 0 1 .5-.5h2a.5.5 0 0 1 .5.5V12h.5a.5.5 0 0 1 .5.5z" class="spectrum-UIIcon--large"/></svg>