<svg xmlns="http://www.w3.org/2000/svg" height="80" id="S_IlluCSS_100x80" width="100"><defs><style>.cls-1{fill:#b3b3b3}</style></defs><path class="cls-1" d="M88.558 61.776a.75.75 0 01-.732-.588c-.058-.268-.141-.753-.252-1.4l-.017-.107a.749.749 0 111.478-.25l.019.106c.1.615.181 1.076.237 1.33a.748.748 0 01-.733.911zM87.8 57.458a.749.749 0 01-.736-.613 91.45 91.45 0 00-.568-2.811.75.75 0 011.465-.322c.222 1.008.413 1.975.577 2.859a.749.749 0 01-.6.874.716.716 0 01-.138.013zm-1.25-5.646a.75.75 0 01-.725-.557c-.26-.977-.532-1.9-.809-2.727a.75.75 0 111.423-.474c.288.862.568 1.809.835 2.816a.748.748 0 01-.532.917.708.708 0 01-.192.025zm-1.861-5.468a.749.749 0 01-.684-.444 14.527 14.527 0 00-1.326-2.4.75.75 0 111.226-.863 16.045 16.045 0 011.469 2.65.751.751 0 01-.685 1.057zM81.2 41.856a.733.733 0 01-.337-.081 2.436 2.436 0 00-1.107-.275.75.75 0 010-1.5 3.921 3.921 0 011.777.438.749.749 0 01-.339 1.418zM25.067 38.756a.759.759 0 01-.162-.018.75.75 0 01-.571-.893c.056-.254.133-.715.237-1.33l.019-.107a.749.749 0 011.478.25l-.017.108c-.111.648-.194 1.133-.252 1.4a.75.75 0 01-.732.59zM25.828 34.438a.716.716 0 01-.138-.013.749.749 0 01-.6-.874c.164-.885.355-1.852.577-2.86a.75.75 0 011.465.323c-.218.99-.405 1.941-.568 2.81a.749.749 0 01-.736.614zm1.247-5.646a.749.749 0 01-.724-.942c.267-1.007.547-1.954.835-2.817a.75.75 0 011.423.475c-.277.832-.549 1.75-.809 2.726a.751.751 0 01-.725.558zm1.861-5.469a.74.74 0 01-.307-.065.751.751 0 01-.378-.991 16.058 16.058 0 011.469-2.651.75.75 0 011.226.863 14.581 14.581 0 00-1.326 2.4.75.75 0 01-.684.444zM32.427 18.836a.75.75 0 01-.339-1.419 3.934 3.934 0 011.777-.438.75.75 0 010 1.5 2.425 2.425 0 00-1.107.276.733.733 0 01-.331.081zM11.442 61.776a.748.748 0 01-.733-.911c.056-.254.133-.715.237-1.33l.019-.106a.749.749 0 111.478.25l-.017.107a41.214 41.214 0 01-.252 1.4.75.75 0 01-.732.59zM12.2 57.458a.716.716 0 01-.138-.013.749.749 0 01-.6-.874c.164-.884.355-1.851.577-2.859a.75.75 0 011.465.322c-.218.99-.4 1.942-.568 2.811a.749.749 0 01-.736.613zm1.247-5.646a.708.708 0 01-.192-.025.748.748 0 01-.532-.917c.267-1.007.547-1.954.835-2.816a.75.75 0 111.423.474c-.277.832-.549 1.75-.809 2.727a.75.75 0 01-.722.557zm1.861-5.468a.741.741 0 01-.308-.066.751.751 0 01-.378-.991 16.045 16.045 0 011.469-2.65.75.75 0 111.226.863A14.527 14.527 0 0016 45.9a.749.749 0 01-.689.444zM18.8 41.856a.749.749 0 01-.339-1.418A3.921 3.921 0 0120.24 40a.75.75 0 010 1.5 2.436 2.436 0 00-1.107.275.733.733 0 01-.333.081z"/><path class="cls-1" d="M91 63H53.7l-.61-12H67a10 10 0 009.975-9.5h2.782a.75.75 0 000-1.5h-3.691c-.011 0-.021.006-.033.007A.32.32 0 0076 40H52.531l-.611-12h2.747a10 10 0 009.976-9.521h1.486a2.425 2.425 0 011.107.276.733.733 0 00.337.081.75.75 0 00.339-1.419 3.934 3.934 0 00-1.777-.438h-3.694a.7.7 0 00-.1.021H51.362l-.613-12.038a.75.75 0 00-1.5 0L48.638 17H37.66a.7.7 0 00-.1-.021h-3.692a.75.75 0 000 1.5h1.489A10 10 0 0045.333 28h2.747l-.611 12H24a.32.32 0 00-.033.007c-.012 0-.022-.007-.033-.007h-3.691a.75.75 0 100 1.5h2.782A10 10 0 0033 51h13.91l-.61 12H9a1 1 0 00-1 1 10.011 10.011 0 0010 10h64a10.011 10.011 0 0010-10 1 1 0 00-1-1zM37.4 19h25.2a8.012 8.012 0 01-7.937 7h-9.33a8.012 8.012 0 01-7.933-7zm12.186 9h.836l.611 12h-2.062zM25.062 42h49.875A8.012 8.012 0 0167 49H33a8.014 8.014 0 01-7.938-7zm23.35 9h3.176l.61 12H47.8zM82 72H18a8.014 8.014 0 01-7.938-7h79.875A8.012 8.012 0 0182 72z"/><path class="cls-1" d="M73.932 36.658l.017.108c.111.648.194 1.133.252 1.4a.75.75 0 00.732.589.759.759 0 00.162-.018.75.75 0 00.571-.893c-.056-.254-.133-.715-.237-1.33l-.019-.107a.749.749 0 00-1.478.25zM70.38 22.88a.75.75 0 101.369-.613 16.058 16.058 0 00-1.469-2.651.75.75 0 00-1.226.863 14.581 14.581 0 011.326 2.401zM72.868 31.014c.218.99.405 1.941.568 2.81a.749.749 0 00.736.614.716.716 0 00.138-.013.749.749 0 00.6-.874 87.134 87.134 0 00-.577-2.86.75.75 0 10-1.465.323zM71.391 25.508c.277.832.549 1.75.809 2.726a.75.75 0 101.449-.384 47.086 47.086 0 00-.835-2.817.75.75 0 10-1.423.475z"/></svg>