<svg xmlns="http://www.w3.org/2000/svg" id="Arrow300">
  <path d="m15.364 7.161-5.083-5.083a1.186 1.186 0 0 0-1.678 1.678l3.057 3.058H1.277a1.187 1.187 0 1 0 0 2.373H11.66l-3.056 3.057a1.186 1.186 0 1 0 1.677 1.678l5.083-5.083a1.185 1.185 0 0 0 0-1.678" class="spectrum-UIIcon--large"/>
  <path d="M12.893 6.33 8.826 2.261a.95.95 0 1 0-1.344 1.341L9.93 6.051H1.621a.95.95 0 1 0 0 1.898H9.93l-2.447 2.447a.95.95 0 0 0 1.344 1.342l4.067-4.067a.95.95 0 0 0 0-1.342z" class="spectrum-UIIcon--medium"/>
</svg>
