<svg xmlns="http://www.w3.org/2000/svg" id="Cross400">
  <path d="m9.748 8 4.915-4.915a1.236 1.236 0 0 0-1.748-1.748L8 6.252 3.085 1.337a1.236 1.236 0 0 0-1.748 1.748L6.252 8l-4.915 4.915a1.236 1.236 0 1 0 1.748 1.748L8 9.748l4.915 4.915a1.236 1.236 0 0 0 1.748-1.748z" class="spectrum-UIIcon--large"/>
  <path d="m7.398 6 3.932-3.932A.989.989 0 0 0 9.932.67L6 4.602 2.068.67A.989.989 0 0 0 .67 2.068L4.602 6 .67 9.932a.989.989 0 1 0 1.398 1.398L6 7.398l3.932 3.932a.989.989 0 0 0 1.398-1.398z" class="spectrum-UIIcon--medium"/>
</svg>
