<?xml version="1.0" encoding="utf-8"?>
<!-- Generator: Adobe Illustrator 23.1.1, SVG Export Plug-In . SVG Version: 6.00 Build 0)  -->
<svg version="1.1" id="Layer_1" xmlns="http://www.w3.org/2000/svg" xmlns:xlink="http://www.w3.org/1999/xlink" x="0px" y="0px"
	 viewBox="0 0 66 66" style="enable-background:new 0 0 66 66;" xml:space="preserve">
<style type="text/css">
	.st0{fill:#F5F5F5;}
	.st1{fill:#2C2C2C;}
</style>
<rect class="st0" width="66" height="66"/>
<g id="github_blue" transform="translate(15 15)">
	<g id="Group_16885" transform="translate(0)">
		<path id="Path_1866" class="st1" d="M36.95,18.48C36.95,8.27,28.67,0,18.47,0S0,8.28,0,18.48c0,7.89,5.01,14.9,12.46,17.47
			c0.53-0.27,0.88-0.79,0.95-1.38c0-1.02-0.02-3.63-0.02-3.63c-0.64,0.1-1.29,0.14-1.95,0.14c-1.89,0.12-3.63-1.05-4.23-2.85
			c-0.4-1.03-1.13-1.89-2.08-2.46c-0.48-0.31-0.59-0.67-0.03-0.77c2.55-0.48,3.21,2.88,4.91,3.41c1.18,0.37,2.45,0.27,3.56-0.28
			c0.16-0.95,0.68-1.81,1.47-2.38c-4.34-0.41-6.91-1.91-8.24-4.32l-0.14-0.27l-0.33-0.76l-0.1-0.27c-0.43-1.35-0.63-2.77-0.6-4.18
			c-0.08-1.97,0.65-3.89,2.04-5.3C7.1,8.88,7.21,6.98,7.98,5.31c0,0,1.88-0.39,5.42,2.14c1.92-0.82,7.05-0.89,9.48-0.18
			c1.49-0.98,4.21-2.37,5.31-1.98c0.3,0.48,0.94,1.87,0.39,4.92c1.55,1.65,2.39,3.86,2.32,6.12c0,1.28-0.16,2.56-0.47,3.8
			l-0.16,0.54c0,0-0.09,0.26-0.19,0.5l-0.12,0.27c-1.29,2.81-3.92,3.86-8.19,4.3c1.38,0.87,1.78,1.95,1.78,4.89
			c0,2.94-0.04,3.33-0.03,4.01c0.08,0.57,0.42,1.07,0.92,1.35C31.92,33.42,36.95,26.39,36.95,18.48z"/>
	</g>
</g>
</svg>
