<?xml version="1.0" encoding="utf-8"?>
<!-- Generator: Adobe Illustrator 24.1.2, SVG Export Plug-In . SVG Version: 6.00 Build 0)  -->
<svg
    class="spectrum-Site-logo spectrum-Icon spectrum-Icon--sizeXL" version="1.1"
    width="200" height="37" x="0" y="0" viewBox="0 0 200 37"
    xmlns="http://www.w3.org/2000/svg" xmlns:xlink="http://www.w3.org/1999/xlink"
    focusable="false" aria-hidden="true" aria-label="Adobe logo" xml:space="preserve">
    <path opacity="0.3"
        d="M41.4996 22.3524C42.1732 22.7726 42.1678 23.7639 41.4996 24.1841L22.1317 36.2949C21.4421 36.7259 20.5654 36.7259 19.8758 36.2949L0.507956 24.1787C-0.165616 23.7585 -0.165616 22.7726 0.507956 22.347L5.74685 19.0553L19.8865 27.8313C20.5761 28.257 21.4421 28.257 22.1264 27.8313L36.2661 19.0553L41.5049 22.347L41.4996 22.3524Z"
        fill="white" fill-opacity="0.94" />
    <path opacity="0.58"
        d="M30.4712 10.457L22.1317 15.6615C21.4421 16.0925 20.5708 16.0925 19.8812 15.6615L11.531 10.457L7.22763 13.1293C6.54872 13.5495 6.54872 14.5462 7.22763 14.9665L19.8812 22.8162C20.5708 23.2418 21.4421 23.2418 22.1264 22.8162L34.7211 14.9611C35.3947 14.5408 35.3947 13.5549 34.7211 13.1293L30.4659 10.4624L30.4712 10.457Z"
        fill="white" fill-opacity="0.94" />
    <path opacity="0.85"
        d="M22.1264 0.328771C21.4368 -0.102238 20.5654 -0.107626 19.8758 0.323383L12.9583 4.61192C12.2794 5.03216 12.2794 6.02348 12.9583 6.44371L19.8277 10.7269C20.5173 11.1579 21.3887 11.1579 22.0783 10.7269L28.9316 6.43832C29.6052 6.01809 29.6052 5.03216 28.9316 4.60653L22.1264 0.328771Z"
        fill="white" fill-opacity="0.94" />
    <text opacity="0.85" x="54" y="30" fill="white" fill-opacity="0.94"
        style="color: rgb(0,0,0);font-size: 32px;font-family: adobe-clean,'Source Sans Pro',-apple-system,BlinkMacSystemFont,'Segoe UI',Roboto,Ubuntu,'Trebuchet MS','Lucida Grande',sans-serif; font-weight: 700; height: 35px; line-height:1.3;">
        Spectrum
    </text>
</svg>
