<svg xmlns="http://www.w3.org/2000/svg" id="Arrow300"><path d="M15.3643,7.1611l-5.0831-5.083A1.1863,1.1863,0,0,0,8.6035,3.7559L11.66,6.8135H1.2769a1.1865,1.1865,0,1,0,0,2.373H11.66L8.6035,12.2441a1.1863,1.1863,0,1,0,1.6777,1.6778l5.0831-5.083A1.1855,1.1855,0,0,0,15.3643,7.1611Z" class="spectrum-UIIcon--large"/><path d="M12.8926,6.3291,8.8262,2.2617A.95.95,0,1,0,7.4824,3.6035L9.929,6.0508H1.6211a.9492.9492,0,1,0,0,1.8984H9.929L7.4824,10.3965a.95.95,0,0,0,1.3438,1.3418l4.0664-4.0674A.95.95,0,0,0,12.8926,6.3291Z" class="spectrum-UIIcon--medium"/></svg>