<svg xmlns="http://www.w3.org/2000/svg" id="Arrow75"><path d="M11.3252,5.2578,7.9087,1.8408A1.05,1.05,0,0,0,6.4233,3.3252L8.048,4.95H1.4941a1.05,1.05,0,0,0,0,2.1H8.048L6.4233,8.6748a1.05,1.05,0,0,0,1.4854,1.4844l3.4165-3.417A1.0491,1.0491,0,0,0,11.3252,5.2578Z" class="spectrum-UIIcon--large"/><path d="M9.2607,4.4062,6.5273,1.6719A.84.84,0,0,0,5.3389,2.8594L6.64,4.16H1.396a.84.84,0,0,0,0,1.68H6.64L5.3389,7.1406A.84.84,0,0,0,6.5273,8.3281L9.2607,5.5938A.8393.8393,0,0,0,9.2607,4.4062Z" class="spectrum-UIIcon--medium"/></svg>