<svg xmlns="http://www.w3.org/2000/svg" id="Arrow200"><path d="M14.6064,7.1943,10.1475,2.7354A1.1394,1.1394,0,1,0,8.5361,4.3467L11.05,6.86H2.1079a1.14,1.14,0,0,0,0,2.2792H11.05L8.5361,11.6533a1.1394,1.1394,0,1,0,1.6114,1.6113l4.4589-4.4589A1.1387,1.1387,0,0,0,14.6064,7.1943Z" class="spectrum-UIIcon--large"/><path d="M11.2842,5.3555,7.7178,1.7881a.9115.9115,0,1,0-1.2891,1.289L8.44,5.0889H1.2861a.9111.9111,0,1,0,0,1.8222H8.44L6.4287,8.9229a.9115.9115,0,0,0,1.2891,1.289l3.5664-3.5674A.9125.9125,0,0,0,11.2842,5.3555Z" class="spectrum-UIIcon--medium"/></svg>