<svg xmlns="http://www.w3.org/2000/svg" id="Arrow500"><path d="M20.17,10.0889,13.585,3.5039a1.2886,1.2886,0,0,0-1.8223,1.8223l4.3865,4.3857H2.2759a1.2881,1.2881,0,0,0,0,2.5762H16.1492l-4.3865,4.3857a1.2886,1.2886,0,0,0,1.8223,1.8223l6.5849-6.585A1.2888,1.2888,0,0,0,20.17,10.0889Z" class="spectrum-UIIcon--large"/><path d="M16.3359,8.2715,11.0674,3.0039A1.03,1.03,0,1,0,9.61,4.4609L13.12,7.97H2.021a1.03,1.03,0,0,0,0,2.0606H13.12L9.61,13.5391a1.03,1.03,0,1,0,1.457,1.457l5.2685-5.2676a1.03,1.03,0,0,0,0-1.457Z" class="spectrum-UIIcon--medium"/></svg>