<svg xmlns="http://www.w3.org/2000/svg" id="Arrow100"><path d="M12.93,6.2266,9.0234,2.32A1.0938,1.0938,0,1,0,7.4766,3.8672l2.039,2.039H1.8442a1.0938,1.0938,0,1,0,0,2.1876H9.5156l-2.039,2.039A1.0938,1.0938,0,0,0,9.0234,11.68L12.93,7.7734A1.0927,1.0927,0,0,0,12.93,6.2266Z" class="spectrum-UIIcon--large"/><path d="M9.6992,4.3867,6.624,1.2617A.8748.8748,0,1,0,5.3765,2.4883l1.61,1.6367H.9248a.875.875,0,0,0,0,1.75h6.062l-1.61,1.6367A.8748.8748,0,1,0,6.624,8.7383l3.0752-3.125A.8742.8742,0,0,0,9.6992,4.3867Z" class="spectrum-UIIcon--medium"/></svg>