<svg xmlns="http://www.w3.org/2000/svg" id="Arrow400"><path d="M17.216 8.126l-5.79-5.79a1.236 1.236 0 00-1.746 1.75l3.683 3.683c-.008 0-.014-.004-.021-.004H1.337a1.236 1.236 0 000 2.472H13.34c.007 0 .013-.004.02-.004l-3.68 3.682a1.236 1.236 0 101.748 1.748l5.789-5.789a1.237 1.237 0 000-1.748zm-2.643.895c0-.008.004-.014.004-.021s-.004-.013-.004-.02l.02.02z" class="spectrum-UIIcon--large"/><path d="M14.572 7.3l-4.63-4.63a.989.989 0 00-1.399 1.398l2.942 2.943H1.87a.99.99 0 000 1.978h9.615l-2.942 2.943a.989.989 0 101.398 1.398l4.631-4.63a.988.988 0 000-1.4z" class="spectrum-UIIcon--medium"/></svg>