<svg xmlns="http://www.w3.org/2000/svg" id="Asterisk200"><path d="M9.575,9.696c.077.079.129.183,0,.287L7.96,11.025c-.129.079-.182.027-.234-.1L5.72,7.433,3.087,10.326c-.027.051-.1.1-.182,0l-1.251-1.3c-.131-.077-.1-.156,0-.234l2.97-2.476L1.236,5.031c-.052,0-.129-.1-.079-.235l.886-1.771a.1379.1379,0,0,1,.17-.093.144.144,0,0,1,.065.042l2.97,1.9279.183-3.8A.1369.1369,0,0,1,5.545.946a.1966.1966,0,0,1,.042,0l2.163.2869c.131,0,.156.052.131.183L6.86,5.136,10.3,4.093c.077-.052.156-.052.208.1l.339,1.9279c.025.131,0,.183-.1.183l-3.6.287Z" class="spectrum-UIIcon--large"/><path d="M7.861,7.953c.062.063.1.146,0,.23l-1.293.834c-.1.063-.145.021-.187-.083l-1.6-2.7931L2.676,8.455c-.021.04-.083.0819-.145,0l-1-1.0431c-.1-.062-.083-.125,0-.187l2.375-1.981L1.191,4.218c-.042,0-.1-.083-.063-.188l.707-1.412a.1111.1111,0,0,1,.136-.074.1164.1164,0,0,1,.052.034l2.378,1.54.146-3.043A.11.11,0,0,1,4.638.95a.161.161,0,0,1,.034,0l1.73.23c.1,0,.125.0419.1.1459L5.688,4.305l2.751-.834c.062-.042.125-.042.167.083l.271,1.542c.02.1,0,.146-.083.146l-2.876.23Z" class="spectrum-UIIcon--medium"/></svg>