<svg xmlns="http://www.w3.org/2000/svg" id="Asterisk75"><path d="M6.825,6.9026c.061.062.1.144,0,.227l-1.277.824c-.1.062-.143.0209-.185-.082L3.78,5.1116,1.7,7.3976c-.021.04-.082.081-.143,0L.569,6.3666c-.1-.061-.082-.123,0-.185l2.347-1.957L.236,3.2176c-.041,0-.1-.082-.062-.186l.7-1.4a.1089.1089,0,0,1,.135-.073.114.114,0,0,1,.051.033l2.347,1.523L3.552.1086a.109.109,0,0,1,.09-.1229.14.14,0,0,1,.033,0L5.384.2126c.1,0,.123.0411.1.144L4.684,3.3l2.718-.824c.061-.041.123-.041.165.082l.268,1.523c.02.1,0,.144-.082.144l-2.842.227Z" class="spectrum-UIIcon--large"/><path d="M6.26,6.463c.049.05.082.116,0,.181l-1.022.659c-.082.05-.115.017-.148-.066L3.822,5.03,2.16,6.859c-.017.032-.066.065-.115,0l-.79-.824c-.083-.049-.066-.1,0-.148L3.132,4.322.99,3.516c-.033,0-.082-.0659-.05-.148L1.5,2.249a.0869.0869,0,0,1,.1079-.059h0a.09.09,0,0,1,.041.027L3.526,3.435l.116-2.4a.087.087,0,0,1,.0718-.1H3.741l1.367.181c.083,0,.1.033.083.116L4.55,3.581l2.174-.659c.049-.033.1-.033.132.066L7.07,4.206c.016.083,0,.115-.066.115l-2.273.181Z" class="spectrum-UIIcon--medium"/></svg>