<svg xmlns="http://www.w3.org/2000/svg" id="Asterisk100"><path d="M8.176,8.281c.069.07.115.163,0,.255l-1.437.927c-.115.07-.161.024-.208-.092l-1.783-3.1L2.409,8.842c-.024.045-.093.091-.161,0L1.136,7.678c-.116-.069-.093-.139,0-.208l2.639-2.2L.765,4.136c-.046,0-.115-.092-.07-.209l.788-1.5739a.1228.1228,0,0,1,.151-.083.1283.1283,0,0,1,.058.038l2.639,1.713L4.494.64a.1221.1221,0,0,1,.1-.139.1724.1724,0,0,1,.038,0l1.922.255c.116,0,.139.0461.116.1631l-.9,3.31,3.057-.927c.069-.0461.139-.0461.185.0919l.3,1.713c.023.1161,0,.162-.093.162l-3.2.255Z" class="spectrum-UIIcon--large"/><path d="M6.575,6.555c.055.056.092.13,0,.2l-1.149.741c-.092.0561-.129.019-.166-.0739L3.834,4.94,1.963,7c-.019.036-.074.073-.129,0L.945,6.073c-.093-.055-.074-.111,0-.166l2.111-1.76L.648,3.24c-.037,0-.092-.074-.056-.167l.63-1.259a.0969.0969,0,0,1,.167-.0359L3.5,3.1481l.13-2.7A.1.1,0,0,1,3.711.337a.15.15,0,0,1,.03,0l1.537.2c.093,0,.111.037.093.13L4.648,3.314l2.445-.741c.055-.037.111-.037.148.074l.241,1.37c.018.093,0,.13-.074.13l-2.556.2Z" class="spectrum-UIIcon--medium"/></svg>