<svg xmlns="http://www.w3.org/2000/svg" id="Checkmark50"><path d="M4.519,10.6079a1.1515,1.1515,0,0,1-.8847-.4141L1.27,7.3579A1.1521,1.1521,0,0,1,3.04,5.8823L4.4927,7.625,8.9434,1.96a1.1524,1.1524,0,0,1,1.8125,1.4238L5.4248,10.168a1.1528,1.1528,0,0,1-.8892.44Z" class="spectrum-UIIcon--large"/><path d="M3.8149,8.6865a.9211.9211,0,0,1-.708-.3315L1.2158,6.0859a.9215.9215,0,0,1,1.416-1.18L3.7939,6.3,7.3545,1.7686A.9215.9215,0,1,1,8.8037,2.9072L4.54,8.3345a.9212.9212,0,0,1-.7115.352Z" class="spectrum-UIIcon--medium"/></svg>