<svg xmlns="http://www.w3.org/2000/svg" id="Checkmark500"><path d="M6.9971,18.48a1.47,1.47,0,0,1-1.13-.5293L.5215,11.5366a1.4713,1.4713,0,1,1,2.26-1.8847l4.1817,5.017L17.18,1.666a1.4717,1.4717,0,1,1,2.3144,1.8184L8.1543,17.917a1.4722,1.4722,0,0,1-1.1357.562Z" class="spectrum-UIIcon--large"/><path d="M5.5967,14.7837a1.1765,1.1765,0,0,1-.9043-.4238L.417,9.229A1.1773,1.1773,0,1,1,2.2256,7.7212l3.3437,4.0132L13.7432,1.3325a1.1774,1.1774,0,0,1,1.8515,1.4551L6.5225,14.3335a1.1777,1.1777,0,0,1-.9092.45Z" class="spectrum-UIIcon--medium"/></svg>