<svg xmlns="http://www.w3.org/2000/svg" id="Checkmark300"><path d="M5.627,14.8936a1.3573,1.3573,0,0,1-1.042-.4878l-4.1-4.919A1.3565,1.3565,0,0,1,2.5693,7.75l3.0264,3.6314,7.8057-9.9336A1.3562,1.3562,0,0,1,15.5342,3.123L6.6934,14.375a1.3556,1.3556,0,0,1-1.0469.5186Z" class="spectrum-UIIcon--large"/><path d="M5.1016,12.5142a1.0874,1.0874,0,0,1-.834-.39L.9883,8.189a1.0855,1.0855,0,0,1,1.6679-1.39L5.0771,9.7046,11.32,1.7578a1.0853,1.0853,0,0,1,1.707,1.3408L5.9551,12.1a1.0887,1.0887,0,0,1-.8379.4146Z" class="spectrum-UIIcon--medium"/></svg>