<svg xmlns="http://www.w3.org/2000/svg" id="Checkmark200"><path d="M4.8911,13.2241A1.304,1.304,0,0,1,3.8857,12.75L.3467,8.4507A1.3022,1.3022,0,0,1,2.3574,6.7954L4.8647,9.8413l6.7583-8.647a1.3017,1.3017,0,1,1,2.0508,1.6036L5.917,12.7236a1.3012,1.3012,0,0,1-1.0093.5Z" class="spectrum-UIIcon--large"/><path d="M4.313,10.98a1.0415,1.0415,0,0,1-.8-.375L.6465,7.1646A1.0415,1.0415,0,0,1,2.2471,5.8315l2.042,2.4507L9.7324,1.3535a1.0419,1.0419,0,0,1,1.6387,1.2871L5.1318,10.5815a1.0407,1.0407,0,0,1-.8037.398Z" class="spectrum-UIIcon--medium"/></svg>