<svg xmlns="http://www.w3.org/2000/svg" id="Chevron300"><path d="M4.6958,15.853a1.187,1.187,0,0,1-.8394-2.0263L9.6836,8,3.8564,2.1733A1.1871,1.1871,0,0,1,5.5352.4946l6.666,6.666a1.1873,1.1873,0,0,1,0,1.6788l-6.666,6.666A1.1834,1.1834,0,0,1,4.6958,15.853Z" class="spectrum-UIIcon--large"/><path d="M10.6388,7a.9466.9466,0,0,0-.2775-.6714l-.0029-.0019-5.33-5.33A.95.95,0,0,0,3.6855,2.3394L8.347,7,3.6855,11.6606a.95.95,0,1,0,1.3428,1.3428l5.33-5.33.0029-.0019A.9466.9466,0,0,0,10.6388,7Z" class="spectrum-UIIcon--medium"/></svg>