<svg xmlns="http://www.w3.org/2000/svg" id="Cross100"><path d="M6.5477,5.0005l3.0832-3.083A1.0938,1.0938,0,0,0,8.084.3706L5.0007,3.4537,1.9175.3706A1.0938,1.0938,0,0,0,.3706,1.9175l3.0832,3.083L.3706,8.0835A1.0938,1.0938,0,1,0,1.9175,9.63L5.0007,6.5473,8.084,9.63A1.0938,1.0938,0,1,0,9.6309,8.0835Z" class="spectrum-UIIcon--large"/><path d="M5.2376,4,7.6943,1.5435A.8752.8752,0,1,0,6.4561.3062L4,2.7625,1.5435.3062A.8749.8749,0,0,0,.3062,1.5435L2.7625,4,.3062,6.4565A.8749.8749,0,1,0,1.5435,7.6938L4,5.2375,6.4561,7.6938A.8752.8752,0,1,0,7.6943,6.4565Z" class="spectrum-UIIcon--medium"/></svg>