<svg xmlns="http://www.w3.org/2000/svg" id="Cross300"><path d="M8.6784,7.0005l4.2445-4.2446a1.1864,1.1864,0,0,0-1.6778-1.6778L7.0005,5.3225,2.7563,1.0781A1.1867,1.1867,0,0,0,1.0776,2.7559L5.3224,7.0005,1.0776,11.2451a1.1867,1.1867,0,0,0,1.6787,1.6778L7.0005,8.6785l4.2446,4.2444a1.1864,1.1864,0,0,0,1.6778-1.6778Z" class="spectrum-UIIcon--large"/><path d="M7.3436,6l3.3957-3.3957A.95.95,0,0,0,9.3955,1.2617L6,4.657,2.6045,1.2617A.95.95,0,0,0,1.2617,2.6045L4.657,6,1.2617,9.3955a.95.95,0,0,0,1.3428,1.3438L6,7.3436l3.3953,3.3957a.95.95,0,0,0,1.3438-1.3438Z" class="spectrum-UIIcon--medium"/></svg>