<svg xmlns="http://www.w3.org/2000/svg" id="Cross500"><path d="M9.8226,8.0005l5.6745-5.6743A1.2886,1.2886,0,1,0,13.6748.5039L8,6.1785,2.3257.5039A1.2882,1.2882,0,0,0,.5044,2.3262L6.1785,8.0005.5044,13.6748a1.2882,1.2882,0,0,0,1.8213,1.8223L8,9.8225l5.6744,5.6746a1.2886,1.2886,0,1,0,1.8223-1.8223Z" class="spectrum-UIIcon--large"/><path d="M8.4568,7l4.5393-4.5391a1.03,1.03,0,0,0-1.457-1.457L7,5.543,2.46,1.0039a1.03,1.03,0,0,0-1.457,1.457L5.5427,7,1.0034,11.5391a1.03,1.03,0,1,0,1.457,1.457L7,8.457l4.5393,4.5391a1.03,1.03,0,0,0,1.457-1.457Z" class="spectrum-UIIcon--medium"/></svg>