<svg xmlns="http://www.w3.org/2000/svg" id="Cross200"><path d="M7.6113,6l3.6533-3.6533A1.1394,1.1394,0,0,0,9.6533.7354L6,4.3887,2.3467.7354A1.1394,1.1394,0,0,0,.7354,2.3467L4.3887,6,.7354,9.6533a1.1394,1.1394,0,1,0,1.6113,1.6113L6,7.6113l3.6533,3.6533a1.1394,1.1394,0,0,0,1.6113-1.6113Z" class="spectrum-UIIcon--large"/><path d="M6.2894,5,9.2119,2.0776A.9115.9115,0,0,0,7.9229.7886L5,3.711,2.0776.7886a.9115.9115,0,0,0-1.289,1.289L3.7111,5,.7886,7.9224a.9115.9115,0,1,0,1.289,1.289L5,6.289,7.9229,9.2114a.9115.9115,0,0,0,1.289-1.289Z" class="spectrum-UIIcon--medium"/></svg>