<svg xmlns="http://www.w3.org/2000/svg" id="Cross75"><path d="M6.485,5,9.1592,2.3257A1.05,1.05,0,1,0,7.6743.84L5,3.5148,2.3257.84A1.05,1.05,0,0,0,.84,2.3257L3.5146,5,.84,7.6743A1.05,1.05,0,0,0,2.3257,9.16L5,6.4852,7.6743,9.16A1.05,1.05,0,1,0,9.1592,7.6743Z" class="spectrum-UIIcon--large"/><path d="M5.1881,4l2.14-2.14A.84.84,0,1,0,6.1406.6724L4,2.8124,1.86.6724A.84.84,0,0,0,.6724,1.86L2.8124,4,.6724,6.14A.84.84,0,1,0,1.86,7.3276L4,5.1876l2.14,2.14A.84.84,0,1,0,7.3281,6.14Z" class="spectrum-UIIcon--medium"/></svg>