<svg xmlns="http://www.w3.org/2000/svg" id="FolderBreadcrumb"><path d="M19.5 6l-9.166.004-1.668-1.7A.998.998 0 007.946 4H3a1 1 0 00-1 1v13a.5.5 0 00.5.5h17a.5.5 0 00.5-.5V6.5a.5.5 0 00-.5-.5zm-16-.5h4.237l1.964 2H3.5zm11.544 6.044l-3.5 3.5a.77.77 0 01-1.088 0l-3.5-3.5a.77.77 0 011.088-1.088L11 13.41l2.956-2.955a.77.77 0 011.088 1.088z" class="spectrum-UIIcon--large"/><path d="M16.5 4l-7.166.004-1.652-1.7A1 1 0 006.965 2H2a1 1 0 00-1 1v11.5a.5.5 0 00.5.5h15a.5.5 0 00.5-.5v-10a.5.5 0 00-.5-.5zM2 3h4.965l1.943 2H2zm10.354 5.854l-3 3a.5.5 0 01-.707 0l-3-3a.5.5 0 01.707-.707L9 10.793l2.646-2.646a.5.5 0 01.707.707z" class="spectrum-UIIcon--medium"/></svg>