<svg xmlns="http://www.w3.org/2000/svg" id="HelpMedium"><path d="M11 2a9 9 0 109 9 9 9 0 00-9-9zm-.007 14.681a1.145 1.145 0 01-1.227-1.215 1.159 1.159 0 011.115-1.201q.056-.002.112.001a1.159 1.159 0 011.226 1.088q.003.056.001.112a1.127 1.127 0 01-1.227 1.215zm1.981-6.63c-.684.642-1.344 1.215-1.333 1.736a2.275 2.275 0 00.176.732.25.25 0 01-.232.343h-1.26a.3.3 0 01-.228-.069 1.886 1.886 0 01-.421-1.2c0-.816.508-1.336 1.35-2.17.578-.573.911-.937.911-1.475 0-.625-.421-1.059-1.49-1.059a5.337 5.337 0 00-2 .473.249.249 0 01-.347-.23v-1.24a.5.5 0 01.3-.459 6.413 6.413 0 012.434-.5c2.1.006 3.261 1.2 3.261 2.725a3.053 3.053 0 01-1.121 2.393z" class="spectrum-UIIcon--large"/><path d="M9 1a8 8 0 108 8 8 8 0 00-8-8zm1.3 12.3a1.222 1.222 0 01-.3.9 1.223 1.223 0 01-.9.3 1.2 1.2 0 010-2.4c.8 0 1.3.5 1.2 1.2zm.1-4.5c-.4.4-.8.8-.8 1.2a1.135 1.135 0 00.3.8v.1a.098.098 0 01-.096.1H8.4a.229.229 0 01-.2-.1 1.666 1.666 0 01-.4-1.1 2.772 2.772 0 011-1.7 2.772 2.772 0 001-1.7c0-.5-.4-1.1-1.4-1.1a5.018 5.018 0 00-2 .4h-.2V4.3c0-.1 0-.2.1-.2a6.183 6.183 0 012.4-.5c1.9 0 3.1 1.1 3.1 2.7a3.704 3.704 0 01-1.4 2.5z" class="spectrum-UIIcon--medium"/></svg>