<svg xmlns="http://www.w3.org/2000/svg" id="SuccessMedium"><path d="M11 2a9 9 0 109 9 9 9 0 00-9-9zm5.638 5.609L10.1 15.652a.5.5 0 01-.742.038L5.086 11.5a.5.5 0 010-.707l.707-.707a.5.5 0 01.707 0L9.6 13.1l5.486-6.751a.5.5 0 01.7-.073l.776.631a.5.5 0 01.076.702z" class="spectrum-UIIcon--large"/><path d="M9 1a8 8 0 108 8 8 8 0 00-8-8zm5.333 4.54l-6.324 8.13a.6.6 0 01-.437.23h-.037a.6.6 0 01-.425-.176l-3.893-3.9a.6.6 0 010-.849l.663-.663a.6.6 0 01.848 0L7.4 10.991l5.256-6.754a.6.6 0 01.843-.1l.728.566a.6.6 0 01.106.837z" class="spectrum-UIIcon--medium"/></svg>