<svg xmlns="http://www.w3.org/2000/svg" id="TripleGripperNew"><path d="M12.625,1.25H1.375a.625.625,0,0,1,0-1.25h11.25a.625.625,0,0,1,0,1.25Zm.625,3.125a.6256.6256,0,0,0-.625-.625H1.375a.625.625,0,0,0,0,1.25h11.25A.6256.6256,0,0,0,13.25,4.375Zm0,3.75a.6256.6256,0,0,0-.625-.625H1.375a.625.625,0,0,0,0,1.25h11.25A.6256.6256,0,0,0,13.25,8.125Z" class="spectrum-UIIcon--large"/><path d="M9.45,1.05H.55a.5.5,0,0,1,0-1h8.9a.5.5,0,0,1,0,1Zm.5,2.45a.5.5,0,0,0-.5-.5H.55a.5.5,0,0,0,0,1h8.9A.5.5,0,0,0,9.95,3.5Zm0,3a.5.5,0,0,0-.5-.5H.55a.5.5,0,0,0,0,1h8.9A.5.5,0,0,0,9.95,6.5Z" class="spectrum-UIIcon--medium"/></svg>