<svg id="AsteriskSize300" xmlns="http://www.w3.org/2000/svg" width="12" height="12"><path d="M10.024,10.155c.087.089.146.206,0,.323L8.205,11.651c-.146.089-.2.03-.263-.117L5.685,7.605,2.723,10.859c-.03.057-.117.116-.2,0L1.116,9.392c-.147-.087-.117-.176,0-.263L4.455,6.344.642,4.908c-.059,0-.146-.117-.089-.264l1-1.993a.1559.1559,0,0,1,.192-.1.1629.1629,0,0,1,.073.0479L5.155,4.762,5.361.482A.1551.1551,0,0,1,5.489.3059a.2307.2307,0,0,1,.047,0l2.433.323c.147,0,.176.0591.147.206l-1.144,4.19,3.87-1.1729c.087-.0591.176-.0591.234.117l.381,2.169c.028.147,0,.206-.117.206l-4.046.323Z"/></svg>