<svg xmlns="http://www.w3.org/2000/svg" width="12" height="12"><path d="M9.575,9.696c.077.079.129.183,0,.287L7.96,11.025c-.129.079-.182.027-.234-.1L5.72,7.433,3.087,10.326c-.027.051-.1.1-.182,0l-1.251-1.3c-.131-.077-.1-.156,0-.234l2.97-2.476L1.236,5.031c-.052,0-.129-.1-.079-.235l.886-1.771a.1379.1379,0,0,1,.17-.093.144.144,0,0,1,.065.042l2.97,1.9279.183-3.8A.1369.1369,0,0,1,5.545.946a.1966.1966,0,0,1,.042,0l2.163.2869c.131,0,.156.052.131.183L6.86,5.136,10.3,4.093c.077-.052.156-.052.208.1l.339,1.9279c.025.131,0,.183-.1.183l-3.6.287Z"/></svg>