<svg xmlns="http://www.w3.org/2000/svg" width="8" height="8"><path d="M6.825,6.9026c.061.062.1.144,0,.227l-1.277.824c-.1.062-.143.0209-.185-.082L3.78,5.1116,1.7,7.3976c-.021.04-.082.081-.143,0L.569,6.3666c-.1-.061-.082-.123,0-.185l2.347-1.957L.236,3.2176c-.041,0-.1-.082-.062-.186l.7-1.4a.1089.1089,0,0,1,.135-.073.114.114,0,0,1,.051.033l2.347,1.523L3.552.1086a.109.109,0,0,1,.09-.1229.14.14,0,0,1,.033,0L5.384.2126c.1,0,.123.0411.1.144L4.684,3.3l2.718-.824c.061-.041.123-.041.165.082l.268,1.523c.02.1,0,.144-.082.144l-2.842.227Z"/></svg>