<svg xmlns="http://www.w3.org/2000/svg" width="10" height="10"><path d="M8.176,8.281c.069.07.115.163,0,.255l-1.437.927c-.115.07-.161.024-.208-.092l-1.783-3.1L2.409,8.842c-.024.045-.093.091-.161,0L1.136,7.678c-.116-.069-.093-.139,0-.208l2.639-2.2L.765,4.136c-.046,0-.115-.092-.07-.209l.788-1.5739a.1228.1228,0,0,1,.151-.083.1283.1283,0,0,1,.058.038l2.639,1.713L4.494.64a.1221.1221,0,0,1,.1-.139.1724.1724,0,0,1,.038,0l1.922.255c.116,0,.139.0461.116.1631l-.9,3.31,3.057-.927c.069-.0461.139-.0461.185.0919l.3,1.713c.023.1161,0,.162-.093.162l-3.2.255Z"/></svg>