<svg xmlns="http://www.w3.org/2000/svg" width="14" height="14" class="spectrum-UIIcon" viewBox="0 0 14 14">
  <path fill="var(--iconPrimary, #222)" d="M13.162 7.043c0-.014.008-.028.008-.043s-.008-.029-.008-.043a1 1 0 0 0-.067-.322c-.028-.068-.076-.121-.118-.18-.03-.04-.047-.089-.084-.126L8.826 2.262a.95.95 0 0 0-1.344 1.342L9.93 6.05H1.621a.949.949 0 1 0 0 1.898H9.93l-2.447 2.448a.95.95 0 0 0 1.344 1.341l4.067-4.067c.037-.037.054-.085.084-.127.042-.058.09-.111.118-.179a1 1 0 0 0 .067-.322"/>
</svg>
