<svg xmlns="http://www.w3.org/2000/svg" width="12" height="12" class="spectrum-UIIcon" viewBox="0 0 12 12">
  <path fill="var(--iconPrimary, #222)" d="M11.484 6.343c.026-.064.029-.132.04-.2.007-.048.027-.094.027-.143s-.02-.095-.028-.143c-.01-.068-.013-.136-.039-.2l-.004-.006a.9.9 0 0 0-.156-.236c-.016-.018-.022-.042-.04-.06L7.718 1.789a.912.912 0 0 0-1.29 1.29l2.012 2.01H1.286a.911.911 0 0 0 0 1.823H8.44L6.429 8.923a.912.912 0 0 0 1.289 1.289l3.566-3.567c.018-.018.024-.041.04-.06a.9.9 0 0 0 .156-.236z"/>
</svg>
