<svg width="154" height="24" viewBox="0 0 154 24" fill="none" xmlns="http://www.w3.org/2000/svg">
<g filter="url(#filter0_d_55860_30254)">
<path d="M8 14L19.7844 10L23.4671 12L30.0958 14L40.4072 15.2L51.4551 12L58.8204 6L66.9222 17.2L76.497 18L80.9162 17.2L89.018 10L97.8563 8.4L106.695 7.2H113.323L119.216 12L125.108 7.2H131" stroke="#F03823" stroke-width="0.8" stroke-linecap="round" stroke-linejoin="round"/>
</g>
<path d="M142.156 10.112C141.232 10.112 140.548 11.072 140.548 13.136C140.548 14.948 141.076 16.232 142.204 16.232C143.332 16.232 143.776 15.032 143.776 13.172C143.776 11.132 143.2 10.112 142.156 10.112ZM142.192 17.12C140.32 17.12 139.54 15.344 139.54 13.16C139.54 10.988 140.44 9.236 142.18 9.236C144.316 9.236 144.784 11.456 144.784 13.16C144.784 15.104 144.184 17.12 142.192 17.12Z" fill="#F03823"/>
<defs>
<filter id="filter0_d_55860_30254" x="5.99985" y="3.99998" width="127" height="16" filterUnits="userSpaceOnUse" color-interpolation-filters="sRGB">
<feFlood flood-opacity="0" result="BackgroundImageFix"/>
<feColorMatrix in="SourceAlpha" type="matrix" values="0 0 0 0 0 0 0 0 0 0 0 0 0 0 0 0 0 0 127 0" result="hardAlpha"/>
<feOffset/>
<feGaussianBlur stdDeviation="0.8"/>
<feColorMatrix type="matrix" values="0 0 0 0 0.827451 0 0 0 0 0 0 0 0 0 0.00784314 0 0 0 0.2 0"/>
<feBlend mode="normal" in2="BackgroundImageFix" result="effect1_dropShadow_55860_30254"/>
<feBlend mode="normal" in="SourceGraphic" in2="effect1_dropShadow_55860_30254" result="shape"/>
</filter>
</defs>
</svg>
