<svg width="154" height="24" viewBox="0 0 154 24" fill="none" xmlns="http://www.w3.org/2000/svg">
<g filter="url(#filter0_d_55860_30242)">
<path d="M8 13L17.8966 15L24.2586 7.40002L29.9138 13L36.9828 15L46.1724 18.6H58.8965L68.7931 15L80.1034 13L94.9483 10.2L105.552 13L114.741 5.40002L120.397 10.2H131" stroke="#4B75FF" stroke-linecap="round" stroke-linejoin="round"/>
</g>
<path d="M142.156 10.112C141.232 10.112 140.548 11.072 140.548 13.136C140.548 14.948 141.076 16.232 142.204 16.232C143.332 16.232 143.776 15.032 143.776 13.172C143.776 11.132 143.2 10.112 142.156 10.112ZM142.192 17.12C140.32 17.12 139.54 15.344 139.54 13.16C139.54 10.988 140.44 9.236 142.18 9.236C144.316 9.236 144.784 11.456 144.784 13.16C144.784 15.104 144.184 17.12 142.192 17.12Z" fill="#505050"/>
<defs>
<filter id="filter0_d_55860_30242" x="5.89988" y="3.30002" width="127.2" height="17.4" filterUnits="userSpaceOnUse" color-interpolation-filters="sRGB">
<feFlood flood-opacity="0" result="BackgroundImageFix"/>
<feColorMatrix in="SourceAlpha" type="matrix" values="0 0 0 0 0 0 0 0 0 0 0 0 0 0 0 0 0 0 127 0" result="hardAlpha"/>
<feOffset/>
<feGaussianBlur stdDeviation="0.8"/>
<feColorMatrix type="matrix" values="0 0 0 0 0 0 0 0 0 0.470588 0 0 0 0 0.843137 0 0 0 0.2 0"/>
<feBlend mode="normal" in2="BackgroundImageFix" result="effect1_dropShadow_55860_30242"/>
<feBlend mode="normal" in="SourceGraphic" in2="effect1_dropShadow_55860_30242" result="shape"/>
</filter>
</defs>
</svg>
