<svg width="230" height="40" viewBox="0 0 230 40" fill="none" xmlns="http://www.w3.org/2000/svg">
<mask id="path-1-inside-1_55860_26937" fill="white">
<path d="M0 0H230V40H0V0Z"/>
</mask>
<path d="M230 39H0V41H230V39Z" fill="#DADADA" mask="url(#path-1-inside-1_55860_26937)"/>
<g filter="url(#filter0_d_55860_26937)">
<path d="M24 20.9999L37.4368 22.9999L46.0747 15.3999L53.7529 20.9999L63.3506 22.9999L75.8276 26.5999H93.1034L106.54 22.9999L121.897 20.9999L142.052 18.1999L156.448 20.9999L168.925 13.3999L176.603 18.1999H191" stroke="#4B75FF" stroke-linecap="round" stroke-linejoin="round"/>
</g>
<path d="M202.156 18.112C201.232 18.112 200.548 19.072 200.548 21.136C200.548 22.948 201.076 24.232 202.204 24.232C203.332 24.232 203.776 23.032 203.776 21.172C203.776 19.132 203.2 18.112 202.156 18.112ZM202.192 25.12C200.32 25.12 199.54 23.344 199.54 21.16C199.54 18.988 200.44 17.236 202.18 17.236C204.316 17.236 204.784 19.456 204.784 21.16C204.784 23.104 204.184 25.12 202.192 25.12Z" fill="#505050"/>
<defs>
<filter id="filter0_d_55860_26937" x="21.9" y="11.2999" width="171.2" height="17.4" filterUnits="userSpaceOnUse" color-interpolation-filters="sRGB">
<feFlood flood-opacity="0" result="BackgroundImageFix"/>
<feColorMatrix in="SourceAlpha" type="matrix" values="0 0 0 0 0 0 0 0 0 0 0 0 0 0 0 0 0 0 127 0" result="hardAlpha"/>
<feOffset/>
<feGaussianBlur stdDeviation="0.8"/>
<feColorMatrix type="matrix" values="0 0 0 0 0 0 0 0 0 0.470588 0 0 0 0 0.843137 0 0 0 0.2 0"/>
<feBlend mode="normal" in2="BackgroundImageFix" result="effect1_dropShadow_55860_26937"/>
<feBlend mode="normal" in="SourceGraphic" in2="effect1_dropShadow_55860_26937" result="shape"/>
</filter>
</defs>
</svg>
